<svg width="1320" height="62" viewBox="0 0 1320 62" fill="none" xmlns="http://www.w3.org/2000/svg">
<path d="M27.4369 18.9175C22.0163 19.6142 10.5936 16.6156 9.89689 11.1948L9.81662 11.2051C10.3742 15.5437 12.6325 19.483 16.0945 22.1566C19.5566 24.8302 23.9389 26.019 28.2775 25.4616C30.8806 25.127 33.5101 25.8402 35.5875 27.4443C37.6649 29.0484 39.0198 31.4121 39.3544 34.0152C39.6896 36.6182 38.9768 39.2481 37.3731 41.3256C35.7693 43.4034 33.4059 44.7587 30.8029 45.0939C28.1996 45.4289 25.57 44.7161 23.4923 43.1124C21.4147 41.5086 20.0592 39.1452 19.7241 36.5422C19.448 34.3938 18.7514 32.321 17.6741 30.4419C16.5968 28.5629 15.16 26.9143 13.4456 25.5906C11.7312 24.2668 9.77295 23.2936 7.68248 22.7267C5.59203 22.1597 3.41036 22.0101 1.26207 22.2863L1.2723 22.3659C6.69209 21.6693 12.4812 31.9578 13.1801 37.3791L13.179 37.3792C13.5949 40.6148 14.9608 43.6543 17.104 46.1135C19.2473 48.5727 22.0716 50.3412 25.2199 51.1952C28.3683 52.0493 31.6991 51.9507 34.7914 50.9116C37.8836 49.8727 40.5983 47.9401 42.5923 45.3584C44.586 42.7765 45.7696 39.6615 45.9932 36.4069C46.2168 33.1525 45.4701 29.905 43.848 27.0748C42.2258 24.2446 39.8008 21.9591 36.8797 20.5071C33.9584 19.0551 30.6723 18.502 27.4369 18.9175Z" fill="url(#paint0_linear_1_59)"/>
<path d="M57.7872 21.0958V40H53.9955V21.0958H57.7872ZM69.848 24.7792C71.6355 24.7792 73.0799 25.3479 74.1813 26.4854C75.2827 27.6049 75.8334 29.1757 75.8334 31.1979V40H72.0417V31.7125C72.0417 30.5208 71.7438 29.609 71.148 28.9771C70.5521 28.3271 69.7396 28.0021 68.7105 28.0021C67.6632 28.0021 66.8327 28.3271 66.2188 28.9771C65.623 29.609 65.3251 30.5208 65.3251 31.7125V40H61.5334V24.9958H65.3251V26.8646C65.8306 26.2146 66.4716 25.709 67.248 25.3479C68.0424 24.9687 68.9091 24.7792 69.848 24.7792ZM86.3182 28.1104H83.6911V40H79.8453V28.1104H78.1391V24.9958H79.8453V24.2375C79.8453 22.3958 80.3689 21.0417 81.4161 20.175C82.4634 19.3083 84.0432 18.9021 86.1557 18.9563V22.1521C85.2349 22.134 84.5939 22.2875 84.2328 22.6125C83.8717 22.9375 83.6911 23.5243 83.6911 24.3729V24.9958H86.3182V28.1104ZM90.6983 23.2083C90.0303 23.2083 89.4705 23.0007 89.0192 22.5854C88.5858 22.1521 88.3692 21.6194 88.3692 20.9875C88.3692 20.3556 88.5858 19.8319 89.0192 19.4167C89.4705 18.9833 90.0303 18.7667 90.6983 18.7667C91.3664 18.7667 91.9171 18.9833 92.3504 19.4167C92.8018 19.8319 93.0275 20.3556 93.0275 20.9875C93.0275 21.6194 92.8018 22.1521 92.3504 22.5854C91.9171 23.0007 91.3664 23.2083 90.6983 23.2083ZM92.5671 24.9958V40H88.7754V24.9958H92.5671ZM104.628 24.7792C106.415 24.7792 107.86 25.3479 108.961 26.4854C110.063 27.6049 110.613 29.1757 110.613 31.1979V40H106.822V31.7125C106.822 30.5208 106.524 29.609 105.928 28.9771C105.332 28.3271 104.52 28.0021 103.49 28.0021C102.443 28.0021 101.613 28.3271 100.999 28.9771C100.403 29.609 100.105 30.5208 100.105 31.7125V40H96.3133V24.9958H100.105V26.8646C100.61 26.2146 101.251 25.709 102.028 25.3479C102.822 24.9687 103.689 24.7792 104.628 24.7792ZM116.142 23.2083C115.474 23.2083 114.914 23.0007 114.463 22.5854C114.029 22.1521 113.813 21.6194 113.813 20.9875C113.813 20.3556 114.029 19.8319 114.463 19.4167C114.914 18.9833 115.474 18.7667 116.142 18.7667C116.81 18.7667 117.361 18.9833 117.794 19.4167C118.245 19.8319 118.471 20.3556 118.471 20.9875C118.471 21.6194 118.245 22.1521 117.794 22.5854C117.361 23.0007 116.81 23.2083 116.142 23.2083ZM118.011 24.9958V40H114.219V24.9958H118.011ZM125.223 36.8854H131.913V40H120.917V36.9396L127.471 28.1104H120.944V24.9958H131.832V28.0563L125.223 36.8854ZM133.874 32.4437C133.874 30.9271 134.172 29.5819 134.768 28.4083C135.381 27.2347 136.203 26.3319 137.232 25.7C138.279 25.0681 139.444 24.7521 140.726 24.7521C141.845 24.7521 142.82 24.9778 143.651 25.4292C144.5 25.8806 145.177 26.4493 145.682 27.1354V24.9958H149.501V40H145.682V37.8063C145.195 38.5104 144.518 39.0972 143.651 39.5667C142.802 40.0181 141.818 40.2438 140.699 40.2438C139.435 40.2438 138.279 39.9188 137.232 39.2688C136.203 38.6188 135.381 37.7069 134.768 36.5333C134.172 35.3417 133.874 33.9785 133.874 32.4437ZM145.682 32.4979C145.682 31.5771 145.502 30.7917 145.14 30.1417C144.779 29.4736 144.292 28.9681 143.678 28.625C143.064 28.2639 142.405 28.0833 141.701 28.0833C140.997 28.0833 140.347 28.2549 139.751 28.5979C139.155 28.941 138.668 29.4465 138.288 30.1146C137.927 30.7646 137.747 31.541 137.747 32.4437C137.747 33.3465 137.927 34.141 138.288 34.8271C138.668 35.4951 139.155 36.0097 139.751 36.3708C140.365 36.7319 141.015 36.9125 141.701 36.9125C142.405 36.9125 143.064 36.741 143.678 36.3979C144.292 36.0368 144.779 35.5312 145.14 34.8812C145.502 34.2132 145.682 33.4188 145.682 32.4979ZM155.127 23.2083C154.459 23.2083 153.899 23.0007 153.448 22.5854C153.015 22.1521 152.798 21.6194 152.798 20.9875C152.798 20.3556 153.015 19.8319 153.448 19.4167C153.899 18.9833 154.459 18.7667 155.127 18.7667C155.795 18.7667 156.346 18.9833 156.779 19.4167C157.231 19.8319 157.456 20.3556 157.456 20.9875C157.456 21.6194 157.231 22.1521 156.779 22.5854C156.346 23.0007 155.795 23.2083 155.127 23.2083ZM156.996 24.9958V40H153.204V24.9958H156.996Z" fill="white"/>
<path d="M169.498 33.4893H164V38.9871H169.498V33.4893Z" fill="#3BAAFB"/>
<path d="M1142.5 0.5H1319.5V61.5H1142.5V0.5Z" stroke="white"/>
<path d="M1176.17 38C1175.77 38 1175.41 37.904 1175.07 37.712C1174.75 37.52 1174.49 37.262 1174.3 36.938C1174.1 36.602 1174.01 36.236 1174.01 35.84V27.2C1174.01 26.804 1174.1 26.444 1174.3 26.12C1174.49 25.784 1174.75 25.52 1175.07 25.328C1175.41 25.136 1175.77 25.04 1176.17 25.04H1186.93V26.498H1176.17C1175.98 26.498 1175.81 26.57 1175.66 26.714C1175.53 26.846 1175.47 27.008 1175.47 27.2V35.84C1175.47 36.032 1175.53 36.2 1175.66 36.344C1175.81 36.476 1175.98 36.542 1176.17 36.542H1186.93V38H1176.17ZM1190.9 38C1190.5 38 1190.13 37.904 1189.8 37.712C1189.47 37.508 1189.21 37.244 1189.01 36.92C1188.81 36.584 1188.72 36.218 1188.72 35.822V29.738C1188.72 29.342 1188.81 28.982 1189.01 28.658C1189.21 28.322 1189.47 28.058 1189.8 27.866C1190.13 27.662 1190.5 27.56 1190.9 27.56H1197.16C1197.57 27.56 1197.93 27.662 1198.26 27.866C1198.59 28.058 1198.86 28.322 1199.05 28.658C1199.25 28.982 1199.36 29.342 1199.36 29.738V35.822C1199.36 36.218 1199.25 36.584 1199.05 36.92C1198.86 37.244 1198.59 37.508 1198.26 37.712C1197.93 37.904 1197.57 38 1197.16 38H1190.9ZM1190.9 36.524H1197.16C1197.35 36.524 1197.51 36.458 1197.65 36.326C1197.79 36.182 1197.86 36.014 1197.86 35.822V29.738C1197.86 29.546 1197.79 29.384 1197.65 29.252C1197.51 29.108 1197.35 29.036 1197.16 29.036H1190.9C1190.7 29.036 1190.54 29.108 1190.39 29.252C1190.26 29.384 1190.19 29.546 1190.19 29.738V35.822C1190.19 36.014 1190.26 36.182 1190.39 36.326C1190.54 36.458 1190.7 36.524 1190.9 36.524ZM1200.97 38V27.56H1209.43C1209.83 27.56 1210.19 27.662 1210.51 27.866C1210.85 28.058 1211.11 28.322 1211.3 28.658C1211.51 28.982 1211.61 29.342 1211.61 29.738V38H1210.13V29.738C1210.13 29.546 1210.06 29.384 1209.92 29.252C1209.79 29.108 1209.62 29.036 1209.43 29.036H1203.17C1202.98 29.036 1202.81 29.108 1202.66 29.252C1202.52 29.384 1202.45 29.546 1202.45 29.738V38H1200.97ZM1215.67 38C1215.26 38 1214.89 37.904 1214.55 37.712C1214.23 37.508 1213.97 37.244 1213.78 36.92C1213.58 36.584 1213.49 36.218 1213.49 35.822V24.14H1214.96V27.56H1219.48V29.036H1214.96V35.822C1214.96 36.014 1215.03 36.182 1215.16 36.326C1215.31 36.458 1215.47 36.524 1215.67 36.524H1219.48V38H1215.67ZM1223.03 38C1222.63 38 1222.27 37.904 1221.93 37.712C1221.61 37.508 1221.34 37.244 1221.14 36.92C1220.95 36.584 1220.85 36.218 1220.85 35.822V32.042H1230V29.738C1230 29.546 1229.92 29.384 1229.78 29.252C1229.65 29.108 1229.49 29.036 1229.29 29.036H1220.85V27.56H1229.29C1229.7 27.56 1230.07 27.662 1230.39 27.866C1230.73 28.058 1230.99 28.322 1231.18 28.658C1231.39 28.982 1231.49 29.342 1231.49 29.738V38H1223.03ZM1223.03 36.524H1230V33.518H1222.33V35.822C1222.33 36.014 1222.39 36.182 1222.53 36.326C1222.67 36.458 1222.84 36.524 1223.03 36.524ZM1235.33 38C1234.94 38 1234.57 37.904 1234.24 37.712C1233.91 37.508 1233.65 37.244 1233.44 36.92C1233.25 36.584 1233.16 36.218 1233.16 35.822V29.738C1233.16 29.342 1233.25 28.982 1233.44 28.658C1233.65 28.322 1233.91 28.058 1234.24 27.866C1234.57 27.662 1234.94 27.56 1235.33 27.56H1243.76V29.036H1235.33C1235.14 29.036 1234.97 29.108 1234.83 29.252C1234.7 29.384 1234.63 29.546 1234.63 29.738V35.822C1234.63 36.014 1234.7 36.182 1234.83 36.326C1234.97 36.458 1235.14 36.524 1235.33 36.524H1243.79V38H1235.33ZM1247.43 38C1247.02 38 1246.65 37.904 1246.31 37.712C1245.99 37.508 1245.73 37.244 1245.54 36.92C1245.35 36.584 1245.25 36.218 1245.25 35.822V24.14H1246.73V27.56H1251.24V29.036H1246.73V35.822C1246.73 36.014 1246.79 36.182 1246.92 36.326C1247.07 36.458 1247.24 36.524 1247.43 36.524H1251.24V38H1247.43ZM1259.72 38C1259.32 38 1258.95 37.904 1258.62 37.712C1258.29 37.52 1258.04 37.262 1257.84 36.938C1257.65 36.602 1257.56 36.236 1257.56 35.84V25.04H1259.01V35.84C1259.01 36.032 1259.08 36.2 1259.21 36.344C1259.36 36.476 1259.52 36.542 1259.72 36.542H1268.36C1268.55 36.542 1268.71 36.476 1268.84 36.344C1268.99 36.2 1269.06 36.032 1269.06 35.84V25.04H1270.52V35.84C1270.52 36.236 1270.42 36.602 1270.23 36.938C1270.04 37.262 1269.77 37.52 1269.44 37.712C1269.11 37.904 1268.75 38 1268.36 38H1259.72ZM1274.53 38C1274.14 38 1273.77 37.904 1273.43 37.712C1273.11 37.508 1272.85 37.244 1272.64 36.92C1272.45 36.584 1272.35 36.218 1272.35 35.822V35.678H1273.83V35.822C1273.83 36.014 1273.9 36.182 1274.03 36.326C1274.17 36.458 1274.34 36.524 1274.53 36.524H1280.8C1280.99 36.524 1281.15 36.458 1281.28 36.326C1281.43 36.182 1281.5 36.014 1281.5 35.822V34.22C1281.5 34.028 1281.43 33.866 1281.28 33.734C1281.15 33.59 1280.99 33.518 1280.8 33.518H1274.53C1274.14 33.518 1273.77 33.422 1273.43 33.23C1273.11 33.026 1272.85 32.762 1272.64 32.438C1272.45 32.102 1272.35 31.736 1272.35 31.34V29.738C1272.35 29.342 1272.45 28.982 1272.64 28.658C1272.85 28.322 1273.11 28.058 1273.43 27.866C1273.77 27.662 1274.14 27.56 1274.53 27.56H1280.8C1281.2 27.56 1281.57 27.662 1281.89 27.866C1282.23 28.058 1282.49 28.322 1282.69 28.658C1282.89 28.982 1282.99 29.342 1282.99 29.738V29.882H1281.5V29.738C1281.5 29.546 1281.43 29.384 1281.28 29.252C1281.15 29.108 1280.99 29.036 1280.8 29.036H1274.53C1274.34 29.036 1274.17 29.108 1274.03 29.252C1273.9 29.384 1273.83 29.546 1273.83 29.738V31.34C1273.83 31.532 1273.9 31.7 1274.03 31.844C1274.17 31.976 1274.34 32.042 1274.53 32.042H1280.8C1281.2 32.042 1281.57 32.144 1281.89 32.348C1282.23 32.54 1282.49 32.804 1282.69 33.14C1282.89 33.464 1282.99 33.824 1282.99 34.22V35.822C1282.99 36.218 1282.89 36.584 1282.69 36.92C1282.49 37.244 1282.23 37.508 1281.89 37.712C1281.57 37.904 1281.2 38 1280.8 38H1274.53Z" fill="white"/>
<path d="M1094 49C1089 49 1084.75 47.25 1081.25 43.75C1077.75 40.25 1076 36 1076 31C1076 26 1077.75 21.75 1081.25 18.25C1084.75 14.75 1089 13 1094 13C1094.27 13 1094.55 13.0083 1094.85 13.025C1095.15 13.0417 1095.53 13.0667 1096 13.1C1094.8 14.1667 1093.87 15.4833 1093.2 17.05C1092.53 18.6167 1092.2 20.2667 1092.2 22C1092.2 25 1093.25 27.55 1095.35 29.65C1097.45 31.75 1100 32.8 1103 32.8C1104.73 32.8 1106.38 32.4917 1107.95 31.875C1109.52 31.2583 1110.83 30.4 1111.9 29.3C1111.93 29.7 1111.96 30.025 1111.97 30.275C1111.99 30.525 1112 30.7667 1112 31C1112 36 1110.25 40.25 1106.75 43.75C1103.25 47.25 1099 49 1094 49ZM1094 46C1097.63 46 1100.8 44.875 1103.5 42.625C1106.2 40.375 1107.88 37.7333 1108.55 34.7C1107.72 35.0667 1106.83 35.3417 1105.88 35.525C1104.92 35.7083 1103.97 35.8 1103 35.8C1099.17 35.8 1095.91 34.4583 1093.23 31.775C1090.54 29.0917 1089.2 25.8333 1089.2 22C1089.2 21.2 1089.28 20.3417 1089.45 19.425C1089.62 18.5083 1089.92 17.4667 1090.35 16.3C1087.08 17.2 1084.38 19.025 1082.23 21.775C1080.08 24.525 1079 27.6 1079 31C1079 35.1667 1080.46 38.7083 1083.38 41.625C1086.29 44.5417 1089.83 46 1094 46Z" fill="white"/>
<path d="M352.693 37V25.48H353.989V30.584H363.189V25.48H364.501V37H363.189V31.896H353.989V37H352.693ZM368.143 37C367.791 37 367.465 36.9147 367.167 36.744C366.879 36.5627 366.644 36.328 366.463 36.04C366.292 35.7413 366.207 35.416 366.207 35.064V29.656C366.207 29.304 366.292 28.984 366.463 28.696C366.644 28.3973 366.879 28.1627 367.167 27.992C367.465 27.8107 367.791 27.72 368.143 27.72H373.711C374.073 27.72 374.399 27.8107 374.687 27.992C374.985 28.1627 375.22 28.3973 375.391 28.696C375.572 28.984 375.663 29.304 375.663 29.656V35.064C375.663 35.416 375.572 35.7413 375.391 36.04C375.22 36.328 374.985 36.5627 374.687 36.744C374.399 36.9147 374.073 37 373.711 37H368.143ZM368.143 35.688H373.711C373.881 35.688 374.025 35.6293 374.143 35.512C374.271 35.384 374.335 35.2347 374.335 35.064V29.656C374.335 29.4853 374.271 29.3413 374.143 29.224C374.025 29.096 373.881 29.032 373.711 29.032H368.143C367.972 29.032 367.823 29.096 367.695 29.224C367.577 29.3413 367.519 29.4853 367.519 29.656V35.064C367.519 35.2347 367.577 35.384 367.695 35.512C367.823 35.6293 367.972 35.688 368.143 35.688ZM377.333 37V27.72H389.589C389.951 27.72 390.277 27.8107 390.565 27.992C390.863 28.1627 391.098 28.3973 391.269 28.696C391.439 28.984 391.525 29.304 391.525 29.656V37H390.229V29.656C390.229 29.4853 390.165 29.3413 390.037 29.224C389.909 29.096 389.759 29.032 389.589 29.032H385.733C385.562 29.032 385.413 29.096 385.285 29.224C385.167 29.3413 385.109 29.4853 385.109 29.656V37H383.781V29.656C383.781 29.4853 383.717 29.3413 383.589 29.224C383.471 29.096 383.327 29.032 383.157 29.032H379.285C379.114 29.032 378.965 29.096 378.837 29.224C378.719 29.3413 378.661 29.4853 378.661 29.656V37H377.333ZM394.861 37C394.509 37 394.184 36.9147 393.885 36.744C393.597 36.5627 393.363 36.328 393.181 36.04C393.011 35.7413 392.925 35.416 392.925 35.064V29.656C392.925 29.304 393.011 28.984 393.181 28.696C393.363 28.3973 393.597 28.1627 393.885 27.992C394.184 27.8107 394.509 27.72 394.861 27.72H400.429C400.792 27.72 401.117 27.8107 401.405 27.992C401.704 28.1627 401.939 28.3973 402.109 28.696C402.291 28.984 402.381 29.304 402.381 29.656V33.016H394.237V35.064C394.237 35.2347 394.296 35.384 394.413 35.512C394.541 35.6293 394.691 35.688 394.861 35.688H402.381V37H394.861ZM394.237 31.704H401.053V29.656C401.053 29.4853 400.989 29.3413 400.861 29.224C400.744 29.096 400.6 29.032 400.429 29.032H394.861C394.691 29.032 394.541 29.096 394.413 29.224C394.296 29.3413 394.237 29.4853 394.237 29.656V31.704Z" fill="#FAC422"/>
<path d="M464.709 37V27.4C464.709 27.048 464.795 26.728 464.965 26.44C465.136 26.1413 465.365 25.9067 465.653 25.736C465.952 25.5653 466.277 25.48 466.629 25.48H474.309C474.661 25.48 474.981 25.5653 475.269 25.736C475.568 25.9067 475.803 26.1413 475.973 26.44C476.144 26.728 476.229 27.048 476.229 27.4V37H474.933V32.792H466.005V37H464.709ZM466.005 31.496H474.933V27.4C474.933 27.2293 474.869 27.0853 474.741 26.968C474.624 26.84 474.48 26.776 474.309 26.776H466.629C466.459 26.776 466.309 26.84 466.181 26.968C466.064 27.0853 466.005 27.2293 466.005 27.4V31.496ZM478.02 37V24.68H479.332V27.72H485.54C485.892 27.72 486.212 27.8107 486.5 27.992C486.799 28.1627 487.034 28.3973 487.204 28.696C487.386 28.984 487.476 29.304 487.476 29.656V35.064C487.476 35.416 487.386 35.7413 487.204 36.04C487.034 36.328 486.799 36.5627 486.5 36.744C486.212 36.9147 485.892 37 485.54 37H478.02ZM479.972 35.688H485.54C485.711 35.688 485.855 35.6293 485.972 35.512C486.1 35.384 486.164 35.2347 486.164 35.064V29.656C486.164 29.4853 486.1 29.3413 485.972 29.224C485.855 29.096 485.711 29.032 485.54 29.032H479.972C479.802 29.032 479.652 29.096 479.524 29.224C479.396 29.3413 479.332 29.4853 479.332 29.656V35.064C479.332 35.2347 479.396 35.384 479.524 35.512C479.652 35.6293 479.802 35.688 479.972 35.688ZM490.58 37C490.228 37 489.903 36.9147 489.604 36.744C489.316 36.5627 489.081 36.328 488.9 36.04C488.729 35.7413 488.644 35.416 488.644 35.064V29.656C488.644 29.304 488.729 28.984 488.9 28.696C489.081 28.3973 489.316 28.1627 489.604 27.992C489.903 27.8107 490.228 27.72 490.58 27.72H496.148C496.511 27.72 496.836 27.8107 497.124 27.992C497.423 28.1627 497.657 28.3973 497.828 28.696C498.009 28.984 498.1 29.304 498.1 29.656V35.064C498.1 35.416 498.009 35.7413 497.828 36.04C497.657 36.328 497.423 36.5627 497.124 36.744C496.836 36.9147 496.511 37 496.148 37H490.58ZM490.58 35.688H496.148C496.319 35.688 496.463 35.6293 496.58 35.512C496.708 35.384 496.772 35.2347 496.772 35.064V29.656C496.772 29.4853 496.708 29.3413 496.58 29.224C496.463 29.096 496.319 29.032 496.148 29.032H490.58C490.409 29.032 490.26 29.096 490.132 29.224C490.015 29.3413 489.956 29.4853 489.956 29.656V35.064C489.956 35.2347 490.015 35.384 490.132 35.512C490.26 35.6293 490.409 35.688 490.58 35.688ZM501.315 37C500.963 37 500.638 36.9147 500.339 36.744C500.051 36.5627 499.817 36.328 499.635 36.04C499.465 35.7413 499.379 35.416 499.379 35.064V27.72H500.691V35.064C500.691 35.2347 500.75 35.384 500.867 35.512C500.995 35.6293 501.145 35.688 501.315 35.688H506.883C507.054 35.688 507.203 35.6293 507.331 35.512C507.459 35.384 507.523 35.2347 507.523 35.064V27.72H508.835V35.064C508.835 35.416 508.745 35.7413 508.563 36.04C508.393 36.328 508.158 36.5627 507.859 36.744C507.571 36.9147 507.246 37 506.883 37H501.315ZM512.206 37C511.843 37 511.513 36.9147 511.214 36.744C510.926 36.5627 510.697 36.328 510.526 36.04C510.355 35.7413 510.27 35.416 510.27 35.064V24.68H511.582V27.72H515.598V29.032H511.582V35.064C511.582 35.2347 511.641 35.384 511.758 35.512C511.886 35.6293 512.035 35.688 512.206 35.688H515.598V37H512.206Z" fill="white"/>
<path d="M585.221 37V26.776H580.101V25.48H591.621V26.776H586.517V37H585.221ZM594.674 37C594.322 37 593.997 36.9147 593.698 36.744C593.41 36.5627 593.175 36.328 592.994 36.04C592.823 35.7413 592.738 35.416 592.738 35.064V29.656C592.738 29.304 592.823 28.984 592.994 28.696C593.175 28.3973 593.41 28.1627 593.698 27.992C593.997 27.8107 594.322 27.72 594.674 27.72H600.242C600.605 27.72 600.93 27.8107 601.218 27.992C601.517 28.1627 601.751 28.3973 601.922 28.696C602.103 28.984 602.194 29.304 602.194 29.656V33.016H594.05V35.064C594.05 35.2347 594.109 35.384 594.226 35.512C594.354 35.6293 594.503 35.688 594.674 35.688H602.194V37H594.674ZM594.05 31.704H600.866V29.656C600.866 29.4853 600.802 29.3413 600.674 29.224C600.557 29.096 600.413 29.032 600.242 29.032H594.674C594.503 29.032 594.354 29.096 594.226 29.224C594.109 29.3413 594.05 29.4853 594.05 29.656V31.704ZM605.768 37C605.416 37 605.091 36.9147 604.792 36.744C604.504 36.5627 604.269 36.328 604.088 36.04C603.917 35.7413 603.832 35.416 603.832 35.064V31.704H611.96V29.656C611.96 29.4853 611.896 29.3413 611.768 29.224C611.651 29.096 611.507 29.032 611.336 29.032H603.832V27.72H611.336C611.699 27.72 612.024 27.8107 612.312 27.992C612.611 28.1627 612.845 28.3973 613.016 28.696C613.197 28.984 613.288 29.304 613.288 29.656V37H605.768ZM605.768 35.688H611.96V33.016H605.144V35.064C605.144 35.2347 605.203 35.384 605.32 35.512C605.448 35.6293 605.597 35.688 605.768 35.688ZM614.661 37V27.72H626.917C627.28 27.72 627.605 27.8107 627.893 27.992C628.192 28.1627 628.426 28.3973 628.597 28.696C628.768 28.984 628.853 29.304 628.853 29.656V37H627.557V29.656C627.557 29.4853 627.493 29.3413 627.365 29.224C627.237 29.096 627.088 29.032 626.917 29.032H623.061C622.89 29.032 622.741 29.096 622.613 29.224C622.496 29.3413 622.437 29.4853 622.437 29.656V37H621.109V29.656C621.109 29.4853 621.045 29.3413 620.917 29.224C620.8 29.096 620.656 29.032 620.485 29.032H616.613C616.442 29.032 616.293 29.096 616.165 29.224C616.048 29.3413 615.989 29.4853 615.989 29.656V37H614.661Z" fill="white"/>
<path d="M696.517 37C696.165 37 695.84 36.9147 695.541 36.744C695.253 36.5733 695.024 36.344 694.853 36.056C694.683 35.7573 694.597 35.432 694.597 35.08V34.632H695.893V35.08C695.893 35.2507 695.952 35.4 696.069 35.528C696.197 35.6453 696.347 35.704 696.517 35.704H704.197C704.368 35.704 704.512 35.6453 704.629 35.528C704.757 35.4 704.821 35.2507 704.821 35.08V32.504C704.821 32.3333 704.757 32.1893 704.629 32.072C704.512 31.9547 704.368 31.896 704.197 31.896H696.517C696.165 31.896 695.84 31.8107 695.541 31.64C695.253 31.4587 695.024 31.224 694.853 30.936C694.683 30.648 694.597 30.328 694.597 29.976V27.4C694.597 27.048 694.683 26.728 694.853 26.44C695.024 26.1413 695.253 25.9067 695.541 25.736C695.84 25.5653 696.165 25.48 696.517 25.48H704.197C704.549 25.48 704.869 25.5653 705.157 25.736C705.456 25.9067 705.691 26.1413 705.861 26.44C706.032 26.728 706.117 27.048 706.117 27.4V27.848H704.821V27.4C704.821 27.2293 704.757 27.0853 704.629 26.968C704.512 26.84 704.368 26.776 704.197 26.776H696.517C696.347 26.776 696.197 26.84 696.069 26.968C695.952 27.0853 695.893 27.2293 695.893 27.4V29.976C695.893 30.1467 695.952 30.2907 696.069 30.408C696.197 30.5253 696.347 30.584 696.517 30.584H704.197C704.549 30.584 704.869 30.6747 705.157 30.856C705.456 31.0267 705.691 31.256 705.861 31.544C706.032 31.832 706.117 32.152 706.117 32.504V35.08C706.117 35.432 706.032 35.7573 705.861 36.056C705.691 36.344 705.456 36.5733 705.157 36.744C704.869 36.9147 704.549 37 704.197 37H696.517ZM707.802 37V24.68H709.114V27.72H715.322C715.674 27.72 715.994 27.8107 716.282 27.992C716.58 28.1627 716.815 28.3973 716.986 28.696C717.167 28.984 717.258 29.304 717.258 29.656V37H715.946V29.656C715.946 29.4853 715.882 29.3413 715.753 29.224C715.636 29.096 715.492 29.032 715.322 29.032H709.754C709.583 29.032 709.434 29.096 709.306 29.224C709.178 29.3413 709.114 29.4853 709.114 29.656V37H707.802ZM720.377 37C720.025 37 719.7 36.9147 719.401 36.744C719.113 36.5627 718.878 36.328 718.697 36.04C718.526 35.7413 718.441 35.416 718.441 35.064V29.656C718.441 29.304 718.526 28.984 718.697 28.696C718.878 28.3973 719.113 28.1627 719.401 27.992C719.7 27.8107 720.025 27.72 720.377 27.72H725.945C726.308 27.72 726.633 27.8107 726.921 27.992C727.22 28.1627 727.454 28.3973 727.625 28.696C727.806 28.984 727.897 29.304 727.897 29.656V35.064C727.897 35.416 727.806 35.7413 727.625 36.04C727.454 36.328 727.22 36.5627 726.921 36.744C726.633 36.9147 726.308 37 725.945 37H720.377ZM720.377 35.688H725.945C726.116 35.688 726.26 35.6293 726.377 35.512C726.505 35.384 726.569 35.2347 726.569 35.064V29.656C726.569 29.4853 726.505 29.3413 726.377 29.224C726.26 29.096 726.116 29.032 725.945 29.032H720.377C720.206 29.032 720.057 29.096 719.929 29.224C719.812 29.3413 719.753 29.4853 719.753 29.656V35.064C719.753 35.2347 719.812 35.384 719.929 35.512C720.057 35.6293 720.206 35.688 720.377 35.688ZM729.567 40.68V27.72H737.087C737.439 27.72 737.759 27.8107 738.047 27.992C738.346 28.1627 738.58 28.3973 738.751 28.696C738.932 28.984 739.023 29.304 739.023 29.656V35.064C739.023 35.416 738.932 35.7413 738.751 36.04C738.58 36.328 738.346 36.5627 738.047 36.744C737.759 36.9147 737.439 37 737.087 37H730.879V40.68H729.567ZM731.519 35.688H737.087C737.258 35.688 737.402 35.6293 737.519 35.512C737.647 35.384 737.711 35.2347 737.711 35.064V29.656C737.711 29.4853 737.647 29.3413 737.519 29.224C737.402 29.096 737.258 29.032 737.087 29.032H731.519C731.348 29.032 731.199 29.096 731.071 29.224C730.943 29.3413 730.879 29.4853 730.879 29.656V35.064C730.879 35.2347 730.943 35.384 731.071 35.512C731.199 35.6293 731.348 35.688 731.519 35.688Z" fill="white"/>
<path d="M802.677 37V25.496H812.277C812.629 25.496 812.949 25.5867 813.237 25.768C813.536 25.9387 813.771 26.168 813.941 26.456C814.112 26.744 814.197 27.064 814.197 27.416V30.792C814.197 31.144 814.112 31.464 813.941 31.752C813.771 32.04 813.536 32.2747 813.237 32.456C812.949 32.6267 812.629 32.712 812.277 32.712H803.973V37H802.677ZM804.597 31.4H812.277C812.448 31.4 812.592 31.3413 812.709 31.224C812.837 31.1067 812.901 30.9627 812.901 30.792V27.416C812.901 27.2453 812.837 27.1013 812.709 26.984C812.592 26.856 812.448 26.792 812.277 26.792H804.597C804.427 26.792 804.277 26.856 804.149 26.984C804.032 27.1013 803.973 27.2453 803.973 27.416V30.792C803.973 30.9627 804.032 31.1067 804.149 31.224C804.277 31.3413 804.427 31.4 804.597 31.4ZM817.206 37C816.854 37 816.528 36.9147 816.23 36.744C815.942 36.5627 815.707 36.328 815.526 36.04C815.355 35.7413 815.27 35.416 815.27 35.064V31.704H823.398V29.656C823.398 29.4853 823.334 29.3413 823.206 29.224C823.088 29.096 822.944 29.032 822.774 29.032H815.27V27.72H822.774C823.136 27.72 823.462 27.8107 823.75 27.992C824.048 28.1627 824.283 28.3973 824.454 28.696C824.635 28.984 824.726 29.304 824.726 29.656V37H817.206ZM817.206 35.688H823.398V33.016H816.582V35.064C816.582 35.2347 816.64 35.384 816.758 35.512C816.886 35.6293 817.035 35.688 817.206 35.688ZM827.915 40.664V39.336H833.707C833.878 39.336 834.022 39.272 834.139 39.144C834.267 39.0267 834.331 38.8827 834.331 38.712V37H828.139C827.787 37 827.462 36.9147 827.163 36.744C826.875 36.5627 826.64 36.328 826.459 36.04C826.288 35.7413 826.203 35.416 826.203 35.064V29.656C826.203 29.304 826.288 28.984 826.459 28.696C826.64 28.3973 826.875 28.1627 827.163 27.992C827.462 27.8107 827.787 27.72 828.139 27.72H833.707C834.07 27.72 834.395 27.8107 834.683 27.992C834.982 28.1627 835.216 28.3973 835.387 28.696C835.558 28.984 835.643 29.304 835.643 29.656V38.712C835.643 39.0747 835.558 39.4 835.387 39.688C835.216 39.9867 834.982 40.2213 834.683 40.392C834.395 40.5733 834.07 40.664 833.707 40.664H827.915ZM828.139 35.688H833.707C833.878 35.688 834.022 35.6293 834.139 35.512C834.267 35.384 834.331 35.2347 834.331 35.064V29.656C834.331 29.4853 834.267 29.3413 834.139 29.224C834.022 29.096 833.878 29.032 833.707 29.032H828.139C827.968 29.032 827.819 29.096 827.691 29.224C827.574 29.3413 827.515 29.4853 827.515 29.656V35.064C827.515 35.2347 827.574 35.384 827.691 35.512C827.819 35.6293 827.968 35.688 828.139 35.688ZM838.986 37C838.634 37 838.309 36.9147 838.01 36.744C837.722 36.5627 837.488 36.328 837.306 36.04C837.136 35.7413 837.05 35.416 837.05 35.064V29.656C837.05 29.304 837.136 28.984 837.306 28.696C837.488 28.3973 837.722 28.1627 838.01 27.992C838.309 27.8107 838.634 27.72 838.986 27.72H844.554C844.917 27.72 845.242 27.8107 845.53 27.992C845.829 28.1627 846.064 28.3973 846.234 28.696C846.416 28.984 846.506 29.304 846.506 29.656V33.016H838.362V35.064C838.362 35.2347 838.421 35.384 838.538 35.512C838.666 35.6293 838.816 35.688 838.986 35.688H846.506V37H838.986ZM838.362 31.704H845.178V29.656C845.178 29.4853 845.114 29.3413 844.986 29.224C844.869 29.096 844.725 29.032 844.554 29.032H838.986C838.816 29.032 838.666 29.096 838.538 29.224C838.421 29.3413 838.362 29.4853 838.362 29.656V31.704ZM850.017 37C849.665 37 849.339 36.9147 849.041 36.744C848.753 36.5627 848.518 36.328 848.337 36.04C848.166 35.7413 848.081 35.416 848.081 35.064V34.936H849.393V35.064C849.393 35.2347 849.451 35.384 849.569 35.512C849.697 35.6293 849.846 35.688 850.017 35.688H855.585C855.755 35.688 855.899 35.6293 856.017 35.512C856.145 35.384 856.209 35.2347 856.209 35.064V33.64C856.209 33.4693 856.145 33.3253 856.017 33.208C855.899 33.08 855.755 33.016 855.585 33.016H850.017C849.665 33.016 849.339 32.9307 849.041 32.76C848.753 32.5787 848.518 32.344 848.337 32.056C848.166 31.7573 848.081 31.432 848.081 31.08V29.656C848.081 29.304 848.166 28.984 848.337 28.696C848.518 28.3973 848.753 28.1627 849.041 27.992C849.339 27.8107 849.665 27.72 850.017 27.72H855.585C855.947 27.72 856.273 27.8107 856.561 27.992C856.859 28.1627 857.094 28.3973 857.265 28.696C857.446 28.984 857.537 29.304 857.537 29.656V29.784H856.209V29.656C856.209 29.4853 856.145 29.3413 856.017 29.224C855.899 29.096 855.755 29.032 855.585 29.032H850.017C849.846 29.032 849.697 29.096 849.569 29.224C849.451 29.3413 849.393 29.4853 849.393 29.656V31.08C849.393 31.2507 849.451 31.4 849.569 31.528C849.697 31.6453 849.846 31.704 850.017 31.704H855.585C855.947 31.704 856.273 31.7947 856.561 31.976C856.859 32.1467 857.094 32.3813 857.265 32.68C857.446 32.968 857.537 33.288 857.537 33.64V35.064C857.537 35.416 857.446 35.7413 857.265 36.04C857.094 36.328 856.859 36.5627 856.561 36.744C856.273 36.9147 855.947 37 855.585 37H850.017Z" fill="white"/>
<defs>
<linearGradient id="paint0_linear_1_59" x1="16.303" y1="16.7058" x2="49.2901" y2="54.6409" gradientUnits="userSpaceOnUse">
<stop stop-color="#57B8FF"/>
<stop offset="0.940625" stop-color="#038EF2"/>
<stop offset="1" stop-color="white" stop-opacity="0"/>
</linearGradient>
</defs>
</svg>
