<svg width="770" height="33" viewBox="0 0 770 33" fill="none" xmlns="http://www.w3.org/2000/svg">
<path d="M281.247 7.25C282.06 8.38815 282.497 9.75188 282.497 11.1506V12.5C282.925 12.5 283.341 12.3568 283.679 12.0931C284.017 11.8294 284.257 11.4605 284.361 11.0448L284.497 10.5L284.866 10.9434C285.462 11.6583 285.785 12.561 285.779 13.4915C285.773 14.4221 285.437 15.3202 284.831 16.0268C284.604 16.2915 284.486 16.6322 284.499 16.9806C284.512 17.3291 284.657 17.6596 284.903 17.9062C285.041 18.0439 285.206 18.151 285.388 18.2205C285.57 18.29 285.764 18.3203 285.958 18.3096C286.153 18.2988 286.343 18.2471 286.516 18.158C286.689 18.0688 286.841 17.9441 286.963 17.7921L287.997 16.5L288.997 19C289.45 20.5115 289.486 22.1177 289.1 23.6479C288.714 25.1781 287.922 26.5753 286.806 27.6912L286.68 27.8173C284.962 29.535 282.632 30.5 280.203 30.5H279.183C277.601 30.5 276.046 30.0904 274.67 29.3111C273.294 28.5318 272.142 27.4094 271.329 26.0531C270.354 24.4291 269.907 22.5429 270.049 20.6542C270.191 18.7656 270.915 16.9674 272.121 15.5072L276.169 10.6073C276.568 10.1244 276.824 9.53994 276.909 8.91945C276.994 8.29897 276.905 7.66707 276.65 7.09475C276.328 6.36877 276.272 5.55208 276.493 4.78904C276.714 4.026 277.198 3.36575 277.859 2.925L279.997 1.5V3.34944C279.997 4.74812 280.434 6.11185 281.247 7.25Z" fill="url(#paint0_linear_1_212)"/>
<path d="M283.689 27.0882L283.693 27.0838C284.471 26.3001 285.026 25.3234 285.301 24.2541C285.576 23.1848 285.561 22.0616 285.258 21L283.803 22.4546C283.666 22.5919 283.503 22.7008 283.323 22.7751C283.144 22.8494 282.952 22.8877 282.758 22.8877C282.564 22.8877 282.371 22.8494 282.192 22.7751C282.013 22.7008 281.85 22.5919 281.712 22.4546C281.451 22.1938 281.297 21.8448 281.281 21.4763C281.264 21.1078 281.386 20.7463 281.622 20.4629C282.108 19.8794 282.414 19.1667 282.501 18.4122C282.589 17.6577 282.455 16.8941 282.115 16.2147L279.758 11.5L279.395 15.4875C279.352 15.9657 279.212 16.4303 278.985 16.8532C278.757 17.2762 278.447 17.6488 278.072 17.9489L276.011 19.5976C275.464 20.0352 275.022 20.5902 274.719 21.2216C274.415 21.853 274.258 22.5445 274.258 23.2451V23.8125C274.258 24.4973 274.408 25.1736 274.699 25.7938C274.989 26.4139 275.413 26.9626 275.939 27.4009C276.79 28.1106 277.867 28.4943 278.975 28.4834L280.42 28.4691C281.649 28.4568 282.823 27.9606 283.689 27.0882Z" fill="#FDD04A"/>
<path d="M271.5 12C271.367 12 271.24 11.9473 271.146 11.8536C271.053 11.7598 271 11.6326 271 11.5V10.5C271 10.3674 271.053 10.2402 271.146 10.1464C271.24 10.0527 271.367 10 271.5 10C271.633 10 271.76 10.0527 271.854 10.1464C271.947 10.2402 272 10.3674 272 10.5V11.5C272 11.6326 271.947 11.7598 271.854 11.8536C271.76 11.9473 271.633 12 271.5 12Z" fill="#FE691E"/>
<path d="M273 9.5C272.867 9.5 272.74 9.44732 272.646 9.35355C272.553 9.25979 272.5 9.13261 272.5 9V8C272.5 7.86739 272.553 7.74021 272.646 7.64645C272.74 7.55268 272.867 7.5 273 7.5C273.133 7.5 273.26 7.55268 273.354 7.64645C273.447 7.74021 273.5 7.86739 273.5 8V9C273.5 9.13261 273.447 9.25979 273.354 9.35355C273.26 9.44732 273.133 9.5 273 9.5Z" fill="#FF8D54"/>
<path d="M271 7.5C270.867 7.5 270.74 7.44732 270.646 7.35355C270.553 7.25979 270.5 7.13261 270.5 7V6C270.5 5.86739 270.553 5.74021 270.646 5.64645C270.74 5.55268 270.867 5.5 271 5.5C271.133 5.5 271.26 5.55268 271.354 5.64645C271.447 5.74021 271.5 5.86739 271.5 6V7C271.5 7.13261 271.447 7.25979 271.354 7.35355C271.26 7.44732 271.133 7.5 271 7.5Z" fill="#FFB895"/>
<path d="M288.5 13.5C288.367 13.5 288.24 13.4473 288.146 13.3536C288.053 13.2598 288 13.1326 288 13V12C288 11.8674 288.053 11.7402 288.146 11.6464C288.24 11.5527 288.367 11.5 288.5 11.5C288.633 11.5 288.76 11.5527 288.854 11.6464C288.947 11.7402 289 11.8674 289 12V13C289 13.1326 288.947 13.2598 288.854 13.3536C288.76 13.4473 288.633 13.5 288.5 13.5Z" fill="#FE691E"/>
<path d="M287 10C286.867 10 286.74 9.94732 286.646 9.85355C286.553 9.75979 286.5 9.63261 286.5 9.5V8.5C286.5 8.36739 286.553 8.24021 286.646 8.14645C286.74 8.05268 286.867 8 287 8C287.133 8 287.26 8.05268 287.354 8.14645C287.447 8.24021 287.5 8.36739 287.5 8.5V9.5C287.5 9.63261 287.447 9.75979 287.354 9.85355C287.26 9.94732 287.133 10 287 10Z" fill="#FF8D54"/>
<path d="M289 8.5C288.867 8.5 288.74 8.44732 288.646 8.35355C288.553 8.25979 288.5 8.13261 288.5 8V6.5C288.5 6.36739 288.553 6.24021 288.646 6.14645C288.74 6.05268 288.867 6 289 6C289.133 6 289.26 6.05268 289.354 6.14645C289.447 6.24021 289.5 6.36739 289.5 6.5V8C289.5 8.13261 289.447 8.25979 289.354 8.35355C289.26 8.44732 289.133 8.5 289 8.5Z" fill="#FFB895"/>
<path d="M306.928 20V8.48H317.44V9.776H308.224V13.584H315.632V14.896H308.224V20H306.928ZM320.347 20C319.995 20 319.669 19.9147 319.371 19.744C319.083 19.5733 318.853 19.344 318.683 19.056C318.512 18.7573 318.427 18.432 318.427 18.08V8.48H319.723V18.08C319.723 18.2507 319.781 18.4 319.899 18.528C320.027 18.6453 320.176 18.704 320.347 18.704H328.027C328.197 18.704 328.341 18.6453 328.459 18.528C328.587 18.4 328.651 18.2507 328.651 18.08V8.48H329.947V18.08C329.947 18.432 329.861 18.7573 329.691 19.056C329.52 19.344 329.285 19.5733 328.987 19.744C328.699 19.9147 328.379 20 328.027 20H320.347ZM336.253 20V9.776H331.133V8.48H342.653V9.776H337.549V20H336.253ZM345.737 20C345.385 20 345.06 19.9147 344.761 19.744C344.473 19.5733 344.244 19.344 344.073 19.056C343.902 18.7573 343.817 18.432 343.817 18.08V8.48H345.113V18.08C345.113 18.2507 345.172 18.4 345.289 18.528C345.417 18.6453 345.566 18.704 345.737 18.704H353.417C353.588 18.704 353.732 18.6453 353.849 18.528C353.977 18.4 354.041 18.2507 354.041 18.08V8.48H355.337V18.08C355.337 18.432 355.252 18.7573 355.081 19.056C354.91 19.344 354.676 19.5733 354.377 19.744C354.089 19.9147 353.769 20 353.417 20H345.737ZM366.827 20L363.067 15.52H364.763L368.539 19.984V20H366.827ZM357.099 20V8.496H366.699C367.051 8.496 367.371 8.58667 367.659 8.768C367.958 8.93867 368.192 9.168 368.363 9.456C368.534 9.744 368.619 10.064 368.619 10.416V13.792C368.619 14.144 368.534 14.464 368.363 14.752C368.192 15.04 367.958 15.2747 367.659 15.456C367.371 15.6267 367.051 15.712 366.699 15.712H358.395V20H357.099ZM359.019 14.4H366.699C366.87 14.4 367.014 14.3413 367.131 14.224C367.259 14.1067 367.323 13.9627 367.323 13.792V10.416C367.323 10.2453 367.259 10.1013 367.131 9.984C367.014 9.856 366.87 9.792 366.699 9.792H359.019C358.848 9.792 358.699 9.856 358.571 9.984C358.454 10.1013 358.395 10.2453 358.395 10.416V13.792C358.395 13.9627 358.454 14.1067 358.571 14.224C358.699 14.3413 358.848 14.4 359.019 14.4ZM370.334 20V8.48H380.846V9.776H371.63V13.584H379.038V14.896H371.63V18.704H380.846V20H370.334ZM388.8 20C388.448 20 388.122 19.9147 387.824 19.744C387.536 19.5733 387.306 19.344 387.136 19.056C386.965 18.7573 386.88 18.432 386.88 18.08V10.4C386.88 10.048 386.965 9.728 387.136 9.44C387.306 9.14133 387.536 8.90667 387.824 8.736C388.122 8.56533 388.448 8.48 388.8 8.48H396.48C396.832 8.48 397.152 8.56533 397.44 8.736C397.738 8.90667 397.973 9.14133 398.144 9.44C398.314 9.728 398.4 10.048 398.4 10.4V18.08C398.4 18.432 398.314 18.7573 398.144 19.056C397.973 19.344 397.738 19.5733 397.44 19.744C397.152 19.9147 396.832 20 396.48 20H388.8ZM388.8 18.704H396.48C396.65 18.704 396.794 18.6453 396.912 18.528C397.04 18.4 397.104 18.2507 397.104 18.08V10.4C397.104 10.2293 397.04 10.0853 396.912 9.968C396.794 9.84 396.65 9.776 396.48 9.776H388.8C388.629 9.776 388.48 9.84 388.352 9.968C388.234 10.0853 388.176 10.2293 388.176 10.4V18.08C388.176 18.2507 388.234 18.4 388.352 18.528C388.48 18.6453 388.629 18.704 388.8 18.704ZM400.194 20V8.48H410.706V9.776H401.49V13.584H408.898V14.896H401.49V20H400.194ZM416.116 20V8.48H426.628V9.776H417.412V13.584H424.82V14.896H417.412V18.704H426.628V20H416.116ZM430.174 20C429.822 20 429.496 19.9147 429.198 19.744C428.91 19.5733 428.68 19.344 428.51 19.056C428.339 18.7573 428.254 18.432 428.254 18.08V17.632H429.549V18.08C429.549 18.2507 429.608 18.4 429.726 18.528C429.854 18.6453 430.003 18.704 430.174 18.704H437.854C438.024 18.704 438.168 18.6453 438.286 18.528C438.414 18.4 438.478 18.2507 438.478 18.08V15.504C438.478 15.3333 438.414 15.1893 438.286 15.072C438.168 14.9547 438.024 14.896 437.854 14.896H430.174C429.822 14.896 429.496 14.8107 429.198 14.64C428.91 14.4587 428.68 14.224 428.51 13.936C428.339 13.648 428.254 13.328 428.254 12.976V10.4C428.254 10.048 428.339 9.728 428.51 9.44C428.68 9.14133 428.91 8.90667 429.198 8.736C429.496 8.56533 429.822 8.48 430.174 8.48H437.854C438.206 8.48 438.526 8.56533 438.814 8.736C439.112 8.90667 439.347 9.14133 439.518 9.44C439.688 9.728 439.774 10.048 439.774 10.4V10.848H438.478V10.4C438.478 10.2293 438.414 10.0853 438.286 9.968C438.168 9.84 438.024 9.776 437.854 9.776H430.174C430.003 9.776 429.854 9.84 429.726 9.968C429.608 10.0853 429.549 10.2293 429.549 10.4V12.976C429.549 13.1467 429.608 13.2907 429.726 13.408C429.854 13.5253 430.003 13.584 430.174 13.584H437.854C438.206 13.584 438.526 13.6747 438.814 13.856C439.112 14.0267 439.347 14.256 439.518 14.544C439.688 14.832 439.774 15.152 439.774 15.504V18.08C439.774 18.432 439.688 18.7573 439.518 19.056C439.347 19.344 439.112 19.5733 438.814 19.744C438.526 19.9147 438.206 20 437.854 20H430.174ZM441.49 20V8.496H451.09C451.442 8.496 451.762 8.58667 452.05 8.768C452.348 8.93867 452.583 9.168 452.754 9.456C452.924 9.744 453.01 10.064 453.01 10.416V13.792C453.01 14.144 452.924 14.464 452.754 14.752C452.583 15.04 452.348 15.2747 452.05 15.456C451.762 15.6267 451.442 15.712 451.09 15.712H442.786V20H441.49ZM443.41 14.4H451.09C451.26 14.4 451.404 14.3413 451.522 14.224C451.65 14.1067 451.714 13.9627 451.714 13.792V10.416C451.714 10.2453 451.65 10.1013 451.522 9.984C451.404 9.856 451.26 9.792 451.09 9.792H443.41C443.239 9.792 443.09 9.856 442.962 9.984C442.844 10.1013 442.786 10.2453 442.786 10.416V13.792C442.786 13.9627 442.844 14.1067 442.962 14.224C443.09 14.3413 443.239 14.4 443.41 14.4ZM456.034 20C455.682 20 455.357 19.9147 455.058 19.744C454.77 19.5733 454.541 19.344 454.37 19.056C454.199 18.7573 454.114 18.432 454.114 18.08V10.4C454.114 10.048 454.199 9.728 454.37 9.44C454.541 9.14133 454.77 8.90667 455.058 8.736C455.357 8.56533 455.682 8.48 456.034 8.48H463.714C464.066 8.48 464.386 8.56533 464.674 8.736C464.973 8.90667 465.207 9.14133 465.378 9.44C465.549 9.728 465.634 10.048 465.634 10.4V18.08C465.634 18.432 465.549 18.7573 465.378 19.056C465.207 19.344 464.973 19.5733 464.674 19.744C464.386 19.9147 464.066 20 463.714 20H456.034ZM456.034 18.704H463.714C463.885 18.704 464.029 18.6453 464.146 18.528C464.274 18.4 464.338 18.2507 464.338 18.08V10.4C464.338 10.2293 464.274 10.0853 464.146 9.968C464.029 9.84 463.885 9.776 463.714 9.776H456.034C455.863 9.776 455.714 9.84 455.586 9.968C455.469 10.0853 455.41 10.2293 455.41 10.4V18.08C455.41 18.2507 455.469 18.4 455.586 18.528C455.714 18.6453 455.863 18.704 456.034 18.704ZM477.124 20L473.364 15.52H475.06L478.836 19.984V20H477.124ZM467.396 20V8.496H476.996C477.348 8.496 477.668 8.58667 477.956 8.768C478.255 8.93867 478.489 9.168 478.66 9.456C478.831 9.744 478.916 10.064 478.916 10.416V13.792C478.916 14.144 478.831 14.464 478.66 14.752C478.489 15.04 478.255 15.2747 477.956 15.456C477.668 15.6267 477.348 15.712 476.996 15.712H468.692V20H467.396ZM469.316 14.4H476.996C477.167 14.4 477.311 14.3413 477.428 14.224C477.556 14.1067 477.62 13.9627 477.62 13.792V10.416C477.62 10.2453 477.556 10.1013 477.428 9.984C477.311 9.856 477.167 9.792 476.996 9.792H469.316C469.145 9.792 468.996 9.856 468.868 9.984C468.751 10.1013 468.692 10.2453 468.692 10.416V13.792C468.692 13.9627 468.751 14.1067 468.868 14.224C468.996 14.3413 469.145 14.4 469.316 14.4ZM485.143 20V9.776H480.023V8.48H491.543V9.776H486.439V20H485.143ZM494.58 20C494.228 20 493.902 19.9147 493.604 19.744C493.316 19.5733 493.086 19.344 492.916 19.056C492.745 18.7573 492.66 18.432 492.66 18.08V17.632H493.956V18.08C493.956 18.2507 494.014 18.4 494.132 18.528C494.26 18.6453 494.409 18.704 494.58 18.704H502.26C502.43 18.704 502.574 18.6453 502.692 18.528C502.82 18.4 502.884 18.2507 502.884 18.08V15.504C502.884 15.3333 502.82 15.1893 502.692 15.072C502.574 14.9547 502.43 14.896 502.26 14.896H494.58C494.228 14.896 493.902 14.8107 493.604 14.64C493.316 14.4587 493.086 14.224 492.916 13.936C492.745 13.648 492.66 13.328 492.66 12.976V10.4C492.66 10.048 492.745 9.728 492.916 9.44C493.086 9.14133 493.316 8.90667 493.604 8.736C493.902 8.56533 494.228 8.48 494.58 8.48H502.26C502.612 8.48 502.932 8.56533 503.22 8.736C503.518 8.90667 503.753 9.14133 503.924 9.44C504.094 9.728 504.18 10.048 504.18 10.4V10.848H502.884V10.4C502.884 10.2293 502.82 10.0853 502.692 9.968C502.574 9.84 502.43 9.776 502.26 9.776H494.58C494.409 9.776 494.26 9.84 494.132 9.968C494.014 10.0853 493.956 10.2293 493.956 10.4V12.976C493.956 13.1467 494.014 13.2907 494.132 13.408C494.26 13.5253 494.409 13.584 494.58 13.584H502.26C502.612 13.584 502.932 13.6747 503.22 13.856C503.518 14.0267 503.753 14.256 503.924 14.544C504.094 14.832 504.18 15.152 504.18 15.504V18.08C504.18 18.432 504.094 18.7573 503.924 19.056C503.753 19.344 503.518 19.5733 503.22 19.744C502.932 19.9147 502.612 20 502.26 20H494.58Z" fill="#57B8FF"/>
<defs>
<linearGradient id="paint0_linear_1_212" x1="279.694" y1="1.5" x2="279.694" y2="30.5" gradientUnits="userSpaceOnUse">
<stop stop-color="#FF9159"/>
<stop offset="0.6875" stop-color="#FF7631"/>
<stop offset="1" stop-color="#FF6A1F"/>
</linearGradient>
</defs>
</svg>
