<svg width="643" height="213" viewBox="0 0 643 213" fill="none" xmlns="http://www.w3.org/2000/svg">
<path d="M0 20.5781C0 9.53243 8.95431 0.578125 20 0.578125H622.458C633.504 0.578125 642.458 9.53243 642.458 20.5781V192.578C642.458 203.624 633.504 212.578 622.458 212.578H20C8.95428 212.578 0 203.624 0 192.578V20.5781Z" fill="white" fill-opacity="0.15"/>
<g clip-path="url(#clip0_1_226)">
<path d="M69.3819 49.7203L53.8773 35.5781L38.3726 49.7203L53.8773 63.8624L69.3819 49.7203Z" fill="#57B8FF"/>
<path d="M66.281 49.72L53.8773 38.4062L41.4735 49.72L53.8773 61.0337L66.281 49.72Z" fill="white"/>
<path d="M61.6296 49.7205L53.8773 42.6494L46.1249 49.7205L53.8773 56.7915L61.6296 49.7205Z" fill="#57B8FF"/>
</g>
<path d="M95.8436 117.578L88.3376 104.618H90.0476L96.6896 116.156L103.314 104.618H105.024L97.5356 117.578H95.8436ZM106.696 117.578V107.138H108.172V117.578H106.696ZM106.696 105.194V103.718H108.172V105.194H106.696ZM115.555 117.578L109.795 107.138H111.523L116.419 116.138L121.315 107.138H123.043L117.265 117.578H115.555ZM126.751 117.578C126.355 117.578 125.989 117.482 125.653 117.29C125.329 117.086 125.065 116.822 124.861 116.498C124.669 116.162 124.573 115.796 124.573 115.4V111.62H133.717V109.316C133.717 109.124 133.645 108.962 133.501 108.83C133.369 108.686 133.207 108.614 133.015 108.614H124.573V107.138H133.015C133.423 107.138 133.789 107.24 134.113 107.444C134.449 107.636 134.713 107.9 134.905 108.236C135.109 108.56 135.211 108.92 135.211 109.316V117.578H126.751ZM126.751 116.102H133.717V113.096H126.049V115.4C126.049 115.592 126.115 115.76 126.247 115.904C126.391 116.036 126.559 116.102 126.751 116.102ZM136.756 117.578V107.138H150.544C150.952 107.138 151.318 107.24 151.642 107.444C151.978 107.636 152.242 107.9 152.434 108.236C152.626 108.56 152.722 108.92 152.722 109.316V117.578H151.264V109.316C151.264 109.124 151.192 108.962 151.048 108.83C150.904 108.686 150.736 108.614 150.544 108.614H146.206C146.014 108.614 145.846 108.686 145.702 108.83C145.57 108.962 145.504 109.124 145.504 109.316V117.578H144.01V109.316C144.01 109.124 143.938 108.962 143.794 108.83C143.662 108.686 143.5 108.614 143.308 108.614H138.952C138.76 108.614 138.592 108.686 138.448 108.83C138.316 108.962 138.25 109.124 138.25 109.316V117.578H136.756ZM156.512 117.578C156.116 117.578 155.75 117.482 155.414 117.29C155.09 117.086 154.826 116.822 154.622 116.498C154.43 116.162 154.334 115.796 154.334 115.4V107.138H155.81V115.4C155.81 115.592 155.876 115.76 156.008 115.904C156.152 116.036 156.32 116.102 156.512 116.102H162.776C162.968 116.102 163.136 116.036 163.28 115.904C163.424 115.76 163.496 115.592 163.496 115.4V107.138H164.972V115.4C164.972 115.796 164.87 116.162 164.666 116.498C164.474 116.822 164.21 117.086 163.874 117.29C163.55 117.482 163.184 117.578 162.776 117.578H156.512ZM168.673 117.578C168.277 117.578 167.911 117.482 167.575 117.29C167.251 117.086 166.987 116.822 166.783 116.498C166.591 116.162 166.495 115.796 166.495 115.4V115.256H167.971V115.4C167.971 115.592 168.037 115.76 168.169 115.904C168.313 116.036 168.481 116.102 168.673 116.102H174.937C175.129 116.102 175.291 116.036 175.423 115.904C175.567 115.76 175.639 115.592 175.639 115.4V113.798C175.639 113.606 175.567 113.444 175.423 113.312C175.291 113.168 175.129 113.096 174.937 113.096H168.673C168.277 113.096 167.911 113 167.575 112.808C167.251 112.604 166.987 112.34 166.783 112.016C166.591 111.68 166.495 111.314 166.495 110.918V109.316C166.495 108.92 166.591 108.56 166.783 108.236C166.987 107.9 167.251 107.636 167.575 107.444C167.911 107.24 168.277 107.138 168.673 107.138H174.937C175.345 107.138 175.711 107.24 176.035 107.444C176.371 107.636 176.635 107.9 176.827 108.236C177.031 108.56 177.133 108.92 177.133 109.316V109.46H175.639V109.316C175.639 109.124 175.567 108.962 175.423 108.83C175.291 108.686 175.129 108.614 174.937 108.614H168.673C168.481 108.614 168.313 108.686 168.169 108.83C168.037 108.962 167.971 109.124 167.971 109.316V110.918C167.971 111.11 168.037 111.278 168.169 111.422C168.313 111.554 168.481 111.62 168.673 111.62H174.937C175.345 111.62 175.711 111.722 176.035 111.926C176.371 112.118 176.635 112.382 176.827 112.718C177.031 113.042 177.133 113.402 177.133 113.798V115.4C177.133 115.796 177.031 116.162 176.827 116.498C176.635 116.822 176.371 117.086 176.035 117.29C175.711 117.482 175.345 117.578 174.937 117.578H168.673ZM183.848 117.578V107.138H197.636C198.044 107.138 198.41 107.24 198.734 107.444C199.07 107.636 199.334 107.9 199.526 108.236C199.718 108.56 199.814 108.92 199.814 109.316V117.578H198.356V109.316C198.356 109.124 198.284 108.962 198.14 108.83C197.996 108.686 197.828 108.614 197.636 108.614H193.298C193.106 108.614 192.938 108.686 192.794 108.83C192.662 108.962 192.596 109.124 192.596 109.316V117.578H191.102V109.316C191.102 109.124 191.03 108.962 190.886 108.83C190.754 108.686 190.592 108.614 190.4 108.614H186.044C185.852 108.614 185.684 108.686 185.54 108.83C185.408 108.962 185.342 109.124 185.342 109.316V117.578H183.848ZM203.585 117.578C203.189 117.578 202.823 117.482 202.487 117.29C202.163 117.086 201.899 116.822 201.695 116.498C201.503 116.162 201.407 115.796 201.407 115.4V111.62H210.551V109.316C210.551 109.124 210.479 108.962 210.335 108.83C210.203 108.686 210.041 108.614 209.849 108.614H201.407V107.138H209.849C210.257 107.138 210.623 107.24 210.947 107.444C211.283 107.636 211.547 107.9 211.739 108.236C211.943 108.56 212.045 108.92 212.045 109.316V117.578H203.585ZM203.585 116.102H210.551V113.096H202.883V115.4C202.883 115.592 202.949 115.76 203.081 115.904C203.225 116.036 203.393 116.102 203.585 116.102ZM215.633 121.7V120.206H222.149C222.341 120.206 222.503 120.134 222.635 119.99C222.779 119.858 222.851 119.696 222.851 119.504V117.578H215.885C215.489 117.578 215.123 117.482 214.787 117.29C214.463 117.086 214.199 116.822 213.995 116.498C213.803 116.162 213.707 115.796 213.707 115.4V109.316C213.707 108.92 213.803 108.56 213.995 108.236C214.199 107.9 214.463 107.636 214.787 107.444C215.123 107.24 215.489 107.138 215.885 107.138H222.149C222.557 107.138 222.923 107.24 223.247 107.444C223.583 107.636 223.847 107.9 224.039 108.236C224.231 108.56 224.327 108.92 224.327 109.316V119.504C224.327 119.912 224.231 120.278 224.039 120.602C223.847 120.938 223.583 121.202 223.247 121.394C222.923 121.598 222.557 121.7 222.149 121.7H215.633ZM215.885 116.102H222.149C222.341 116.102 222.503 116.036 222.635 115.904C222.779 115.76 222.851 115.592 222.851 115.4V109.316C222.851 109.124 222.779 108.962 222.635 108.83C222.503 108.686 222.341 108.614 222.149 108.614H215.885C215.693 108.614 215.525 108.686 215.381 108.83C215.249 108.962 215.183 109.124 215.183 109.316V115.4C215.183 115.592 215.249 115.76 215.381 115.904C215.525 116.036 215.693 116.102 215.885 116.102ZM226.228 117.578V107.138H234.688C235.084 107.138 235.444 107.24 235.768 107.444C236.104 107.636 236.368 107.9 236.56 108.236C236.764 108.56 236.866 108.92 236.866 109.316V117.578H235.39V109.316C235.39 109.124 235.318 108.962 235.174 108.83C235.042 108.686 234.88 108.614 234.688 108.614H228.424C228.232 108.614 228.064 108.686 227.92 108.83C227.776 108.962 227.704 109.124 227.704 109.316V117.578H226.228ZM240.904 117.578C240.508 117.578 240.142 117.482 239.806 117.29C239.482 117.086 239.218 116.822 239.014 116.498C238.822 116.162 238.726 115.796 238.726 115.4V111.62H247.87V109.316C247.87 109.124 247.798 108.962 247.654 108.83C247.522 108.686 247.36 108.614 247.168 108.614H238.726V107.138H247.168C247.576 107.138 247.942 107.24 248.266 107.444C248.602 107.636 248.866 107.9 249.058 108.236C249.262 108.56 249.364 108.92 249.364 109.316V117.578H240.904ZM240.904 116.102H247.87V113.096H240.202V115.4C240.202 115.592 240.268 115.76 240.4 115.904C240.544 116.036 240.712 116.102 240.904 116.102ZM251.826 121.952V120.458H256.236C256.428 120.458 256.59 120.386 256.722 120.242C256.866 120.11 256.938 119.948 256.938 119.756V107.138H258.432V119.756C258.432 120.164 258.33 120.53 258.126 120.854C257.934 121.19 257.67 121.454 257.334 121.646C257.01 121.85 256.644 121.952 256.236 121.952H251.826ZM256.938 105.194V103.718H258.432V105.194H256.938ZM262.631 117.578C262.235 117.578 261.869 117.482 261.533 117.29C261.209 117.086 260.945 116.822 260.741 116.498C260.549 116.162 260.453 115.796 260.453 115.4V107.138H261.929V115.4C261.929 115.592 261.995 115.76 262.127 115.904C262.271 116.036 262.439 116.102 262.631 116.102H268.895C269.087 116.102 269.255 116.036 269.399 115.904C269.543 115.76 269.615 115.592 269.615 115.4V107.138H271.091V115.4C271.091 115.796 270.989 116.162 270.785 116.498C270.593 116.822 270.329 117.086 269.993 117.29C269.669 117.482 269.303 117.578 268.895 117.578H262.631ZM274.793 117.578C274.397 117.578 274.031 117.482 273.695 117.29C273.371 117.086 273.107 116.822 272.903 116.498C272.711 116.162 272.615 115.796 272.615 115.4V115.256H274.091V115.4C274.091 115.592 274.157 115.76 274.289 115.904C274.433 116.036 274.601 116.102 274.793 116.102H281.057C281.249 116.102 281.411 116.036 281.543 115.904C281.687 115.76 281.759 115.592 281.759 115.4V113.798C281.759 113.606 281.687 113.444 281.543 113.312C281.411 113.168 281.249 113.096 281.057 113.096H274.793C274.397 113.096 274.031 113 273.695 112.808C273.371 112.604 273.107 112.34 272.903 112.016C272.711 111.68 272.615 111.314 272.615 110.918V109.316C272.615 108.92 272.711 108.56 272.903 108.236C273.107 107.9 273.371 107.636 273.695 107.444C274.031 107.24 274.397 107.138 274.793 107.138H281.057C281.465 107.138 281.831 107.24 282.155 107.444C282.491 107.636 282.755 107.9 282.947 108.236C283.151 108.56 283.253 108.92 283.253 109.316V109.46H281.759V109.316C281.759 109.124 281.687 108.962 281.543 108.83C281.411 108.686 281.249 108.614 281.057 108.614H274.793C274.601 108.614 274.433 108.686 274.289 108.83C274.157 108.962 274.091 109.124 274.091 109.316V110.918C274.091 111.11 274.157 111.278 274.289 111.422C274.433 111.554 274.601 111.62 274.793 111.62H281.057C281.465 111.62 281.831 111.722 282.155 111.926C282.491 112.118 282.755 112.382 282.947 112.718C283.151 113.042 283.253 113.402 283.253 113.798V115.4C283.253 115.796 283.151 116.162 282.947 116.498C282.755 116.822 282.491 117.086 282.155 117.29C281.831 117.482 281.465 117.578 281.057 117.578H274.793ZM287.222 117.578C286.814 117.578 286.442 117.482 286.106 117.29C285.782 117.086 285.524 116.822 285.332 116.498C285.14 116.162 285.044 115.796 285.044 115.4V103.718H286.52V107.138H291.038V108.614H286.52V115.4C286.52 115.592 286.586 115.76 286.718 115.904C286.862 116.036 287.03 116.102 287.222 116.102H291.038V117.578H287.222ZM294.569 117.578C294.173 117.578 293.807 117.482 293.471 117.29C293.147 117.086 292.883 116.822 292.679 116.498C292.487 116.162 292.391 115.796 292.391 115.4V109.316C292.391 108.92 292.487 108.56 292.679 108.236C292.883 107.9 293.147 107.636 293.471 107.444C293.807 107.24 294.173 107.138 294.569 107.138H300.833C301.241 107.138 301.607 107.24 301.931 107.444C302.267 107.636 302.531 107.9 302.723 108.236C302.927 108.56 303.029 108.92 303.029 109.316V115.4C303.029 115.796 302.927 116.162 302.723 116.498C302.531 116.822 302.267 117.086 301.931 117.29C301.607 117.482 301.241 117.578 300.833 117.578H294.569ZM294.569 116.102H300.833C301.025 116.102 301.187 116.036 301.319 115.904C301.463 115.76 301.535 115.592 301.535 115.4V109.316C301.535 109.124 301.463 108.962 301.319 108.83C301.187 108.686 301.025 108.614 300.833 108.614H294.569C294.377 108.614 294.209 108.686 294.065 108.83C293.933 108.962 293.867 109.124 293.867 109.316V115.4C293.867 115.592 293.933 115.76 294.065 115.904C294.209 116.036 294.377 116.102 294.569 116.102ZM304.908 119.936V116.102H306.384V117.866C306.384 118.19 306.318 118.49 306.186 118.766C306.066 119.042 305.892 119.282 305.664 119.486C305.448 119.69 305.196 119.84 304.908 119.936ZM315.435 117.578C315.039 117.578 314.673 117.482 314.337 117.29C314.013 117.086 313.749 116.822 313.545 116.498C313.353 116.162 313.257 115.796 313.257 115.4V103.718H314.733V115.4C314.733 115.592 314.799 115.76 314.931 115.904C315.075 116.036 315.243 116.102 315.435 116.102H317.199V117.578H315.435ZM320.691 117.578C320.295 117.578 319.929 117.482 319.593 117.29C319.269 117.086 319.005 116.822 318.801 116.498C318.609 116.162 318.513 115.796 318.513 115.4V111.62H327.657V109.316C327.657 109.124 327.585 108.962 327.441 108.83C327.309 108.686 327.147 108.614 326.955 108.614H318.513V107.138H326.955C327.363 107.138 327.729 107.24 328.053 107.444C328.389 107.636 328.653 107.9 328.845 108.236C329.049 108.56 329.151 108.92 329.151 109.316V117.578H320.691ZM320.691 116.102H327.657V113.096H319.989V115.4C319.989 115.592 320.055 115.76 320.187 115.904C320.331 116.036 320.499 116.102 320.691 116.102ZM332.995 117.578C332.599 117.578 332.233 117.482 331.897 117.29C331.573 117.086 331.309 116.822 331.105 116.498C330.913 116.162 330.817 115.796 330.817 115.4V109.316C330.817 108.92 330.913 108.56 331.105 108.236C331.309 107.9 331.573 107.636 331.897 107.444C332.233 107.24 332.599 107.138 332.995 107.138H341.419V108.614H332.995C332.803 108.614 332.635 108.686 332.491 108.83C332.359 108.962 332.293 109.124 332.293 109.316V115.4C332.293 115.592 332.359 115.76 332.491 115.904C332.635 116.036 332.803 116.102 332.995 116.102H341.455V117.578H332.995ZM343.351 117.578V107.138H344.827V117.578H343.351ZM343.351 105.194V103.718H344.827V105.194H343.351ZM346.867 117.578V107.138H355.327C355.723 107.138 356.083 107.24 356.407 107.444C356.743 107.636 357.007 107.9 357.199 108.236C357.403 108.56 357.505 108.92 357.505 109.316V117.578H356.029V109.316C356.029 109.124 355.957 108.962 355.813 108.83C355.681 108.686 355.519 108.614 355.327 108.614H349.063C348.871 108.614 348.703 108.686 348.559 108.83C348.415 108.962 348.343 109.124 348.343 109.316V117.578H346.867ZM359.364 117.578V107.138H360.84V117.578H359.364ZM359.364 105.194V103.718H360.84V105.194H359.364ZM364.654 117.578C364.258 117.578 363.892 117.482 363.556 117.29C363.232 117.086 362.968 116.822 362.764 116.498C362.572 116.162 362.476 115.796 362.476 115.4V111.62H371.62V109.316C371.62 109.124 371.548 108.962 371.404 108.83C371.272 108.686 371.11 108.614 370.918 108.614H362.476V107.138H370.918C371.326 107.138 371.692 107.24 372.016 107.444C372.352 107.636 372.616 107.9 372.808 108.236C373.012 108.56 373.114 108.92 373.114 109.316V117.578H364.654ZM364.654 116.102H371.62V113.096H363.952V115.4C363.952 115.592 364.018 115.76 364.15 115.904C364.294 116.036 364.462 116.102 364.654 116.102ZM382.038 117.578C381.642 117.578 381.276 117.482 380.94 117.29C380.616 117.086 380.352 116.822 380.148 116.498C379.956 116.162 379.86 115.796 379.86 115.4V109.316C379.86 108.92 379.956 108.56 380.148 108.236C380.352 107.9 380.616 107.636 380.94 107.444C381.276 107.24 381.642 107.138 382.038 107.138H388.302C388.71 107.138 389.076 107.24 389.4 107.444C389.736 107.636 390 107.9 390.192 108.236C390.396 108.56 390.498 108.92 390.498 109.316V113.096H381.336V115.4C381.336 115.592 381.402 115.76 381.534 115.904C381.678 116.036 381.846 116.102 382.038 116.102H390.498V117.578H382.038ZM381.336 111.62H389.004V109.316C389.004 109.124 388.932 108.962 388.788 108.83C388.656 108.686 388.494 108.614 388.302 108.614H382.038C381.846 108.614 381.678 108.686 381.534 108.83C381.402 108.962 381.336 109.124 381.336 109.316V111.62ZM394.069 121.7V120.206H400.585C400.777 120.206 400.939 120.134 401.071 119.99C401.215 119.858 401.287 119.696 401.287 119.504V117.578H394.321C393.925 117.578 393.559 117.482 393.223 117.29C392.899 117.086 392.635 116.822 392.431 116.498C392.239 116.162 392.143 115.796 392.143 115.4V109.316C392.143 108.92 392.239 108.56 392.431 108.236C392.635 107.9 392.899 107.636 393.223 107.444C393.559 107.24 393.925 107.138 394.321 107.138H400.585C400.993 107.138 401.359 107.24 401.683 107.444C402.019 107.636 402.283 107.9 402.475 108.236C402.667 108.56 402.763 108.92 402.763 109.316V119.504C402.763 119.912 402.667 120.278 402.475 120.602C402.283 120.938 402.019 121.202 401.683 121.394C401.359 121.598 400.993 121.7 400.585 121.7H394.069ZM394.321 116.102H400.585C400.777 116.102 400.939 116.036 401.071 115.904C401.215 115.76 401.287 115.592 401.287 115.4V109.316C401.287 109.124 401.215 108.962 401.071 108.83C400.939 108.686 400.777 108.614 400.585 108.614H394.321C394.129 108.614 393.961 108.686 393.817 108.83C393.685 108.962 393.619 109.124 393.619 109.316V115.4C393.619 115.592 393.685 115.76 393.817 115.904C393.961 116.036 394.129 116.102 394.321 116.102ZM406.524 117.578C406.128 117.578 405.762 117.482 405.426 117.29C405.102 117.086 404.838 116.822 404.634 116.498C404.442 116.162 404.346 115.796 404.346 115.4V109.316C404.346 108.92 404.442 108.56 404.634 108.236C404.838 107.9 405.102 107.636 405.426 107.444C405.762 107.24 406.128 107.138 406.524 107.138H412.788C413.196 107.138 413.562 107.24 413.886 107.444C414.222 107.636 414.486 107.9 414.678 108.236C414.882 108.56 414.984 108.92 414.984 109.316V113.096H405.822V115.4C405.822 115.592 405.888 115.76 406.02 115.904C406.164 116.036 406.332 116.102 406.524 116.102H414.984V117.578H406.524ZM405.822 111.62H413.49V109.316C413.49 109.124 413.418 108.962 413.274 108.83C413.142 108.686 412.98 108.614 412.788 108.614H406.524C406.332 108.614 406.164 108.686 406.02 108.83C405.888 108.962 405.822 109.124 405.822 109.316V111.62ZM419.023 117.578C418.615 117.578 418.243 117.482 417.907 117.29C417.583 117.086 417.325 116.822 417.133 116.498C416.941 116.162 416.845 115.796 416.845 115.4V103.718H418.321V107.138H422.839V108.614H418.321V115.4C418.321 115.592 418.387 115.76 418.519 115.904C418.663 116.036 418.831 116.102 419.023 116.102H422.839V117.578H419.023ZM431.274 117.578C430.878 117.578 430.512 117.482 430.176 117.29C429.852 117.086 429.588 116.822 429.384 116.498C429.192 116.162 429.096 115.796 429.096 115.4V109.316C429.096 108.92 429.192 108.56 429.384 108.236C429.588 107.9 429.852 107.636 430.176 107.444C430.512 107.24 430.878 107.138 431.274 107.138H439.698V108.614H431.274C431.082 108.614 430.914 108.686 430.77 108.83C430.638 108.962 430.572 109.124 430.572 109.316V115.4C430.572 115.592 430.638 115.76 430.77 115.904C430.914 116.036 431.082 116.102 431.274 116.102H439.734V117.578H431.274ZM443.79 117.578C443.394 117.578 443.028 117.482 442.692 117.29C442.368 117.086 442.104 116.822 441.9 116.498C441.708 116.162 441.612 115.796 441.612 115.4V109.316C441.612 108.92 441.708 108.56 441.9 108.236C442.104 107.9 442.368 107.636 442.692 107.444C443.028 107.24 443.394 107.138 443.79 107.138H450.054C450.462 107.138 450.828 107.24 451.152 107.444C451.488 107.636 451.752 107.9 451.944 108.236C452.148 108.56 452.25 108.92 452.25 109.316V115.4C452.25 115.796 452.148 116.162 451.944 116.498C451.752 116.822 451.488 117.086 451.152 117.29C450.828 117.482 450.462 117.578 450.054 117.578H443.79ZM443.79 116.102H450.054C450.246 116.102 450.408 116.036 450.54 115.904C450.684 115.76 450.756 115.592 450.756 115.4V109.316C450.756 109.124 450.684 108.962 450.54 108.83C450.408 108.686 450.246 108.614 450.054 108.614H443.79C443.598 108.614 443.43 108.686 443.286 108.83C443.154 108.962 443.088 109.124 443.088 109.316V115.4C443.088 115.592 443.154 115.76 443.286 115.904C443.43 116.036 443.598 116.102 443.79 116.102ZM456.253 117.578C455.857 117.578 455.491 117.482 455.155 117.29C454.831 117.086 454.567 116.822 454.363 116.498C454.171 116.162 454.075 115.796 454.075 115.4V109.316C454.075 108.92 454.171 108.56 454.363 108.236C454.567 107.9 454.831 107.636 455.155 107.444C455.491 107.24 455.857 107.138 456.253 107.138H462.517C462.925 107.138 463.291 107.24 463.615 107.444C463.951 107.636 464.215 107.9 464.407 108.236C464.611 108.56 464.713 108.92 464.713 109.316V113.096H455.551V115.4C455.551 115.592 455.617 115.76 455.749 115.904C455.893 116.036 456.061 116.102 456.253 116.102H464.713V117.578H456.253ZM455.551 111.62H463.219V109.316C463.219 109.124 463.147 108.962 463.003 108.83C462.871 108.686 462.709 108.614 462.517 108.614H456.253C456.061 108.614 455.893 108.686 455.749 108.83C455.617 108.962 455.551 109.124 455.551 109.316V111.62ZM468.364 117.578C467.968 117.578 467.602 117.482 467.266 117.29C466.942 117.086 466.678 116.822 466.474 116.498C466.282 116.162 466.186 115.796 466.186 115.4V109.316C466.186 108.92 466.282 108.56 466.474 108.236C466.678 107.9 466.942 107.636 467.266 107.444C467.602 107.24 467.968 107.138 468.364 107.138H476.788V108.614H468.364C468.172 108.614 468.004 108.686 467.86 108.83C467.728 108.962 467.662 109.124 467.662 109.316V115.4C467.662 115.592 467.728 115.76 467.86 115.904C468.004 116.036 468.172 116.102 468.364 116.102H476.824V117.578H468.364ZM480.423 117.578C480.027 117.578 479.661 117.482 479.325 117.29C479.001 117.086 478.737 116.822 478.533 116.498C478.341 116.162 478.245 115.796 478.245 115.4V109.316C478.245 108.92 478.341 108.56 478.533 108.236C478.737 107.9 479.001 107.636 479.325 107.444C479.661 107.24 480.027 107.138 480.423 107.138H486.687C487.095 107.138 487.461 107.24 487.785 107.444C488.121 107.636 488.385 107.9 488.577 108.236C488.781 108.56 488.883 108.92 488.883 109.316V113.096H479.721V115.4C479.721 115.592 479.787 115.76 479.919 115.904C480.063 116.036 480.231 116.102 480.423 116.102H488.883V117.578H480.423ZM479.721 111.62H487.389V109.316C487.389 109.124 487.317 108.962 487.173 108.83C487.041 108.686 486.879 108.614 486.687 108.614H480.423C480.231 108.614 480.063 108.686 479.919 108.83C479.787 108.962 479.721 109.124 479.721 109.316V111.62ZM492.922 117.578C492.514 117.578 492.142 117.482 491.806 117.29C491.482 117.086 491.224 116.822 491.032 116.498C490.84 116.162 490.744 115.796 490.744 115.4V103.718H492.22V107.138H496.738V108.614H492.22V115.4C492.22 115.592 492.286 115.76 492.418 115.904C492.562 116.036 492.73 116.102 492.922 116.102H496.738V117.578H492.922ZM500.304 117.578C499.908 117.578 499.542 117.482 499.206 117.29C498.882 117.086 498.618 116.822 498.414 116.498C498.222 116.162 498.126 115.796 498.126 115.4V107.138H499.602V115.4C499.602 115.592 499.668 115.76 499.8 115.904C499.944 116.036 500.112 116.102 500.304 116.102H506.568C506.76 116.102 506.928 116.036 507.072 115.904C507.216 115.76 507.288 115.592 507.288 115.4V107.138H508.764V115.4C508.764 115.796 508.662 116.162 508.458 116.498C508.266 116.822 508.002 117.086 507.666 117.29C507.342 117.482 506.976 117.578 506.568 117.578H500.304ZM510.624 117.578V109.316C510.624 108.92 510.72 108.56 510.912 108.236C511.116 107.9 511.38 107.636 511.704 107.444C512.04 107.24 512.406 107.138 512.802 107.138H518.67V108.614H512.802C512.61 108.614 512.442 108.686 512.298 108.83C512.166 108.962 512.1 109.124 512.1 109.316V117.578H510.624ZM526.845 117.578C526.449 117.578 526.083 117.482 525.747 117.29C525.423 117.086 525.159 116.822 524.955 116.498C524.763 116.162 524.667 115.796 524.667 115.4V115.256H526.143V115.4C526.143 115.592 526.209 115.76 526.341 115.904C526.485 116.036 526.653 116.102 526.845 116.102H533.109C533.301 116.102 533.463 116.036 533.595 115.904C533.739 115.76 533.811 115.592 533.811 115.4V113.798C533.811 113.606 533.739 113.444 533.595 113.312C533.463 113.168 533.301 113.096 533.109 113.096H526.845C526.449 113.096 526.083 113 525.747 112.808C525.423 112.604 525.159 112.34 524.955 112.016C524.763 111.68 524.667 111.314 524.667 110.918V109.316C524.667 108.92 524.763 108.56 524.955 108.236C525.159 107.9 525.423 107.636 525.747 107.444C526.083 107.24 526.449 107.138 526.845 107.138H533.109C533.517 107.138 533.883 107.24 534.207 107.444C534.543 107.636 534.807 107.9 534.999 108.236C535.203 108.56 535.305 108.92 535.305 109.316V109.46H533.811V109.316C533.811 109.124 533.739 108.962 533.595 108.83C533.463 108.686 533.301 108.614 533.109 108.614H526.845C526.653 108.614 526.485 108.686 526.341 108.83C526.209 108.962 526.143 109.124 526.143 109.316V110.918C526.143 111.11 526.209 111.278 526.341 111.422C526.485 111.554 526.653 111.62 526.845 111.62H533.109C533.517 111.62 533.883 111.722 534.207 111.926C534.543 112.118 534.807 112.382 534.999 112.718C535.203 113.042 535.305 113.402 535.305 113.798V115.4C535.305 115.796 535.203 116.162 534.999 116.498C534.807 116.822 534.543 117.086 534.207 117.29C533.883 117.482 533.517 117.578 533.109 117.578H526.845ZM538.976 117.578C538.58 117.578 538.214 117.482 537.878 117.29C537.554 117.086 537.29 116.822 537.086 116.498C536.894 116.162 536.798 115.796 536.798 115.4V109.316C536.798 108.92 536.894 108.56 537.086 108.236C537.29 107.9 537.554 107.636 537.878 107.444C538.214 107.24 538.58 107.138 538.976 107.138H545.24C545.648 107.138 546.014 107.24 546.338 107.444C546.674 107.636 546.938 107.9 547.13 108.236C547.334 108.56 547.436 108.92 547.436 109.316V113.096H538.274V115.4C538.274 115.592 538.34 115.76 538.472 115.904C538.616 116.036 538.784 116.102 538.976 116.102H547.436V117.578H538.976ZM538.274 111.62H545.942V109.316C545.942 109.124 545.87 108.962 545.726 108.83C545.594 108.686 545.432 108.614 545.24 108.614H538.976C538.784 108.614 538.616 108.686 538.472 108.83C538.34 108.962 538.274 109.124 538.274 109.316V111.62ZM550.952 117.578C550.544 117.578 550.172 117.482 549.836 117.29C549.512 117.086 549.248 116.822 549.044 116.498C548.852 116.162 548.756 115.796 548.756 115.4V109.316C548.756 108.92 548.852 108.56 549.044 108.236C549.248 107.9 549.512 107.636 549.836 107.444C550.172 107.24 550.544 107.138 550.952 107.138H557.918V103.718H559.394V117.578H550.952ZM550.952 116.102H557.216C557.408 116.102 557.57 116.036 557.702 115.904C557.846 115.76 557.918 115.592 557.918 115.4V109.316C557.918 109.124 557.846 108.962 557.702 108.83C557.57 108.686 557.408 108.614 557.216 108.614H550.952C550.76 108.614 550.592 108.686 550.448 108.83C550.316 108.962 550.25 109.124 550.25 109.316V115.4C550.25 115.592 550.316 115.76 550.448 115.904C550.592 116.036 550.76 116.102 550.952 116.102ZM561.32 119.936V116.102H562.796V117.866C562.796 118.19 562.73 118.49 562.598 118.766C562.478 119.042 562.304 119.282 562.076 119.486C561.86 119.69 561.608 119.84 561.32 119.936ZM90.8036 145.578C90.4076 145.578 90.0416 145.482 89.7056 145.29C89.3816 145.086 89.1176 144.822 88.9136 144.498C88.7216 144.162 88.6256 143.796 88.6256 143.4V137.316C88.6256 136.92 88.7216 136.56 88.9136 136.236C89.1176 135.9 89.3816 135.636 89.7056 135.444C90.0416 135.24 90.4076 135.138 90.8036 135.138H99.2276V136.614H90.8036C90.6116 136.614 90.4436 136.686 90.2996 136.83C90.1676 136.962 90.1016 137.124 90.1016 137.316V143.4C90.1016 143.592 90.1676 143.76 90.2996 143.904C90.4436 144.036 90.6116 144.102 90.8036 144.102H99.2636V145.578H90.8036ZM103.319 145.578C102.923 145.578 102.557 145.482 102.221 145.29C101.897 145.086 101.633 144.822 101.429 144.498C101.237 144.162 101.141 143.796 101.141 143.4V137.316C101.141 136.92 101.237 136.56 101.429 136.236C101.633 135.9 101.897 135.636 102.221 135.444C102.557 135.24 102.923 135.138 103.319 135.138H109.583C109.991 135.138 110.357 135.24 110.681 135.444C111.017 135.636 111.281 135.9 111.473 136.236C111.677 136.56 111.779 136.92 111.779 137.316V143.4C111.779 143.796 111.677 144.162 111.473 144.498C111.281 144.822 111.017 145.086 110.681 145.29C110.357 145.482 109.991 145.578 109.583 145.578H103.319ZM103.319 144.102H109.583C109.775 144.102 109.937 144.036 110.069 143.904C110.213 143.76 110.285 143.592 110.285 143.4V137.316C110.285 137.124 110.213 136.962 110.069 136.83C109.937 136.686 109.775 136.614 109.583 136.614H103.319C103.127 136.614 102.959 136.686 102.815 136.83C102.683 136.962 102.617 137.124 102.617 137.316V143.4C102.617 143.592 102.683 143.76 102.815 143.904C102.959 144.036 103.127 144.102 103.319 144.102ZM113.394 145.578V135.138H121.854C122.25 135.138 122.61 135.24 122.934 135.444C123.27 135.636 123.534 135.9 123.726 136.236C123.93 136.56 124.032 136.92 124.032 137.316V145.578H122.556V137.316C122.556 137.124 122.484 136.962 122.34 136.83C122.208 136.686 122.046 136.614 121.854 136.614H115.59C115.398 136.614 115.23 136.686 115.086 136.83C114.942 136.962 114.87 137.124 114.87 137.316V145.578H113.394ZM131.094 145.578L125.334 135.138H127.062L131.958 144.138L136.854 135.138H138.582L132.804 145.578H131.094ZM142.29 145.578C141.894 145.578 141.528 145.482 141.192 145.29C140.868 145.086 140.604 144.822 140.4 144.498C140.208 144.162 140.112 143.796 140.112 143.4V139.62H149.256V137.316C149.256 137.124 149.184 136.962 149.04 136.83C148.908 136.686 148.746 136.614 148.554 136.614H140.112V135.138H148.554C148.962 135.138 149.328 135.24 149.652 135.444C149.988 135.636 150.252 135.9 150.444 136.236C150.648 136.56 150.75 136.92 150.75 137.316V145.578H142.29ZM142.29 144.102H149.256V141.096H141.588V143.4C141.588 143.592 141.654 143.76 141.786 143.904C141.93 144.036 142.098 144.102 142.29 144.102ZM154.613 145.578C154.217 145.578 153.851 145.482 153.515 145.29C153.191 145.086 152.927 144.822 152.723 144.498C152.531 144.162 152.435 143.796 152.435 143.4V131.718H153.911V143.4C153.911 143.592 153.977 143.76 154.109 143.904C154.253 144.036 154.421 144.102 154.613 144.102H156.377V145.578H154.613ZM160.044 145.578C159.648 145.578 159.282 145.482 158.946 145.29C158.622 145.086 158.358 144.822 158.154 144.498C157.962 144.162 157.866 143.796 157.866 143.4V131.718H159.342V143.4C159.342 143.592 159.408 143.76 159.54 143.904C159.684 144.036 159.852 144.102 160.044 144.102H161.808V145.578H160.044ZM163.298 145.578V135.138H164.774V145.578H163.298ZM163.298 133.194V131.718H164.774V133.194H163.298ZM169.148 145.578C168.752 145.578 168.386 145.482 168.05 145.29C167.726 145.086 167.462 144.822 167.258 144.498C167.066 144.162 166.97 143.796 166.97 143.4V143.256H168.446V143.4C168.446 143.592 168.512 143.76 168.644 143.904C168.788 144.036 168.956 144.102 169.148 144.102H175.412C175.604 144.102 175.766 144.036 175.898 143.904C176.042 143.76 176.114 143.592 176.114 143.4V141.798C176.114 141.606 176.042 141.444 175.898 141.312C175.766 141.168 175.604 141.096 175.412 141.096H169.148C168.752 141.096 168.386 141 168.05 140.808C167.726 140.604 167.462 140.34 167.258 140.016C167.066 139.68 166.97 139.314 166.97 138.918V137.316C166.97 136.92 167.066 136.56 167.258 136.236C167.462 135.9 167.726 135.636 168.05 135.444C168.386 135.24 168.752 135.138 169.148 135.138H175.412C175.82 135.138 176.186 135.24 176.51 135.444C176.846 135.636 177.11 135.9 177.302 136.236C177.506 136.56 177.608 136.92 177.608 137.316V137.46H176.114V137.316C176.114 137.124 176.042 136.962 175.898 136.83C175.766 136.686 175.604 136.614 175.412 136.614H169.148C168.956 136.614 168.788 136.686 168.644 136.83C168.512 136.962 168.446 137.124 168.446 137.316V138.918C168.446 139.11 168.512 139.278 168.644 139.422C168.788 139.554 168.956 139.62 169.148 139.62H175.412C175.82 139.62 176.186 139.722 176.51 139.926C176.846 140.118 177.11 140.382 177.302 140.718C177.506 141.042 177.608 141.402 177.608 141.798V143.4C177.608 143.796 177.506 144.162 177.302 144.498C177.11 144.822 176.846 145.086 176.51 145.29C176.186 145.482 175.82 145.578 175.412 145.578H169.148ZM186.464 145.578C186.068 145.578 185.702 145.482 185.366 145.29C185.042 145.086 184.778 144.822 184.574 144.498C184.382 144.162 184.286 143.796 184.286 143.4V139.62H193.43V137.316C193.43 137.124 193.358 136.962 193.214 136.83C193.082 136.686 192.92 136.614 192.728 136.614H184.286V135.138H192.728C193.136 135.138 193.502 135.24 193.826 135.444C194.162 135.636 194.426 135.9 194.618 136.236C194.822 136.56 194.924 136.92 194.924 137.316V145.578H186.464ZM186.464 144.102H193.43V141.096H185.762V143.4C185.762 143.592 185.828 143.76 185.96 143.904C186.104 144.036 186.272 144.102 186.464 144.102ZM198.98 145.578C198.572 145.578 198.2 145.482 197.864 145.29C197.54 145.086 197.282 144.822 197.09 144.498C196.898 144.162 196.802 143.796 196.802 143.4V131.718H198.278V135.138H202.796V136.614H198.278V143.4C198.278 143.592 198.344 143.76 198.476 143.904C198.62 144.036 198.788 144.102 198.98 144.102H202.796V145.578H198.98ZM211.267 145.578C210.859 145.578 210.487 145.482 210.151 145.29C209.827 145.086 209.569 144.822 209.377 144.498C209.185 144.162 209.089 143.796 209.089 143.4V131.718H210.565V135.138H215.083V136.614H210.565V143.4C210.565 143.592 210.631 143.76 210.763 143.904C210.907 144.036 211.075 144.102 211.267 144.102H215.083V145.578H211.267ZM218.614 145.578C218.218 145.578 217.852 145.482 217.516 145.29C217.192 145.086 216.928 144.822 216.724 144.498C216.532 144.162 216.436 143.796 216.436 143.4V137.316C216.436 136.92 216.532 136.56 216.724 136.236C216.928 135.9 217.192 135.636 217.516 135.444C217.852 135.24 218.218 135.138 218.614 135.138H224.878C225.286 135.138 225.652 135.24 225.976 135.444C226.312 135.636 226.576 135.9 226.768 136.236C226.972 136.56 227.074 136.92 227.074 137.316V141.096H217.912V143.4C217.912 143.592 217.978 143.76 218.11 143.904C218.254 144.036 218.422 144.102 218.614 144.102H227.074V145.578H218.614ZM217.912 139.62H225.58V137.316C225.58 137.124 225.508 136.962 225.364 136.83C225.232 136.686 225.07 136.614 224.878 136.614H218.614C218.422 136.614 218.254 136.686 218.11 136.83C217.978 136.962 217.912 137.124 217.912 137.316V139.62ZM230.744 145.578C230.348 145.578 229.982 145.482 229.646 145.29C229.322 145.086 229.058 144.822 228.854 144.498C228.662 144.162 228.566 143.796 228.566 143.4V131.718H230.042V143.4C230.042 143.592 230.108 143.76 230.24 143.904C230.384 144.036 230.552 144.102 230.744 144.102H232.508V145.578H230.744ZM236.175 145.578C235.779 145.578 235.413 145.482 235.077 145.29C234.753 145.086 234.489 144.822 234.285 144.498C234.093 144.162 233.997 143.796 233.997 143.4V131.718H235.473V143.4C235.473 143.592 235.539 143.76 235.671 143.904C235.815 144.036 235.983 144.102 236.175 144.102H237.939V145.578H236.175ZM241.625 145.578C241.229 145.578 240.863 145.482 240.527 145.29C240.203 145.086 239.939 144.822 239.735 144.498C239.543 144.162 239.447 143.796 239.447 143.4V135.138H240.923V143.4C240.923 143.592 240.989 143.76 241.121 143.904C241.265 144.036 241.433 144.102 241.625 144.102H247.889C248.081 144.102 248.249 144.036 248.393 143.904C248.537 143.76 248.609 143.592 248.609 143.4V135.138H250.085V143.4C250.085 143.796 249.983 144.162 249.779 144.498C249.587 144.822 249.323 145.086 248.987 145.29C248.663 145.482 248.297 145.578 247.889 145.578H241.625ZM253.787 145.578C253.391 145.578 253.025 145.482 252.689 145.29C252.365 145.086 252.101 144.822 251.897 144.498C251.705 144.162 251.609 143.796 251.609 143.4V143.256H253.085V143.4C253.085 143.592 253.151 143.76 253.283 143.904C253.427 144.036 253.595 144.102 253.787 144.102H260.051C260.243 144.102 260.405 144.036 260.537 143.904C260.681 143.76 260.753 143.592 260.753 143.4V141.798C260.753 141.606 260.681 141.444 260.537 141.312C260.405 141.168 260.243 141.096 260.051 141.096H253.787C253.391 141.096 253.025 141 252.689 140.808C252.365 140.604 252.101 140.34 251.897 140.016C251.705 139.68 251.609 139.314 251.609 138.918V137.316C251.609 136.92 251.705 136.56 251.897 136.236C252.101 135.9 252.365 135.636 252.689 135.444C253.025 135.24 253.391 135.138 253.787 135.138H260.051C260.459 135.138 260.825 135.24 261.149 135.444C261.485 135.636 261.749 135.9 261.941 136.236C262.145 136.56 262.247 136.92 262.247 137.316V137.46H260.753V137.316C260.753 137.124 260.681 136.962 260.537 136.83C260.405 136.686 260.243 136.614 260.051 136.614H253.787C253.595 136.614 253.427 136.686 253.283 136.83C253.151 136.962 253.085 137.124 253.085 137.316V138.918C253.085 139.11 253.151 139.278 253.283 139.422C253.427 139.554 253.595 139.62 253.787 139.62H260.051C260.459 139.62 260.825 139.722 261.149 139.926C261.485 140.118 261.749 140.382 261.941 140.718C262.145 141.042 262.247 141.402 262.247 141.798V143.4C262.247 143.796 262.145 144.162 261.941 144.498C261.749 144.822 261.485 145.086 261.149 145.29C260.825 145.482 260.459 145.578 260.051 145.578H253.787ZM264.057 145.578V144.102H265.533V145.578H264.057ZM275.007 145.578C274.611 145.578 274.245 145.482 273.909 145.29C273.585 145.098 273.327 144.84 273.135 144.516C272.943 144.18 272.847 143.814 272.847 143.418V134.778C272.847 134.382 272.943 134.022 273.135 133.698C273.327 133.362 273.585 133.098 273.909 132.906C274.245 132.714 274.611 132.618 275.007 132.618H285.771V134.076H275.007C274.815 134.076 274.647 134.148 274.503 134.292C274.371 134.424 274.305 134.586 274.305 134.778V143.418C274.305 143.61 274.371 143.778 274.503 143.922C274.647 144.054 274.815 144.12 275.007 144.12H285.771V145.578H275.007ZM289.771 145.578C289.375 145.578 289.009 145.482 288.673 145.29C288.349 145.086 288.085 144.822 287.881 144.498C287.689 144.162 287.593 143.796 287.593 143.4V135.138H289.069V143.4C289.069 143.592 289.135 143.76 289.267 143.904C289.411 144.036 289.579 144.102 289.771 144.102H296.035C296.227 144.102 296.395 144.036 296.539 143.904C296.683 143.76 296.755 143.592 296.755 143.4V135.138H298.231V143.4C298.231 143.796 298.129 144.162 297.925 144.498C297.733 144.822 297.469 145.086 297.133 145.29C296.809 145.482 296.443 145.578 296.035 145.578H289.771ZM300.091 145.578V137.316C300.091 136.92 300.187 136.56 300.379 136.236C300.583 135.9 300.847 135.636 301.171 135.444C301.507 135.24 301.873 135.138 302.269 135.138H308.137V136.614H302.269C302.077 136.614 301.909 136.686 301.765 136.83C301.633 136.962 301.567 137.124 301.567 137.316V145.578H300.091ZM311.48 145.578C311.084 145.578 310.718 145.482 310.382 145.29C310.058 145.086 309.794 144.822 309.59 144.498C309.398 144.162 309.302 143.796 309.302 143.4V139.62H318.446V137.316C318.446 137.124 318.374 136.962 318.23 136.83C318.098 136.686 317.936 136.614 317.744 136.614H309.302V135.138H317.744C318.152 135.138 318.518 135.24 318.842 135.444C319.178 135.636 319.442 135.9 319.634 136.236C319.838 136.56 319.94 136.92 319.94 137.316V145.578H311.48ZM311.48 144.102H318.446V141.096H310.778V143.4C310.778 143.592 310.844 143.76 310.976 143.904C311.12 144.036 311.288 144.102 311.48 144.102ZM321.379 145.578V131.718H322.855V135.138H329.839C330.235 135.138 330.595 135.24 330.919 135.444C331.255 135.636 331.519 135.9 331.711 136.236C331.915 136.56 332.017 136.92 332.017 137.316V143.4C332.017 143.796 331.915 144.162 331.711 144.498C331.519 144.822 331.255 145.086 330.919 145.29C330.595 145.482 330.235 145.578 329.839 145.578H321.379ZM323.575 144.102H329.839C330.031 144.102 330.193 144.036 330.325 143.904C330.469 143.76 330.541 143.592 330.541 143.4V137.316C330.541 137.124 330.469 136.962 330.325 136.83C330.193 136.686 330.031 136.614 329.839 136.614H323.575C323.383 136.614 323.215 136.686 323.071 136.83C322.927 136.962 322.855 137.124 322.855 137.316V143.4C322.855 143.592 322.927 143.76 323.071 143.904C323.215 144.036 323.383 144.102 323.575 144.102ZM333.349 145.578V135.138H334.825V145.578H333.349ZM333.349 133.194V131.718H334.825V133.194H333.349ZM339.289 145.578C338.881 145.578 338.509 145.482 338.173 145.29C337.849 145.086 337.591 144.822 337.399 144.498C337.207 144.162 337.111 143.796 337.111 143.4V131.718H338.587V135.138H343.105V136.614H338.587V143.4C338.587 143.592 338.653 143.76 338.785 143.904C338.929 144.036 339.097 144.102 339.289 144.102H343.105V145.578H339.289ZM346.672 145.578C346.276 145.578 345.91 145.482 345.574 145.29C345.25 145.086 344.986 144.822 344.782 144.498C344.59 144.162 344.494 143.796 344.494 143.4V135.138H345.97V143.4C345.97 143.592 346.036 143.76 346.168 143.904C346.312 144.036 346.48 144.102 346.672 144.102H352.936C353.128 144.102 353.296 144.036 353.44 143.904C353.584 143.76 353.656 143.592 353.656 143.4V135.138H355.132V143.4C355.132 143.796 355.03 144.162 354.826 144.498C354.634 144.822 354.37 145.086 354.034 145.29C353.71 145.482 353.344 145.578 352.936 145.578H346.672ZM356.991 145.578V137.316C356.991 136.92 357.087 136.56 357.279 136.236C357.483 135.9 357.747 135.636 358.071 135.444C358.407 135.24 358.773 135.138 359.169 135.138H365.037V136.614H359.169C358.977 136.614 358.809 136.686 358.665 136.83C358.533 136.962 358.467 137.124 358.467 137.316V145.578H356.991ZM371.143 145.578V135.138H379.603C379.999 135.138 380.359 135.24 380.683 135.444C381.019 135.636 381.283 135.9 381.475 136.236C381.679 136.56 381.781 136.92 381.781 137.316V145.578H380.305V137.316C380.305 137.124 380.233 136.962 380.089 136.83C379.957 136.686 379.795 136.614 379.603 136.614H373.339C373.147 136.614 372.979 136.686 372.835 136.83C372.691 136.962 372.619 137.124 372.619 137.316V145.578H371.143ZM385.536 145.578C385.14 145.578 384.774 145.482 384.438 145.29C384.114 145.086 383.85 144.822 383.646 144.498C383.454 144.162 383.358 143.796 383.358 143.4V137.316C383.358 136.92 383.454 136.56 383.646 136.236C383.85 135.9 384.114 135.636 384.438 135.444C384.774 135.24 385.14 135.138 385.536 135.138H391.8C392.208 135.138 392.574 135.24 392.898 135.444C393.234 135.636 393.498 135.9 393.69 136.236C393.894 136.56 393.996 136.92 393.996 137.316V143.4C393.996 143.796 393.894 144.162 393.69 144.498C393.498 144.822 393.234 145.086 392.898 145.29C392.574 145.482 392.208 145.578 391.8 145.578H385.536ZM385.536 144.102H391.8C391.992 144.102 392.154 144.036 392.286 143.904C392.43 143.76 392.502 143.592 392.502 143.4V137.316C392.502 137.124 392.43 136.962 392.286 136.83C392.154 136.686 391.992 136.614 391.8 136.614H385.536C385.344 136.614 385.176 136.686 385.032 136.83C384.9 136.962 384.834 137.124 384.834 137.316V143.4C384.834 143.592 384.9 143.76 385.032 143.904C385.176 144.036 385.344 144.102 385.536 144.102ZM395.611 145.578V135.138H404.071C404.467 135.138 404.827 135.24 405.151 135.444C405.487 135.636 405.751 135.9 405.943 136.236C406.147 136.56 406.249 136.92 406.249 137.316V145.578H404.773V137.316C404.773 137.124 404.701 136.962 404.557 136.83C404.425 136.686 404.263 136.614 404.071 136.614H397.807C397.615 136.614 397.447 136.686 397.303 136.83C397.159 136.962 397.087 137.124 397.087 137.316V145.578H395.611ZM413.049 145.578V135.138H421.509C421.905 135.138 422.265 135.24 422.589 135.444C422.925 135.636 423.189 135.9 423.381 136.236C423.585 136.56 423.687 136.92 423.687 137.316V145.578H422.211V137.316C422.211 137.124 422.139 136.962 421.995 136.83C421.863 136.686 421.701 136.614 421.509 136.614H415.245C415.053 136.614 414.885 136.686 414.741 136.83C414.597 136.962 414.525 137.124 414.525 137.316V145.578H413.049ZM427.742 145.578C427.346 145.578 426.98 145.482 426.644 145.29C426.32 145.086 426.056 144.822 425.852 144.498C425.66 144.162 425.564 143.796 425.564 143.4V135.138H427.04V143.4C427.04 143.592 427.106 143.76 427.238 143.904C427.382 144.036 427.55 144.102 427.742 144.102H434.006C434.198 144.102 434.366 144.036 434.51 143.904C434.654 143.76 434.726 143.592 434.726 143.4V135.138H436.202V143.4C436.202 143.796 436.1 144.162 435.896 144.498C435.704 144.822 435.44 145.086 435.104 145.29C434.78 145.482 434.414 145.578 434.006 145.578H427.742ZM440.24 145.578C439.844 145.578 439.478 145.482 439.142 145.29C438.818 145.086 438.554 144.822 438.35 144.498C438.158 144.162 438.062 143.796 438.062 143.4V131.718H439.538V143.4C439.538 143.592 439.604 143.76 439.736 143.904C439.88 144.036 440.048 144.102 440.24 144.102H442.004V145.578H440.24ZM445.671 145.578C445.275 145.578 444.909 145.482 444.573 145.29C444.249 145.086 443.985 144.822 443.781 144.498C443.589 144.162 443.493 143.796 443.493 143.4V131.718H444.969V143.4C444.969 143.592 445.035 143.76 445.167 143.904C445.311 144.036 445.479 144.102 445.671 144.102H447.435V145.578H445.671ZM450.927 145.578C450.531 145.578 450.165 145.482 449.829 145.29C449.505 145.086 449.241 144.822 449.037 144.498C448.845 144.162 448.749 143.796 448.749 143.4V139.62H457.893V137.316C457.893 137.124 457.821 136.962 457.677 136.83C457.545 136.686 457.383 136.614 457.191 136.614H448.749V135.138H457.191C457.599 135.138 457.965 135.24 458.289 135.444C458.625 135.636 458.889 135.9 459.081 136.236C459.285 136.56 459.387 136.92 459.387 137.316V145.578H450.927ZM450.927 144.102H457.893V141.096H450.225V143.4C450.225 143.592 450.291 143.76 450.423 143.904C450.567 144.036 450.735 144.102 450.927 144.102ZM468.257 145.578C467.861 145.578 467.495 145.482 467.159 145.29C466.835 145.086 466.571 144.822 466.367 144.498C466.175 144.162 466.079 143.796 466.079 143.4V143.256H467.555V143.4C467.555 143.592 467.621 143.76 467.753 143.904C467.897 144.036 468.065 144.102 468.257 144.102H474.521C474.713 144.102 474.875 144.036 475.007 143.904C475.151 143.76 475.223 143.592 475.223 143.4V141.798C475.223 141.606 475.151 141.444 475.007 141.312C474.875 141.168 474.713 141.096 474.521 141.096H468.257C467.861 141.096 467.495 141 467.159 140.808C466.835 140.604 466.571 140.34 466.367 140.016C466.175 139.68 466.079 139.314 466.079 138.918V137.316C466.079 136.92 466.175 136.56 466.367 136.236C466.571 135.9 466.835 135.636 467.159 135.444C467.495 135.24 467.861 135.138 468.257 135.138H474.521C474.929 135.138 475.295 135.24 475.619 135.444C475.955 135.636 476.219 135.9 476.411 136.236C476.615 136.56 476.717 136.92 476.717 137.316V137.46H475.223V137.316C475.223 137.124 475.151 136.962 475.007 136.83C474.875 136.686 474.713 136.614 474.521 136.614H468.257C468.065 136.614 467.897 136.686 467.753 136.83C467.621 136.962 467.555 137.124 467.555 137.316V138.918C467.555 139.11 467.621 139.278 467.753 139.422C467.897 139.554 468.065 139.62 468.257 139.62H474.521C474.929 139.62 475.295 139.722 475.619 139.926C475.955 140.118 476.219 140.382 476.411 140.718C476.615 141.042 476.717 141.402 476.717 141.798V143.4C476.717 143.796 476.615 144.162 476.411 144.498C476.219 144.822 475.955 145.086 475.619 145.29C475.295 145.482 474.929 145.578 474.521 145.578H468.257ZM478.491 145.578V135.138H479.967V145.578H478.491ZM478.491 133.194V131.718H479.967V133.194H478.491ZM484.431 145.578C484.023 145.578 483.651 145.482 483.315 145.29C482.991 145.086 482.733 144.822 482.541 144.498C482.349 144.162 482.253 143.796 482.253 143.4V131.718H483.729V135.138H488.247V136.614H483.729V143.4C483.729 143.592 483.795 143.76 483.927 143.904C484.071 144.036 484.239 144.102 484.431 144.102H488.247V145.578H484.431ZM501.723 145.578L494.217 132.618H495.927L502.569 144.156L509.193 132.618H510.903L503.415 145.578H501.723ZM514.735 145.578C514.339 145.578 513.973 145.482 513.637 145.29C513.313 145.086 513.049 144.822 512.845 144.498C512.653 144.162 512.557 143.796 512.557 143.4V137.316C512.557 136.92 512.653 136.56 512.845 136.236C513.049 135.9 513.313 135.636 513.637 135.444C513.973 135.24 514.339 135.138 514.735 135.138H520.999C521.407 135.138 521.773 135.24 522.097 135.444C522.433 135.636 522.697 135.9 522.889 136.236C523.093 136.56 523.195 136.92 523.195 137.316V141.096H514.033V143.4C514.033 143.592 514.099 143.76 514.231 143.904C514.375 144.036 514.543 144.102 514.735 144.102H523.195V145.578H514.735ZM514.033 139.62H521.701V137.316C521.701 137.124 521.629 136.962 521.485 136.83C521.353 136.686 521.191 136.614 520.999 136.614H514.735C514.543 136.614 514.375 136.686 514.231 136.83C514.099 136.962 514.033 137.124 514.033 137.316V139.62ZM527.144 145.578C526.748 145.578 526.382 145.482 526.046 145.29C525.722 145.086 525.458 144.822 525.254 144.498C525.062 144.162 524.966 143.796 524.966 143.4V143.256H526.442V143.4C526.442 143.592 526.508 143.76 526.64 143.904C526.784 144.036 526.952 144.102 527.144 144.102H533.408C533.6 144.102 533.762 144.036 533.894 143.904C534.038 143.76 534.11 143.592 534.11 143.4V141.798C534.11 141.606 534.038 141.444 533.894 141.312C533.762 141.168 533.6 141.096 533.408 141.096H527.144C526.748 141.096 526.382 141 526.046 140.808C525.722 140.604 525.458 140.34 525.254 140.016C525.062 139.68 524.966 139.314 524.966 138.918V137.316C524.966 136.92 525.062 136.56 525.254 136.236C525.458 135.9 525.722 135.636 526.046 135.444C526.382 135.24 526.748 135.138 527.144 135.138H533.408C533.816 135.138 534.182 135.24 534.506 135.444C534.842 135.636 535.106 135.9 535.298 136.236C535.502 136.56 535.604 136.92 535.604 137.316V137.46H534.11V137.316C534.11 137.124 534.038 136.962 533.894 136.83C533.762 136.686 533.6 136.614 533.408 136.614H527.144C526.952 136.614 526.784 136.686 526.64 136.83C526.508 136.962 526.442 137.124 526.442 137.316V138.918C526.442 139.11 526.508 139.278 526.64 139.422C526.784 139.554 526.952 139.62 527.144 139.62H533.408C533.816 139.62 534.182 139.722 534.506 139.926C534.842 140.118 535.106 140.382 535.298 140.718C535.502 141.042 535.604 141.402 535.604 141.798V143.4C535.604 143.796 535.502 144.162 535.298 144.498C535.106 144.822 534.842 145.086 534.506 145.29C534.182 145.482 533.816 145.578 533.408 145.578H527.144ZM539.574 145.578C539.166 145.578 538.794 145.482 538.458 145.29C538.134 145.086 537.876 144.822 537.684 144.498C537.492 144.162 537.396 143.796 537.396 143.4V131.718H538.872V135.138H543.39V136.614H538.872V143.4C538.872 143.592 538.938 143.76 539.07 143.904C539.214 144.036 539.382 144.102 539.574 144.102H543.39V145.578H539.574ZM544.849 145.578V135.138H546.325V145.578H544.849ZM544.849 133.194V131.718H546.325V133.194H544.849ZM548.629 145.578V131.718H550.105V135.138H557.089C557.485 135.138 557.845 135.24 558.169 135.444C558.505 135.636 558.769 135.9 558.961 136.236C559.165 136.56 559.267 136.92 559.267 137.316V143.4C559.267 143.796 559.165 144.162 558.961 144.498C558.769 144.822 558.505 145.086 558.169 145.29C557.845 145.482 557.485 145.578 557.089 145.578H548.629ZM550.825 144.102H557.089C557.281 144.102 557.443 144.036 557.575 143.904C557.719 143.76 557.791 143.592 557.791 143.4V137.316C557.791 137.124 557.719 136.962 557.575 136.83C557.443 136.686 557.281 136.614 557.089 136.614H550.825C550.633 136.614 550.465 136.686 550.321 136.83C550.177 136.962 550.105 137.124 550.105 137.316V143.4C550.105 143.592 550.177 143.76 550.321 143.904C550.465 144.036 550.633 144.102 550.825 144.102ZM562.795 145.578C562.399 145.578 562.033 145.482 561.697 145.29C561.373 145.086 561.109 144.822 560.905 144.498C560.713 144.162 560.617 143.796 560.617 143.4V135.138H562.093V143.4C562.093 143.592 562.159 143.76 562.291 143.904C562.435 144.036 562.603 144.102 562.795 144.102H569.059C569.251 144.102 569.419 144.036 569.563 143.904C569.707 143.76 569.779 143.592 569.779 143.4V135.138H571.255V143.4C571.255 143.796 571.153 144.162 570.949 144.498C570.757 144.822 570.493 145.086 570.157 145.29C569.833 145.482 569.467 145.578 569.059 145.578H562.795ZM572.799 145.578V135.138H586.587C586.995 135.138 587.361 135.24 587.685 135.444C588.021 135.636 588.285 135.9 588.477 136.236C588.669 136.56 588.765 136.92 588.765 137.316V145.578H587.307V137.316C587.307 137.124 587.235 136.962 587.091 136.83C586.947 136.686 586.779 136.614 586.587 136.614H582.249C582.057 136.614 581.889 136.686 581.745 136.83C581.613 136.962 581.547 137.124 581.547 137.316V145.578H580.053V137.316C580.053 137.124 579.981 136.962 579.837 136.83C579.705 136.686 579.543 136.614 579.351 136.614H574.995C574.803 136.614 574.635 136.686 574.491 136.83C574.359 136.962 574.293 137.124 574.293 137.316V145.578H572.799ZM90.8216 173.578C90.4256 173.578 90.0596 173.482 89.7236 173.29C89.3996 173.086 89.1356 172.822 88.9316 172.498C88.7396 172.162 88.6436 171.796 88.6436 171.4V167.62H97.7876V165.316C97.7876 165.124 97.7156 164.962 97.5716 164.83C97.4396 164.686 97.2776 164.614 97.0856 164.614H88.6436V163.138H97.0856C97.4936 163.138 97.8596 163.24 98.1836 163.444C98.5196 163.636 98.7836 163.9 98.9756 164.236C99.1796 164.56 99.2816 164.92 99.2816 165.316V173.578H90.8216ZM90.8216 172.102H97.7876V169.096H90.1196V171.4C90.1196 171.592 90.1856 171.76 90.3176 171.904C90.4616 172.036 90.6296 172.102 90.8216 172.102ZM100.914 173.578V163.138H109.374C109.77 163.138 110.13 163.24 110.454 163.444C110.79 163.636 111.054 163.9 111.246 164.236C111.45 164.56 111.552 164.92 111.552 165.316V173.578H110.076V165.316C110.076 165.124 110.004 164.962 109.86 164.83C109.728 164.686 109.566 164.614 109.374 164.614H103.11C102.918 164.614 102.75 164.686 102.606 164.83C102.462 164.962 102.39 165.124 102.39 165.316V173.578H100.914ZM115.607 173.578C115.199 173.578 114.827 173.482 114.491 173.29C114.167 173.086 113.909 172.822 113.717 172.498C113.525 172.162 113.429 171.796 113.429 171.4V159.718H114.905V163.138H119.423V164.614H114.905V171.4C114.905 171.592 114.971 171.76 115.103 171.904C115.247 172.036 115.415 172.102 115.607 172.102H119.423V173.578H115.607ZM122.954 173.578C122.558 173.578 122.192 173.482 121.856 173.29C121.532 173.086 121.268 172.822 121.064 172.498C120.872 172.162 120.776 171.796 120.776 171.4V165.316C120.776 164.92 120.872 164.56 121.064 164.236C121.268 163.9 121.532 163.636 121.856 163.444C122.192 163.24 122.558 163.138 122.954 163.138H129.218C129.626 163.138 129.992 163.24 130.316 163.444C130.652 163.636 130.916 163.9 131.108 164.236C131.312 164.56 131.414 164.92 131.414 165.316V169.096H122.252V171.4C122.252 171.592 122.318 171.76 122.45 171.904C122.594 172.036 122.762 172.102 122.954 172.102H131.414V173.578H122.954ZM122.252 167.62H129.92V165.316C129.92 165.124 129.848 164.962 129.704 164.83C129.572 164.686 129.41 164.614 129.218 164.614H122.954C122.762 164.614 122.594 164.686 122.45 164.83C122.318 164.962 122.252 165.124 122.252 165.316V167.62ZM138.161 173.578V163.138H139.637V173.578H138.161ZM138.161 161.194V159.718H139.637V161.194H138.161ZM141.484 177.718V163.138H149.944C150.34 163.138 150.7 163.24 151.024 163.444C151.36 163.636 151.624 163.9 151.816 164.236C152.02 164.56 152.122 164.92 152.122 165.316V171.4C152.122 171.796 152.02 172.162 151.816 172.498C151.624 172.822 151.36 173.086 151.024 173.29C150.7 173.482 150.34 173.578 149.944 173.578H142.96V177.718H141.484ZM143.68 172.102H149.944C150.136 172.102 150.298 172.036 150.43 171.904C150.574 171.76 150.646 171.592 150.646 171.4V165.316C150.646 165.124 150.574 164.962 150.43 164.83C150.298 164.686 150.136 164.614 149.944 164.614H143.68C143.488 164.614 143.32 164.686 143.176 164.83C143.032 164.962 142.96 165.124 142.96 165.316V171.4C142.96 171.592 143.032 171.76 143.176 171.904C143.32 172.036 143.488 172.102 143.68 172.102ZM155.683 173.578C155.287 173.578 154.921 173.482 154.585 173.29C154.261 173.086 153.997 172.822 153.793 172.498C153.601 172.162 153.505 171.796 153.505 171.4V171.256H154.981V171.4C154.981 171.592 155.047 171.76 155.179 171.904C155.323 172.036 155.491 172.102 155.683 172.102H161.947C162.139 172.102 162.301 172.036 162.433 171.904C162.577 171.76 162.649 171.592 162.649 171.4V169.798C162.649 169.606 162.577 169.444 162.433 169.312C162.301 169.168 162.139 169.096 161.947 169.096H155.683C155.287 169.096 154.921 169 154.585 168.808C154.261 168.604 153.997 168.34 153.793 168.016C153.601 167.68 153.505 167.314 153.505 166.918V165.316C153.505 164.92 153.601 164.56 153.793 164.236C153.997 163.9 154.261 163.636 154.585 163.444C154.921 163.24 155.287 163.138 155.683 163.138H161.947C162.355 163.138 162.721 163.24 163.045 163.444C163.381 163.636 163.645 163.9 163.837 164.236C164.041 164.56 164.143 164.92 164.143 165.316V165.46H162.649V165.316C162.649 165.124 162.577 164.962 162.433 164.83C162.301 164.686 162.139 164.614 161.947 164.614H155.683C155.491 164.614 155.323 164.686 155.179 164.83C155.047 164.962 154.981 165.124 154.981 165.316V166.918C154.981 167.11 155.047 167.278 155.179 167.422C155.323 167.554 155.491 167.62 155.683 167.62H161.947C162.355 167.62 162.721 167.722 163.045 167.926C163.381 168.118 163.645 168.382 163.837 168.718C164.041 169.042 164.143 169.402 164.143 169.798V171.4C164.143 171.796 164.041 172.162 163.837 172.498C163.645 172.822 163.381 173.086 163.045 173.29C162.721 173.482 162.355 173.578 161.947 173.578H155.683ZM167.762 173.578C167.366 173.578 167 173.482 166.664 173.29C166.34 173.086 166.076 172.822 165.872 172.498C165.68 172.162 165.584 171.796 165.584 171.4V163.138H167.06V171.4C167.06 171.592 167.126 171.76 167.258 171.904C167.402 172.036 167.57 172.102 167.762 172.102H174.026C174.218 172.102 174.386 172.036 174.53 171.904C174.674 171.76 174.746 171.592 174.746 171.4V163.138H176.222V171.4C176.222 171.796 176.12 172.162 175.916 172.498C175.724 172.822 175.46 173.086 175.124 173.29C174.8 173.482 174.434 173.578 174.026 173.578H167.762ZM177.766 173.578V163.138H191.554C191.962 163.138 192.328 163.24 192.652 163.444C192.988 163.636 193.252 163.9 193.444 164.236C193.636 164.56 193.732 164.92 193.732 165.316V173.578H192.274V165.316C192.274 165.124 192.202 164.962 192.058 164.83C191.914 164.686 191.746 164.614 191.554 164.614H187.216C187.024 164.614 186.856 164.686 186.712 164.83C186.58 164.962 186.514 165.124 186.514 165.316V173.578H185.02V165.316C185.02 165.124 184.948 164.962 184.804 164.83C184.672 164.686 184.51 164.614 184.318 164.614H179.962C179.77 164.614 179.602 164.686 179.458 164.83C179.326 164.962 179.26 165.124 179.26 165.316V173.578H177.766ZM200.266 177.718V163.138H208.726C209.122 163.138 209.482 163.24 209.806 163.444C210.142 163.636 210.406 163.9 210.598 164.236C210.802 164.56 210.904 164.92 210.904 165.316V171.4C210.904 171.796 210.802 172.162 210.598 172.498C210.406 172.822 210.142 173.086 209.806 173.29C209.482 173.482 209.122 173.578 208.726 173.578H201.742V177.718H200.266ZM202.462 172.102H208.726C208.918 172.102 209.08 172.036 209.212 171.904C209.356 171.76 209.428 171.592 209.428 171.4V165.316C209.428 165.124 209.356 164.962 209.212 164.83C209.08 164.686 208.918 164.614 208.726 164.614H202.462C202.27 164.614 202.102 164.686 201.958 164.83C201.814 164.962 201.742 165.124 201.742 165.316V171.4C201.742 171.592 201.814 171.76 201.958 171.904C202.102 172.036 202.27 172.102 202.462 172.102ZM212.183 173.578V165.316C212.183 164.92 212.279 164.56 212.471 164.236C212.675 163.9 212.939 163.636 213.263 163.444C213.599 163.24 213.965 163.138 214.361 163.138H220.229V164.614H214.361C214.169 164.614 214.001 164.686 213.857 164.83C213.725 164.962 213.659 165.124 213.659 165.316V173.578H212.183ZM221.394 173.578V163.138H222.87V173.578H221.394ZM221.394 161.194V159.718H222.87V161.194H221.394ZM225.174 173.578V163.138H238.962C239.37 163.138 239.736 163.24 240.06 163.444C240.396 163.636 240.66 163.9 240.852 164.236C241.044 164.56 241.14 164.92 241.14 165.316V173.578H239.682V165.316C239.682 165.124 239.61 164.962 239.466 164.83C239.322 164.686 239.154 164.614 238.962 164.614H234.624C234.432 164.614 234.264 164.686 234.12 164.83C233.988 164.962 233.922 165.124 233.922 165.316V173.578H232.428V165.316C232.428 165.124 232.356 164.962 232.212 164.83C232.08 164.686 231.918 164.614 231.726 164.614H227.37C227.178 164.614 227.01 164.686 226.866 164.83C226.734 164.962 226.668 165.124 226.668 165.316V173.578H225.174ZM242.733 173.578V163.138H244.209V173.578H242.733ZM242.733 161.194V159.718H244.209V161.194H242.733ZM248.584 173.578C248.188 173.578 247.822 173.482 247.486 173.29C247.162 173.086 246.898 172.822 246.694 172.498C246.502 172.162 246.406 171.796 246.406 171.4V171.256H247.882V171.4C247.882 171.592 247.948 171.76 248.08 171.904C248.224 172.036 248.392 172.102 248.584 172.102H254.848C255.04 172.102 255.202 172.036 255.334 171.904C255.478 171.76 255.55 171.592 255.55 171.4V169.798C255.55 169.606 255.478 169.444 255.334 169.312C255.202 169.168 255.04 169.096 254.848 169.096H248.584C248.188 169.096 247.822 169 247.486 168.808C247.162 168.604 246.898 168.34 246.694 168.016C246.502 167.68 246.406 167.314 246.406 166.918V165.316C246.406 164.92 246.502 164.56 246.694 164.236C246.898 163.9 247.162 163.636 247.486 163.444C247.822 163.24 248.188 163.138 248.584 163.138H254.848C255.256 163.138 255.622 163.24 255.946 163.444C256.282 163.636 256.546 163.9 256.738 164.236C256.942 164.56 257.044 164.92 257.044 165.316V165.46H255.55V165.316C255.55 165.124 255.478 164.962 255.334 164.83C255.202 164.686 255.04 164.614 254.848 164.614H248.584C248.392 164.614 248.224 164.686 248.08 164.83C247.948 164.962 247.882 165.124 247.882 165.316V166.918C247.882 167.11 247.948 167.278 248.08 167.422C248.224 167.554 248.392 167.62 248.584 167.62H254.848C255.256 167.62 255.622 167.722 255.946 167.926C256.282 168.118 256.546 168.382 256.738 168.718C256.942 169.042 257.044 169.402 257.044 169.798V171.4C257.044 171.796 256.942 172.162 256.738 172.498C256.546 172.822 256.282 173.086 255.946 173.29C255.622 173.482 255.256 173.578 254.848 173.578H248.584ZM263.722 173.578V163.138H265.198V173.578H263.722ZM263.722 161.194V159.718H265.198V161.194H263.722ZM267.238 173.578V163.138H275.698C276.094 163.138 276.454 163.24 276.778 163.444C277.114 163.636 277.378 163.9 277.57 164.236C277.774 164.56 277.876 164.92 277.876 165.316V173.578H276.4V165.316C276.4 165.124 276.328 164.962 276.184 164.83C276.052 164.686 275.89 164.614 275.698 164.614H269.434C269.242 164.614 269.074 164.686 268.93 164.83C268.786 164.962 268.714 165.124 268.714 165.316V173.578H267.238ZM284.658 173.578V161.896C284.658 161.488 284.754 161.122 284.946 160.798C285.138 160.462 285.396 160.198 285.72 160.006C286.056 159.814 286.428 159.718 286.836 159.718H290.652V161.194H286.836C286.644 161.194 286.476 161.266 286.332 161.41C286.2 161.542 286.134 161.704 286.134 161.896V163.138H290.652V164.614H286.134V173.578H284.658ZM294.148 173.578C293.752 173.578 293.386 173.482 293.05 173.29C292.726 173.086 292.462 172.822 292.258 172.498C292.066 172.162 291.97 171.796 291.97 171.4V167.62H301.114V165.316C301.114 165.124 301.042 164.962 300.898 164.83C300.766 164.686 300.604 164.614 300.412 164.614H291.97V163.138H300.412C300.82 163.138 301.186 163.24 301.51 163.444C301.846 163.636 302.11 163.9 302.302 164.236C302.506 164.56 302.608 164.92 302.608 165.316V173.578H294.148ZM294.148 172.102H301.114V169.096H293.446V171.4C293.446 171.592 293.512 171.76 293.644 171.904C293.788 172.036 293.956 172.102 294.148 172.102ZM306.664 173.578C306.268 173.578 305.902 173.482 305.566 173.29C305.242 173.086 304.978 172.822 304.774 172.498C304.582 172.162 304.486 171.796 304.486 171.4V163.138H305.962V171.4C305.962 171.592 306.028 171.76 306.16 171.904C306.304 172.036 306.472 172.102 306.664 172.102H312.928C313.12 172.102 313.288 172.036 313.432 171.904C313.576 171.76 313.648 171.592 313.648 171.4V163.138H315.124V171.4C315.124 171.796 315.022 172.162 314.818 172.498C314.626 172.822 314.362 173.086 314.026 173.29C313.702 173.482 313.336 173.578 312.928 173.578H306.664ZM318.792 173.578C318.396 173.578 318.03 173.482 317.694 173.29C317.37 173.086 317.106 172.822 316.902 172.498C316.71 172.162 316.614 171.796 316.614 171.4V165.316C316.614 164.92 316.71 164.56 316.902 164.236C317.106 163.9 317.37 163.636 317.694 163.444C318.03 163.24 318.396 163.138 318.792 163.138H327.216V164.614H318.792C318.6 164.614 318.432 164.686 318.288 164.83C318.156 164.962 318.09 165.124 318.09 165.316V171.4C318.09 171.592 318.156 171.76 318.288 171.904C318.432 172.036 318.6 172.102 318.792 172.102H327.252V173.578H318.792ZM329.148 173.578V163.138H330.624V173.578H329.148ZM329.148 161.194V159.718H330.624V161.194H329.148ZM332.928 173.578V159.718H334.404V163.138H341.388C341.784 163.138 342.144 163.24 342.468 163.444C342.804 163.636 343.068 163.9 343.26 164.236C343.464 164.56 343.566 164.92 343.566 165.316V171.4C343.566 171.796 343.464 172.162 343.26 172.498C343.068 172.822 342.804 173.086 342.468 173.29C342.144 173.482 341.784 173.578 341.388 173.578H332.928ZM335.124 172.102H341.388C341.58 172.102 341.742 172.036 341.874 171.904C342.018 171.76 342.09 171.592 342.09 171.4V165.316C342.09 165.124 342.018 164.962 341.874 164.83C341.742 164.686 341.58 164.614 341.388 164.614H335.124C334.932 164.614 334.764 164.686 334.62 164.83C334.476 164.962 334.404 165.124 334.404 165.316V171.4C334.404 171.592 334.476 171.76 334.62 171.904C334.764 172.036 334.932 172.102 335.124 172.102ZM347.094 173.578C346.698 173.578 346.332 173.482 345.996 173.29C345.672 173.086 345.408 172.822 345.204 172.498C345.012 172.162 344.916 171.796 344.916 171.4V163.138H346.392V171.4C346.392 171.592 346.458 171.76 346.59 171.904C346.734 172.036 346.902 172.102 347.094 172.102H353.358C353.55 172.102 353.718 172.036 353.862 171.904C354.006 171.76 354.078 171.592 354.078 171.4V163.138H355.554V171.4C355.554 171.796 355.452 172.162 355.248 172.498C355.056 172.822 354.792 173.086 354.456 173.29C354.132 173.482 353.766 173.578 353.358 173.578H347.094ZM359.256 173.578C358.86 173.578 358.494 173.482 358.158 173.29C357.834 173.086 357.57 172.822 357.366 172.498C357.174 172.162 357.078 171.796 357.078 171.4V171.256H358.554V171.4C358.554 171.592 358.62 171.76 358.752 171.904C358.896 172.036 359.064 172.102 359.256 172.102H365.52C365.712 172.102 365.874 172.036 366.006 171.904C366.15 171.76 366.222 171.592 366.222 171.4V169.798C366.222 169.606 366.15 169.444 366.006 169.312C365.874 169.168 365.712 169.096 365.52 169.096H359.256C358.86 169.096 358.494 169 358.158 168.808C357.834 168.604 357.57 168.34 357.366 168.016C357.174 167.68 357.078 167.314 357.078 166.918V165.316C357.078 164.92 357.174 164.56 357.366 164.236C357.57 163.9 357.834 163.636 358.158 163.444C358.494 163.24 358.86 163.138 359.256 163.138H365.52C365.928 163.138 366.294 163.24 366.618 163.444C366.954 163.636 367.218 163.9 367.41 164.236C367.614 164.56 367.716 164.92 367.716 165.316V165.46H366.222V165.316C366.222 165.124 366.15 164.962 366.006 164.83C365.874 164.686 365.712 164.614 365.52 164.614H359.256C359.064 164.614 358.896 164.686 358.752 164.83C358.62 164.962 358.554 165.124 358.554 165.316V166.918C358.554 167.11 358.62 167.278 358.752 167.422C358.896 167.554 359.064 167.62 359.256 167.62H365.52C365.928 167.62 366.294 167.722 366.618 167.926C366.954 168.118 367.218 168.382 367.41 168.718C367.614 169.042 367.716 169.402 367.716 169.798V171.4C367.716 171.796 367.614 172.162 367.41 172.498C367.218 172.822 366.954 173.086 366.618 173.29C366.294 173.482 365.928 173.578 365.52 173.578H359.256ZM376.554 173.578C376.158 173.578 375.792 173.482 375.456 173.29C375.132 173.086 374.868 172.822 374.664 172.498C374.472 172.162 374.376 171.796 374.376 171.4V165.316C374.376 164.92 374.472 164.56 374.664 164.236C374.868 163.9 375.132 163.636 375.456 163.444C375.792 163.24 376.158 163.138 376.554 163.138H382.818C383.226 163.138 383.592 163.24 383.916 163.444C384.252 163.636 384.516 163.9 384.708 164.236C384.912 164.56 385.014 164.92 385.014 165.316V171.4C385.014 171.796 384.912 172.162 384.708 172.498C384.516 172.822 384.252 173.086 383.916 173.29C383.592 173.482 383.226 173.578 382.818 173.578H376.554ZM376.554 172.102H382.818C383.01 172.102 383.172 172.036 383.304 171.904C383.448 171.76 383.52 171.592 383.52 171.4V165.316C383.52 165.124 383.448 164.962 383.304 164.83C383.172 164.686 383.01 164.614 382.818 164.614H376.554C376.362 164.614 376.194 164.686 376.05 164.83C375.918 164.962 375.852 165.124 375.852 165.316V171.4C375.852 171.592 375.918 171.76 376.05 171.904C376.194 172.036 376.362 172.102 376.554 172.102ZM386.681 173.578V165.316C386.681 164.92 386.777 164.56 386.969 164.236C387.173 163.9 387.437 163.636 387.761 163.444C388.097 163.24 388.463 163.138 388.859 163.138H394.727V164.614H388.859C388.667 164.614 388.499 164.686 388.355 164.83C388.223 164.962 388.157 165.124 388.157 165.316V173.578H386.681ZM398.052 173.578C397.656 173.578 397.29 173.482 396.954 173.29C396.63 173.086 396.366 172.822 396.162 172.498C395.97 172.162 395.874 171.796 395.874 171.4V165.316C395.874 164.92 395.97 164.56 396.162 164.236C396.366 163.9 396.63 163.636 396.954 163.444C397.29 163.24 397.656 163.138 398.052 163.138H406.476V164.614H398.052C397.86 164.614 397.692 164.686 397.548 164.83C397.416 164.962 397.35 165.124 397.35 165.316V171.4C397.35 171.592 397.416 171.76 397.548 171.904C397.692 172.036 397.86 172.102 398.052 172.102H406.512V173.578H398.052ZM408.407 173.578V163.138H409.883V173.578H408.407ZM408.407 161.194V159.718H409.883V161.194H408.407Z" fill="#DFDFDF" fill-opacity="0.8"/>
<path d="M89.5636 68.5781V49.3781C89.5636 48.6741 89.7343 48.0341 90.0756 47.4581C90.417 46.8608 90.8756 46.3915 91.4516 46.0501C92.049 45.7088 92.6996 45.5381 93.4036 45.5381H108.764C109.468 45.5381 110.108 45.7088 110.684 46.0501C111.281 46.3915 111.75 46.8608 112.092 47.4581C112.433 48.0341 112.604 48.6741 112.604 49.3781V68.5781H110.012V60.1621H92.1556V68.5781H89.5636ZM92.1556 57.5701H110.012V49.3781C110.012 49.0368 109.884 48.7488 109.628 48.5141C109.393 48.2581 109.105 48.1301 108.764 48.1301H93.4036C93.0623 48.1301 92.7636 48.2581 92.5076 48.5141C92.273 48.7488 92.1556 49.0368 92.1556 49.3781V57.5701ZM119.994 68.5781C119.29 68.5781 118.639 68.4075 118.042 68.0661C117.466 67.7035 116.996 67.2341 116.634 66.6581C116.292 66.0608 116.122 65.4101 116.122 64.7061V43.9381H118.746V64.7061C118.746 65.0475 118.863 65.3461 119.098 65.6021C119.354 65.8368 119.652 65.9541 119.994 65.9541H123.13V68.5781H119.994ZM129.65 68.5781C128.946 68.5781 128.295 68.4075 127.698 68.0661C127.122 67.7035 126.653 67.2341 126.29 66.6581C125.949 66.0608 125.778 65.4101 125.778 64.7061V43.9381H128.402V64.7061C128.402 65.0475 128.519 65.3461 128.754 65.6021C129.01 65.8368 129.309 65.9541 129.65 65.9541H132.786V68.5781H129.65ZM144.281 68.5781V45.5381H147.833L164.729 65.6341V45.5381H167.321V68.5781H163.769L146.873 48.4821V68.5781H144.281ZM174.618 68.5781C173.914 68.5781 173.263 68.4075 172.666 68.0661C172.09 67.7035 171.621 67.2341 171.258 66.6581C170.917 66.0608 170.746 65.4101 170.746 64.7061V53.8901C170.746 53.1861 170.917 52.5461 171.258 51.9701C171.621 51.3728 172.09 50.9035 172.666 50.5621C173.263 50.1995 173.914 50.0181 174.618 50.0181H185.754C186.479 50.0181 187.13 50.1995 187.706 50.5621C188.303 50.9035 188.773 51.3728 189.114 51.9701C189.477 52.5461 189.658 53.1861 189.658 53.8901V60.6101H173.37V64.7061C173.37 65.0475 173.487 65.3461 173.722 65.6021C173.978 65.8368 174.277 65.9541 174.618 65.9541H189.658V68.5781H174.618ZM173.37 57.9861H187.002V53.8901C187.002 53.5488 186.874 53.2608 186.618 53.0261C186.383 52.7701 186.095 52.6421 185.754 52.6421H174.618C174.277 52.6421 173.978 52.7701 173.722 53.0261C173.487 53.2608 173.37 53.5488 173.37 53.8901V57.9861ZM198.717 68.5781L191.421 50.0181H194.237L199.869 63.8421L205.853 50.0181H209.309L215.677 63.8101L220.925 50.0181H223.773L216.765 68.5781H214.493L207.581 53.2501L201.021 68.5781H198.717ZM238.933 68.5781C238.229 68.5781 237.579 68.4075 236.981 68.0661C236.405 67.7248 235.947 67.2661 235.605 66.6901C235.264 66.0928 235.093 65.4421 235.093 64.7381V49.3781C235.093 48.6741 235.264 48.0341 235.605 47.4581C235.947 46.8608 236.405 46.3915 236.981 46.0501C237.579 45.7088 238.229 45.5381 238.933 45.5381H254.293C254.997 45.5381 255.637 45.7088 256.213 46.0501C256.811 46.3915 257.28 46.8608 257.621 47.4581C257.963 48.0341 258.133 48.6741 258.133 49.3781V50.3061H255.541V49.3781C255.541 49.0368 255.413 48.7488 255.157 48.5141C254.923 48.2581 254.635 48.1301 254.293 48.1301H238.933C238.592 48.1301 238.293 48.2581 238.037 48.5141C237.803 48.7488 237.685 49.0368 237.685 49.3781V64.7381C237.685 65.0795 237.803 65.3781 238.037 65.6341C238.293 65.8688 238.592 65.9861 238.933 65.9861H254.293C254.635 65.9861 254.923 65.8688 255.157 65.6341C255.413 65.3781 255.541 65.0795 255.541 64.7381V59.0421H249.845V56.4181H258.133V64.7381C258.133 65.4421 257.963 66.0928 257.621 66.6901C257.28 67.2661 256.811 67.7248 256.213 68.0661C255.637 68.4075 254.997 68.5781 254.293 68.5781H238.933ZM265.4 68.5781C264.696 68.5781 264.045 68.4075 263.448 68.0661C262.872 67.7035 262.403 67.2341 262.04 66.6581C261.699 66.0608 261.528 65.4101 261.528 64.7061V57.9861H277.784V53.8901C277.784 53.5488 277.656 53.2608 277.4 53.0261C277.165 52.7701 276.877 52.6421 276.536 52.6421H261.528V50.0181H276.536C277.261 50.0181 277.912 50.1995 278.488 50.5621C279.085 50.9035 279.555 51.3728 279.896 51.9701C280.259 52.5461 280.44 53.1861 280.44 53.8901V68.5781H265.4ZM265.4 65.9541H277.784V60.6101H264.152V64.7061C264.152 65.0475 264.269 65.3461 264.504 65.6021C264.76 65.8368 265.059 65.9541 265.4 65.9541ZM283.186 68.5781V50.0181H307.698C308.423 50.0181 309.074 50.1995 309.65 50.5621C310.247 50.9035 310.716 51.3728 311.058 51.9701C311.399 52.5461 311.57 53.1861 311.57 53.8901V68.5781H308.978V53.8901C308.978 53.5488 308.85 53.2608 308.594 53.0261C308.338 52.7701 308.039 52.6421 307.698 52.6421H299.986C299.644 52.6421 299.346 52.7701 299.09 53.0261C298.855 53.2608 298.738 53.5488 298.738 53.8901V68.5781H296.082V53.8901C296.082 53.5488 295.954 53.2608 295.698 53.0261C295.463 52.7701 295.175 52.6421 294.834 52.6421H287.09C286.748 52.6421 286.45 52.7701 286.194 53.0261C285.959 53.2608 285.842 53.5488 285.842 53.8901V68.5781H283.186ZM318.243 68.5781C317.539 68.5781 316.888 68.4075 316.291 68.0661C315.715 67.7035 315.246 67.2341 314.883 66.6581C314.542 66.0608 314.371 65.4101 314.371 64.7061V53.8901C314.371 53.1861 314.542 52.5461 314.883 51.9701C315.246 51.3728 315.715 50.9035 316.291 50.5621C316.888 50.1995 317.539 50.0181 318.243 50.0181H329.379C330.104 50.0181 330.755 50.1995 331.331 50.5621C331.928 50.9035 332.398 51.3728 332.739 51.9701C333.102 52.5461 333.283 53.1861 333.283 53.8901V60.6101H316.995V64.7061C316.995 65.0475 317.112 65.3461 317.347 65.6021C317.603 65.8368 317.902 65.9541 318.243 65.9541H333.283V68.5781H318.243ZM316.995 57.9861H330.627V53.8901C330.627 53.5488 330.499 53.2608 330.243 53.0261C330.008 52.7701 329.72 52.6421 329.379 52.6421H318.243C317.902 52.6421 317.603 52.7701 317.347 53.0261C317.112 53.2608 316.995 53.5488 316.995 53.8901V57.9861ZM336.623 75.9381V50.0181H351.663C352.367 50.0181 353.007 50.1995 353.583 50.5621C354.18 50.9035 354.65 51.3728 354.991 51.9701C355.354 52.5461 355.535 53.1861 355.535 53.8901V64.7061C355.535 65.4101 355.354 66.0608 354.991 66.6581C354.65 67.2341 354.18 67.7035 353.583 68.0661C353.007 68.4075 352.367 68.5781 351.663 68.5781H339.247V75.9381H336.623ZM340.527 65.9541H351.663C352.004 65.9541 352.292 65.8368 352.527 65.6021C352.783 65.3461 352.911 65.0475 352.911 64.7061V53.8901C352.911 53.5488 352.783 53.2608 352.527 53.0261C352.292 52.7701 352.004 52.6421 351.663 52.6421H340.527C340.186 52.6421 339.887 52.7701 339.631 53.0261C339.375 53.2608 339.247 53.5488 339.247 53.8901V64.7061C339.247 65.0475 339.375 65.3461 339.631 65.6021C339.887 65.8368 340.186 65.9541 340.527 65.9541ZM361.681 68.5781C360.977 68.5781 360.326 68.4075 359.729 68.0661C359.153 67.7035 358.684 67.2341 358.321 66.6581C357.98 66.0608 357.809 65.4101 357.809 64.7061V43.9381H360.433V64.7061C360.433 65.0475 360.55 65.3461 360.785 65.6021C361.041 65.8368 361.34 65.9541 361.681 65.9541H364.817V68.5781H361.681ZM371.025 68.5781C370.321 68.5781 369.67 68.4075 369.073 68.0661C368.497 67.7035 368.028 67.2341 367.665 66.6581C367.324 66.0608 367.153 65.4101 367.153 64.7061V57.9861H383.409V53.8901C383.409 53.5488 383.281 53.2608 383.025 53.0261C382.79 52.7701 382.502 52.6421 382.161 52.6421H367.153V50.0181H382.161C382.886 50.0181 383.537 50.1995 384.113 50.5621C384.71 50.9035 385.18 51.3728 385.521 51.9701C385.884 52.5461 386.065 53.1861 386.065 53.8901V68.5781H371.025ZM371.025 65.9541H383.409V60.6101H369.777V64.7061C369.777 65.0475 369.894 65.3461 370.129 65.6021C370.385 65.8368 370.684 65.9541 371.025 65.9541ZM392.476 75.9381V73.2821H404.06C404.401 73.2821 404.689 73.1541 404.924 72.8981C405.18 72.6635 405.308 72.3755 405.308 72.0341V68.5781H392.924C392.22 68.5781 391.569 68.4075 390.972 68.0661C390.396 67.7035 389.926 67.2341 389.564 66.6581C389.222 66.0608 389.052 65.4101 389.052 64.7061V50.0821H391.676V64.7061C391.676 65.0475 391.793 65.3461 392.028 65.6021C392.284 65.8368 392.582 65.9541 392.924 65.9541H404.06C404.401 65.9541 404.689 65.8368 404.924 65.6021C405.18 65.3461 405.308 65.0475 405.308 64.7061V50.0821H407.932V72.0341C407.932 72.7595 407.761 73.4101 407.42 73.9861C407.078 74.5835 406.609 75.0528 406.012 75.3941C405.436 75.7568 404.785 75.9381 404.06 75.9381H392.476Z" fill="white"/>
<defs>
<clipPath id="clip0_1_226">
<rect width="31.794" height="29" fill="white" transform="translate(38.3721 35.5781)"/>
</clipPath>
</defs>
</svg>
