<svg width="770" height="293" viewBox="0 0 770 293" fill="none" xmlns="http://www.w3.org/2000/svg">
<path d="M281.247 7.25C282.06 8.38815 282.497 9.75188 282.497 11.1506V12.5C282.925 12.5 283.341 12.3568 283.679 12.0931C284.017 11.8294 284.257 11.4605 284.361 11.0448L284.497 10.5L284.866 10.9434C285.462 11.6583 285.785 12.561 285.779 13.4915C285.773 14.4221 285.437 15.3202 284.831 16.0268C284.604 16.2915 284.486 16.6322 284.499 16.9806C284.512 17.3291 284.657 17.6596 284.903 17.9062C285.041 18.0439 285.206 18.151 285.388 18.2205C285.57 18.29 285.764 18.3203 285.958 18.3096C286.153 18.2988 286.343 18.2471 286.516 18.158C286.689 18.0688 286.841 17.9441 286.963 17.7921L287.997 16.5L288.997 19C289.45 20.5115 289.486 22.1177 289.1 23.6479C288.714 25.1781 287.922 26.5753 286.806 27.6912L286.68 27.8173C284.962 29.535 282.632 30.5 280.203 30.5H279.183C277.601 30.5 276.046 30.0904 274.67 29.3111C273.294 28.5318 272.142 27.4094 271.329 26.0531C270.354 24.4291 269.907 22.5429 270.049 20.6542C270.191 18.7656 270.915 16.9674 272.121 15.5072L276.169 10.6073C276.568 10.1244 276.824 9.53994 276.909 8.91945C276.994 8.29897 276.905 7.66707 276.65 7.09475C276.328 6.36877 276.272 5.55208 276.493 4.78904C276.714 4.026 277.198 3.36575 277.859 2.925L279.997 1.5V3.34944C279.997 4.74812 280.434 6.11185 281.247 7.25Z" fill="url(#paint0_linear_1_211)"/>
<path d="M283.689 27.0882L283.693 27.0838C284.471 26.3001 285.026 25.3234 285.301 24.2541C285.576 23.1848 285.561 22.0616 285.258 21L283.803 22.4546C283.666 22.5919 283.503 22.7008 283.323 22.7751C283.144 22.8494 282.952 22.8877 282.758 22.8877C282.564 22.8877 282.371 22.8494 282.192 22.7751C282.013 22.7008 281.85 22.5919 281.712 22.4546C281.451 22.1938 281.297 21.8448 281.281 21.4763C281.264 21.1078 281.386 20.7463 281.622 20.4629C282.108 19.8794 282.414 19.1667 282.501 18.4122C282.589 17.6577 282.455 16.8941 282.115 16.2147L279.758 11.5L279.395 15.4875C279.352 15.9657 279.212 16.4303 278.985 16.8532C278.757 17.2762 278.447 17.6488 278.072 17.9489L276.011 19.5976C275.464 20.0352 275.022 20.5902 274.719 21.2216C274.415 21.853 274.258 22.5445 274.258 23.2451V23.8125C274.258 24.4973 274.408 25.1736 274.699 25.7938C274.989 26.4139 275.413 26.9626 275.939 27.4009C276.79 28.1106 277.867 28.4943 278.975 28.4834L280.42 28.4691C281.649 28.4568 282.823 27.9606 283.689 27.0882Z" fill="#FDD04A"/>
<path d="M271.5 12C271.367 12 271.24 11.9473 271.146 11.8536C271.053 11.7598 271 11.6326 271 11.5V10.5C271 10.3674 271.053 10.2402 271.146 10.1464C271.24 10.0527 271.367 10 271.5 10C271.633 10 271.76 10.0527 271.854 10.1464C271.947 10.2402 272 10.3674 272 10.5V11.5C272 11.6326 271.947 11.7598 271.854 11.8536C271.76 11.9473 271.633 12 271.5 12Z" fill="#FE691E"/>
<path d="M273 9.5C272.867 9.5 272.74 9.44732 272.646 9.35355C272.553 9.25979 272.5 9.13261 272.5 9V8C272.5 7.86739 272.553 7.74021 272.646 7.64645C272.74 7.55268 272.867 7.5 273 7.5C273.133 7.5 273.26 7.55268 273.354 7.64645C273.447 7.74021 273.5 7.86739 273.5 8V9C273.5 9.13261 273.447 9.25979 273.354 9.35355C273.26 9.44732 273.133 9.5 273 9.5Z" fill="#FF8D54"/>
<path d="M271 7.5C270.867 7.5 270.74 7.44732 270.646 7.35355C270.553 7.25979 270.5 7.13261 270.5 7V6C270.5 5.86739 270.553 5.74021 270.646 5.64645C270.74 5.55268 270.867 5.5 271 5.5C271.133 5.5 271.26 5.55268 271.354 5.64645C271.447 5.74021 271.5 5.86739 271.5 6V7C271.5 7.13261 271.447 7.25979 271.354 7.35355C271.26 7.44732 271.133 7.5 271 7.5Z" fill="#FFB895"/>
<path d="M288.5 13.5C288.367 13.5 288.24 13.4473 288.146 13.3536C288.053 13.2598 288 13.1326 288 13V12C288 11.8674 288.053 11.7402 288.146 11.6464C288.24 11.5527 288.367 11.5 288.5 11.5C288.633 11.5 288.76 11.5527 288.854 11.6464C288.947 11.7402 289 11.8674 289 12V13C289 13.1326 288.947 13.2598 288.854 13.3536C288.76 13.4473 288.633 13.5 288.5 13.5Z" fill="#FE691E"/>
<path d="M287 10C286.867 10 286.74 9.94732 286.646 9.85355C286.553 9.75979 286.5 9.63261 286.5 9.5V8.5C286.5 8.36739 286.553 8.24021 286.646 8.14645C286.74 8.05268 286.867 8 287 8C287.133 8 287.26 8.05268 287.354 8.14645C287.447 8.24021 287.5 8.36739 287.5 8.5V9.5C287.5 9.63261 287.447 9.75979 287.354 9.85355C287.26 9.94732 287.133 10 287 10Z" fill="#FF8D54"/>
<path d="M289 8.5C288.867 8.5 288.74 8.44732 288.646 8.35355C288.553 8.25979 288.5 8.13261 288.5 8V6.5C288.5 6.36739 288.553 6.24021 288.646 6.14645C288.74 6.05268 288.867 6 289 6C289.133 6 289.26 6.05268 289.354 6.14645C289.447 6.24021 289.5 6.36739 289.5 6.5V8C289.5 8.13261 289.447 8.25979 289.354 8.35355C289.26 8.44732 289.133 8.5 289 8.5Z" fill="#FFB895"/>
<path d="M306.928 20V8.48H317.44V9.776H308.224V13.584H315.632V14.896H308.224V20H306.928ZM320.347 20C319.995 20 319.669 19.9147 319.371 19.744C319.083 19.5733 318.853 19.344 318.683 19.056C318.512 18.7573 318.427 18.432 318.427 18.08V8.48H319.723V18.08C319.723 18.2507 319.781 18.4 319.899 18.528C320.027 18.6453 320.176 18.704 320.347 18.704H328.027C328.197 18.704 328.341 18.6453 328.459 18.528C328.587 18.4 328.651 18.2507 328.651 18.08V8.48H329.947V18.08C329.947 18.432 329.861 18.7573 329.691 19.056C329.52 19.344 329.285 19.5733 328.987 19.744C328.699 19.9147 328.379 20 328.027 20H320.347ZM336.253 20V9.776H331.133V8.48H342.653V9.776H337.549V20H336.253ZM345.737 20C345.385 20 345.06 19.9147 344.761 19.744C344.473 19.5733 344.244 19.344 344.073 19.056C343.902 18.7573 343.817 18.432 343.817 18.08V8.48H345.113V18.08C345.113 18.2507 345.172 18.4 345.289 18.528C345.417 18.6453 345.566 18.704 345.737 18.704H353.417C353.588 18.704 353.732 18.6453 353.849 18.528C353.977 18.4 354.041 18.2507 354.041 18.08V8.48H355.337V18.08C355.337 18.432 355.252 18.7573 355.081 19.056C354.91 19.344 354.676 19.5733 354.377 19.744C354.089 19.9147 353.769 20 353.417 20H345.737ZM366.827 20L363.067 15.52H364.763L368.539 19.984V20H366.827ZM357.099 20V8.496H366.699C367.051 8.496 367.371 8.58667 367.659 8.768C367.958 8.93867 368.192 9.168 368.363 9.456C368.534 9.744 368.619 10.064 368.619 10.416V13.792C368.619 14.144 368.534 14.464 368.363 14.752C368.192 15.04 367.958 15.2747 367.659 15.456C367.371 15.6267 367.051 15.712 366.699 15.712H358.395V20H357.099ZM359.019 14.4H366.699C366.87 14.4 367.014 14.3413 367.131 14.224C367.259 14.1067 367.323 13.9627 367.323 13.792V10.416C367.323 10.2453 367.259 10.1013 367.131 9.984C367.014 9.856 366.87 9.792 366.699 9.792H359.019C358.848 9.792 358.699 9.856 358.571 9.984C358.454 10.1013 358.395 10.2453 358.395 10.416V13.792C358.395 13.9627 358.454 14.1067 358.571 14.224C358.699 14.3413 358.848 14.4 359.019 14.4ZM370.334 20V8.48H380.846V9.776H371.63V13.584H379.038V14.896H371.63V18.704H380.846V20H370.334ZM388.8 20C388.448 20 388.122 19.9147 387.824 19.744C387.536 19.5733 387.306 19.344 387.136 19.056C386.965 18.7573 386.88 18.432 386.88 18.08V10.4C386.88 10.048 386.965 9.728 387.136 9.44C387.306 9.14133 387.536 8.90667 387.824 8.736C388.122 8.56533 388.448 8.48 388.8 8.48H396.48C396.832 8.48 397.152 8.56533 397.44 8.736C397.738 8.90667 397.973 9.14133 398.144 9.44C398.314 9.728 398.4 10.048 398.4 10.4V18.08C398.4 18.432 398.314 18.7573 398.144 19.056C397.973 19.344 397.738 19.5733 397.44 19.744C397.152 19.9147 396.832 20 396.48 20H388.8ZM388.8 18.704H396.48C396.65 18.704 396.794 18.6453 396.912 18.528C397.04 18.4 397.104 18.2507 397.104 18.08V10.4C397.104 10.2293 397.04 10.0853 396.912 9.968C396.794 9.84 396.65 9.776 396.48 9.776H388.8C388.629 9.776 388.48 9.84 388.352 9.968C388.234 10.0853 388.176 10.2293 388.176 10.4V18.08C388.176 18.2507 388.234 18.4 388.352 18.528C388.48 18.6453 388.629 18.704 388.8 18.704ZM400.194 20V8.48H410.706V9.776H401.49V13.584H408.898V14.896H401.49V20H400.194ZM416.116 20V8.48H426.628V9.776H417.412V13.584H424.82V14.896H417.412V18.704H426.628V20H416.116ZM430.174 20C429.822 20 429.496 19.9147 429.198 19.744C428.91 19.5733 428.68 19.344 428.51 19.056C428.339 18.7573 428.254 18.432 428.254 18.08V17.632H429.549V18.08C429.549 18.2507 429.608 18.4 429.726 18.528C429.854 18.6453 430.003 18.704 430.174 18.704H437.854C438.024 18.704 438.168 18.6453 438.286 18.528C438.414 18.4 438.478 18.2507 438.478 18.08V15.504C438.478 15.3333 438.414 15.1893 438.286 15.072C438.168 14.9547 438.024 14.896 437.854 14.896H430.174C429.822 14.896 429.496 14.8107 429.198 14.64C428.91 14.4587 428.68 14.224 428.51 13.936C428.339 13.648 428.254 13.328 428.254 12.976V10.4C428.254 10.048 428.339 9.728 428.51 9.44C428.68 9.14133 428.91 8.90667 429.198 8.736C429.496 8.56533 429.822 8.48 430.174 8.48H437.854C438.206 8.48 438.526 8.56533 438.814 8.736C439.112 8.90667 439.347 9.14133 439.518 9.44C439.688 9.728 439.774 10.048 439.774 10.4V10.848H438.478V10.4C438.478 10.2293 438.414 10.0853 438.286 9.968C438.168 9.84 438.024 9.776 437.854 9.776H430.174C430.003 9.776 429.854 9.84 429.726 9.968C429.608 10.0853 429.549 10.2293 429.549 10.4V12.976C429.549 13.1467 429.608 13.2907 429.726 13.408C429.854 13.5253 430.003 13.584 430.174 13.584H437.854C438.206 13.584 438.526 13.6747 438.814 13.856C439.112 14.0267 439.347 14.256 439.518 14.544C439.688 14.832 439.774 15.152 439.774 15.504V18.08C439.774 18.432 439.688 18.7573 439.518 19.056C439.347 19.344 439.112 19.5733 438.814 19.744C438.526 19.9147 438.206 20 437.854 20H430.174ZM441.49 20V8.496H451.09C451.442 8.496 451.762 8.58667 452.05 8.768C452.348 8.93867 452.583 9.168 452.754 9.456C452.924 9.744 453.01 10.064 453.01 10.416V13.792C453.01 14.144 452.924 14.464 452.754 14.752C452.583 15.04 452.348 15.2747 452.05 15.456C451.762 15.6267 451.442 15.712 451.09 15.712H442.786V20H441.49ZM443.41 14.4H451.09C451.26 14.4 451.404 14.3413 451.522 14.224C451.65 14.1067 451.714 13.9627 451.714 13.792V10.416C451.714 10.2453 451.65 10.1013 451.522 9.984C451.404 9.856 451.26 9.792 451.09 9.792H443.41C443.239 9.792 443.09 9.856 442.962 9.984C442.844 10.1013 442.786 10.2453 442.786 10.416V13.792C442.786 13.9627 442.844 14.1067 442.962 14.224C443.09 14.3413 443.239 14.4 443.41 14.4ZM456.034 20C455.682 20 455.357 19.9147 455.058 19.744C454.77 19.5733 454.541 19.344 454.37 19.056C454.199 18.7573 454.114 18.432 454.114 18.08V10.4C454.114 10.048 454.199 9.728 454.37 9.44C454.541 9.14133 454.77 8.90667 455.058 8.736C455.357 8.56533 455.682 8.48 456.034 8.48H463.714C464.066 8.48 464.386 8.56533 464.674 8.736C464.973 8.90667 465.207 9.14133 465.378 9.44C465.549 9.728 465.634 10.048 465.634 10.4V18.08C465.634 18.432 465.549 18.7573 465.378 19.056C465.207 19.344 464.973 19.5733 464.674 19.744C464.386 19.9147 464.066 20 463.714 20H456.034ZM456.034 18.704H463.714C463.885 18.704 464.029 18.6453 464.146 18.528C464.274 18.4 464.338 18.2507 464.338 18.08V10.4C464.338 10.2293 464.274 10.0853 464.146 9.968C464.029 9.84 463.885 9.776 463.714 9.776H456.034C455.863 9.776 455.714 9.84 455.586 9.968C455.469 10.0853 455.41 10.2293 455.41 10.4V18.08C455.41 18.2507 455.469 18.4 455.586 18.528C455.714 18.6453 455.863 18.704 456.034 18.704ZM477.124 20L473.364 15.52H475.06L478.836 19.984V20H477.124ZM467.396 20V8.496H476.996C477.348 8.496 477.668 8.58667 477.956 8.768C478.255 8.93867 478.489 9.168 478.66 9.456C478.831 9.744 478.916 10.064 478.916 10.416V13.792C478.916 14.144 478.831 14.464 478.66 14.752C478.489 15.04 478.255 15.2747 477.956 15.456C477.668 15.6267 477.348 15.712 476.996 15.712H468.692V20H467.396ZM469.316 14.4H476.996C477.167 14.4 477.311 14.3413 477.428 14.224C477.556 14.1067 477.62 13.9627 477.62 13.792V10.416C477.62 10.2453 477.556 10.1013 477.428 9.984C477.311 9.856 477.167 9.792 476.996 9.792H469.316C469.145 9.792 468.996 9.856 468.868 9.984C468.751 10.1013 468.692 10.2453 468.692 10.416V13.792C468.692 13.9627 468.751 14.1067 468.868 14.224C468.996 14.3413 469.145 14.4 469.316 14.4ZM485.143 20V9.776H480.023V8.48H491.543V9.776H486.439V20H485.143ZM494.58 20C494.228 20 493.902 19.9147 493.604 19.744C493.316 19.5733 493.086 19.344 492.916 19.056C492.745 18.7573 492.66 18.432 492.66 18.08V17.632H493.956V18.08C493.956 18.2507 494.014 18.4 494.132 18.528C494.26 18.6453 494.409 18.704 494.58 18.704H502.26C502.43 18.704 502.574 18.6453 502.692 18.528C502.82 18.4 502.884 18.2507 502.884 18.08V15.504C502.884 15.3333 502.82 15.1893 502.692 15.072C502.574 14.9547 502.43 14.896 502.26 14.896H494.58C494.228 14.896 493.902 14.8107 493.604 14.64C493.316 14.4587 493.086 14.224 492.916 13.936C492.745 13.648 492.66 13.328 492.66 12.976V10.4C492.66 10.048 492.745 9.728 492.916 9.44C493.086 9.14133 493.316 8.90667 493.604 8.736C493.902 8.56533 494.228 8.48 494.58 8.48H502.26C502.612 8.48 502.932 8.56533 503.22 8.736C503.518 8.90667 503.753 9.14133 503.924 9.44C504.094 9.728 504.18 10.048 504.18 10.4V10.848H502.884V10.4C502.884 10.2293 502.82 10.0853 502.692 9.968C502.574 9.84 502.43 9.776 502.26 9.776H494.58C494.409 9.776 494.26 9.84 494.132 9.968C494.014 10.0853 493.956 10.2293 493.956 10.4V12.976C493.956 13.1467 494.014 13.2907 494.132 13.408C494.26 13.5253 494.409 13.584 494.58 13.584H502.26C502.612 13.584 502.932 13.6747 503.22 13.856C503.518 14.0267 503.753 14.256 503.924 14.544C504.094 14.832 504.18 15.152 504.18 15.504V18.08C504.18 18.432 504.094 18.7573 503.924 19.056C503.753 19.344 503.518 19.5733 503.22 19.744C502.932 19.9147 502.612 20 502.26 20H494.58Z" fill="#57B8FF"/>
<path d="M51.9747 255C51.5347 255 51.128 254.893 50.7547 254.68C50.3947 254.467 50.108 254.18 49.8947 253.82C49.6814 253.447 49.5747 253.04 49.5747 252.6V252.04H51.1947V252.6C51.1947 252.813 51.268 253 51.4147 253.16C51.5747 253.307 51.7614 253.38 51.9747 253.38H61.5747C61.788 253.38 61.968 253.307 62.1147 253.16C62.2747 253 62.3547 252.813 62.3547 252.6V249.38C62.3547 249.167 62.2747 248.987 62.1147 248.84C61.968 248.693 61.788 248.62 61.5747 248.62H51.9747C51.5347 248.62 51.128 248.513 50.7547 248.3C50.3947 248.073 50.108 247.78 49.8947 247.42C49.6814 247.06 49.5747 246.66 49.5747 246.22V243C49.5747 242.56 49.6814 242.16 49.8947 241.8C50.108 241.427 50.3947 241.133 50.7547 240.92C51.128 240.707 51.5347 240.6 51.9747 240.6H61.5747C62.0147 240.6 62.4147 240.707 62.7747 240.92C63.148 241.133 63.4414 241.427 63.6547 241.8C63.868 242.16 63.9747 242.56 63.9747 243V243.56H62.3547V243C62.3547 242.787 62.2747 242.607 62.1147 242.46C61.968 242.3 61.788 242.22 61.5747 242.22H51.9747C51.7614 242.22 51.5747 242.3 51.4147 242.46C51.268 242.607 51.1947 242.787 51.1947 243V246.22C51.1947 246.433 51.268 246.613 51.4147 246.76C51.5747 246.907 51.7614 246.98 51.9747 246.98H61.5747C62.0147 246.98 62.4147 247.093 62.7747 247.32C63.148 247.533 63.4414 247.82 63.6547 248.18C63.868 248.54 63.9747 248.94 63.9747 249.38V252.6C63.9747 253.04 63.868 253.447 63.6547 253.82C63.4414 254.18 63.148 254.467 62.7747 254.68C62.4147 254.893 62.0147 255 61.5747 255H51.9747ZM68.44 255C68 255 67.5933 254.893 67.22 254.68C66.86 254.453 66.5667 254.16 66.34 253.8C66.1267 253.427 66.02 253.02 66.02 252.58V245.82C66.02 245.38 66.1267 244.98 66.34 244.62C66.5667 244.247 66.86 243.953 67.22 243.74C67.5933 243.513 68 243.4 68.44 243.4H75.4C75.8533 243.4 76.26 243.513 76.62 243.74C76.9933 243.953 77.2867 244.247 77.5 244.62C77.7267 244.98 77.84 245.38 77.84 245.82V250.02H67.66V252.58C67.66 252.793 67.7333 252.98 67.88 253.14C68.04 253.287 68.2267 253.36 68.44 253.36H77.84V255H68.44ZM67.66 248.38H76.18V245.82C76.18 245.607 76.1 245.427 75.94 245.28C75.7933 245.12 75.6133 245.04 75.4 245.04H68.44C68.2267 245.04 68.04 245.12 67.88 245.28C67.7333 245.427 67.66 245.607 67.66 245.82V248.38ZM81.7477 255C81.2943 255 80.881 254.893 80.5077 254.68C80.1477 254.453 79.8543 254.16 79.6277 253.8C79.4143 253.427 79.3077 253.02 79.3077 252.58V245.82C79.3077 245.38 79.4143 244.98 79.6277 244.62C79.8543 244.247 80.1477 243.953 80.5077 243.74C80.881 243.513 81.2943 243.4 81.7477 243.4H89.4877V239.6H91.1277V255H81.7477ZM81.7477 253.36H88.7077C88.921 253.36 89.101 253.287 89.2477 253.14C89.4077 252.98 89.4877 252.793 89.4877 252.58V245.82C89.4877 245.607 89.4077 245.427 89.2477 245.28C89.101 245.12 88.921 245.04 88.7077 245.04H81.7477C81.5343 245.04 81.3477 245.12 81.1877 245.28C81.041 245.427 80.9677 245.607 80.9677 245.82V252.58C80.9677 252.793 81.041 252.98 81.1877 253.14C81.3477 253.287 81.5343 253.36 81.7477 253.36ZM101.117 255C100.677 255 100.27 254.893 99.8967 254.68C99.5367 254.453 99.2434 254.16 99.0167 253.8C98.8034 253.427 98.6967 253.02 98.6967 252.58V243.4H100.337V252.58C100.337 252.793 100.41 252.98 100.557 253.14C100.717 253.287 100.903 253.36 101.117 253.36H108.077C108.29 253.36 108.477 253.287 108.637 253.14C108.797 252.98 108.877 252.793 108.877 252.58V243.4H110.517V252.58C110.517 253.02 110.403 253.427 110.177 253.8C109.963 254.16 109.67 254.453 109.297 254.68C108.937 254.893 108.53 255 108.077 255H101.117ZM114.73 255C114.277 255 113.863 254.893 113.49 254.68C113.13 254.453 112.843 254.16 112.63 253.8C112.417 253.427 112.31 253.02 112.31 252.58V239.6H113.95V243.4H118.97V245.04H113.95V252.58C113.95 252.793 114.023 252.98 114.17 253.14C114.33 253.287 114.517 253.36 114.73 253.36H118.97V255H114.73ZM125.982 259.6V243.4H135.382C135.822 243.4 136.222 243.513 136.582 243.74C136.956 243.953 137.249 244.247 137.462 244.62C137.689 244.98 137.802 245.38 137.802 245.82V252.58C137.802 253.02 137.689 253.427 137.462 253.8C137.249 254.16 136.956 254.453 136.582 254.68C136.222 254.893 135.822 255 135.382 255H127.622V259.6H125.982ZM128.422 253.36H135.382C135.596 253.36 135.776 253.287 135.922 253.14C136.082 252.98 136.162 252.793 136.162 252.58V245.82C136.162 245.607 136.082 245.427 135.922 245.28C135.776 245.12 135.596 245.04 135.382 245.04H128.422C128.209 245.04 128.022 245.12 127.862 245.28C127.702 245.427 127.622 245.607 127.622 245.82V252.58C127.622 252.793 127.702 252.98 127.862 253.14C128.022 253.287 128.209 253.36 128.422 253.36ZM141.624 255C141.184 255 140.777 254.893 140.404 254.68C140.044 254.453 139.75 254.16 139.524 253.8C139.31 253.427 139.204 253.02 139.204 252.58V245.82C139.204 245.38 139.31 244.98 139.524 244.62C139.75 244.247 140.044 243.953 140.404 243.74C140.777 243.513 141.184 243.4 141.624 243.4H148.584C149.037 243.4 149.444 243.513 149.804 243.74C150.177 243.953 150.47 244.247 150.684 244.62C150.91 244.98 151.024 245.38 151.024 245.82V250.02H140.844V252.58C140.844 252.793 140.917 252.98 141.064 253.14C141.224 253.287 141.41 253.36 141.624 253.36H151.024V255H141.624ZM140.844 248.38H149.364V245.82C149.364 245.607 149.284 245.427 149.124 245.28C148.977 245.12 148.797 245.04 148.584 245.04H141.624C141.41 245.04 141.224 245.12 141.064 245.28C140.917 245.427 140.844 245.607 140.844 245.82V248.38ZM152.974 255V245.82C152.974 245.38 153.08 244.98 153.294 244.62C153.52 244.247 153.814 243.953 154.174 243.74C154.547 243.513 154.954 243.4 155.394 243.4H161.914V245.04H155.394C155.18 245.04 154.994 245.12 154.834 245.28C154.687 245.427 154.614 245.607 154.614 245.82V255H152.974ZM165.548 255C165.108 255 164.701 254.893 164.328 254.68C163.968 254.453 163.675 254.16 163.448 253.8C163.235 253.427 163.128 253.02 163.128 252.58V252.42H164.768V252.58C164.768 252.793 164.841 252.98 164.988 253.14C165.148 253.287 165.335 253.36 165.548 253.36H172.508C172.721 253.36 172.901 253.287 173.048 253.14C173.208 252.98 173.288 252.793 173.288 252.58V250.8C173.288 250.587 173.208 250.407 173.048 250.26C172.901 250.1 172.721 250.02 172.508 250.02H165.548C165.108 250.02 164.701 249.913 164.328 249.7C163.968 249.473 163.675 249.18 163.448 248.82C163.235 248.447 163.128 248.04 163.128 247.6V245.82C163.128 245.38 163.235 244.98 163.448 244.62C163.675 244.247 163.968 243.953 164.328 243.74C164.701 243.513 165.108 243.4 165.548 243.4H172.508C172.961 243.4 173.368 243.513 173.728 243.74C174.101 243.953 174.395 244.247 174.608 244.62C174.835 244.98 174.948 245.38 174.948 245.82V245.98H173.288V245.82C173.288 245.607 173.208 245.427 173.048 245.28C172.901 245.12 172.721 245.04 172.508 245.04H165.548C165.335 245.04 165.148 245.12 164.988 245.28C164.841 245.427 164.768 245.607 164.768 245.82V247.6C164.768 247.813 164.841 248 164.988 248.16C165.148 248.307 165.335 248.38 165.548 248.38H172.508C172.961 248.38 173.368 248.493 173.728 248.72C174.101 248.933 174.395 249.227 174.608 249.6C174.835 249.96 174.948 250.36 174.948 250.8V252.58C174.948 253.02 174.835 253.427 174.608 253.8C174.395 254.16 174.101 254.453 173.728 254.68C173.368 254.893 172.961 255 172.508 255H165.548ZM176.959 259.6V243.4H186.359C186.799 243.4 187.199 243.513 187.559 243.74C187.932 243.953 188.226 244.247 188.439 244.62C188.666 244.98 188.779 245.38 188.779 245.82V252.58C188.779 253.02 188.666 253.427 188.439 253.8C188.226 254.16 187.932 254.453 187.559 254.68C187.199 254.893 186.799 255 186.359 255H178.599V259.6H176.959ZM179.399 253.36H186.359C186.572 253.36 186.752 253.287 186.899 253.14C187.059 252.98 187.139 252.793 187.139 252.58V245.82C187.139 245.607 187.059 245.427 186.899 245.28C186.752 245.12 186.572 245.04 186.359 245.04H179.399C179.186 245.04 178.999 245.12 178.839 245.28C178.679 245.427 178.599 245.607 178.599 245.82V252.58C178.599 252.793 178.679 252.98 178.839 253.14C178.999 253.287 179.186 253.36 179.399 253.36ZM190.493 255V243.4H192.133V255H190.493ZM190.493 241.24V239.6H192.133V241.24H190.493ZM196.76 255C196.32 255 195.914 254.893 195.54 254.68C195.18 254.453 194.887 254.16 194.66 253.8C194.447 253.427 194.34 253.02 194.34 252.58V245.82C194.34 245.38 194.447 244.98 194.66 244.62C194.887 244.247 195.18 243.953 195.54 243.74C195.914 243.513 196.32 243.4 196.76 243.4H206.12V245.04H196.76C196.547 245.04 196.36 245.12 196.2 245.28C196.054 245.427 195.98 245.607 195.98 245.82V252.58C195.98 252.793 196.054 252.98 196.2 253.14C196.36 253.287 196.547 253.36 196.76 253.36H206.16V255H196.76ZM208.267 255V243.4H209.907V255H208.267ZM208.267 241.24V239.6H209.907V241.24H208.267ZM214.144 255C213.704 255 213.297 254.893 212.924 254.68C212.564 254.453 212.27 254.16 212.044 253.8C211.83 253.427 211.724 253.02 211.724 252.58V248.38H221.884V245.82C221.884 245.607 221.804 245.427 221.644 245.28C221.497 245.12 221.317 245.04 221.104 245.04H211.724V243.4H221.104C221.557 243.4 221.964 243.513 222.324 243.74C222.697 243.953 222.99 244.247 223.204 244.62C223.43 244.98 223.544 245.38 223.544 245.82V255H214.144ZM214.144 253.36H221.884V250.02H213.364V252.58C213.364 252.793 213.437 252.98 213.584 253.14C213.744 253.287 213.93 253.36 214.144 253.36ZM228.05 255C227.597 255 227.184 254.893 226.81 254.68C226.45 254.453 226.164 254.16 225.95 253.8C225.737 253.427 225.63 253.02 225.63 252.58V239.6H227.27V243.4H232.29V245.04H227.27V252.58C227.27 252.793 227.344 252.98 227.49 253.14C227.65 253.287 227.837 253.36 228.05 253.36H232.29V255H228.05ZM233.911 255V243.4H235.551V255H233.911ZM233.911 241.24V239.6H235.551V241.24H233.911ZM240.411 255C239.971 255 239.565 254.893 239.191 254.68C238.831 254.453 238.538 254.16 238.311 253.8C238.098 253.427 237.991 253.02 237.991 252.58V252.42H239.631V252.58C239.631 252.793 239.705 252.98 239.851 253.14C240.011 253.287 240.198 253.36 240.411 253.36H247.371C247.585 253.36 247.765 253.287 247.911 253.14C248.071 252.98 248.151 252.793 248.151 252.58V250.8C248.151 250.587 248.071 250.407 247.911 250.26C247.765 250.1 247.585 250.02 247.371 250.02H240.411C239.971 250.02 239.565 249.913 239.191 249.7C238.831 249.473 238.538 249.18 238.311 248.82C238.098 248.447 237.991 248.04 237.991 247.6V245.82C237.991 245.38 238.098 244.98 238.311 244.62C238.538 244.247 238.831 243.953 239.191 243.74C239.565 243.513 239.971 243.4 240.411 243.4H247.371C247.825 243.4 248.231 243.513 248.591 243.74C248.965 243.953 249.258 244.247 249.471 244.62C249.698 244.98 249.811 245.38 249.811 245.82V245.98H248.151V245.82C248.151 245.607 248.071 245.427 247.911 245.28C247.765 245.12 247.585 245.04 247.371 245.04H240.411C240.198 245.04 240.011 245.12 239.851 245.28C239.705 245.427 239.631 245.607 239.631 245.82V247.6C239.631 247.813 239.705 248 239.851 248.16C240.011 248.307 240.198 248.38 240.411 248.38H247.371C247.825 248.38 248.231 248.493 248.591 248.72C248.965 248.933 249.258 249.227 249.471 249.6C249.698 249.96 249.811 250.36 249.811 250.8V252.58C249.811 253.02 249.698 253.427 249.471 253.8C249.258 254.16 248.965 254.453 248.591 254.68C248.231 254.893 247.825 255 247.371 255H240.411ZM259.671 255C259.231 255 258.825 254.893 258.451 254.68C258.091 254.453 257.798 254.16 257.571 253.8C257.358 253.427 257.251 253.02 257.251 252.58V243.4H258.891V252.58C258.891 252.793 258.965 252.98 259.111 253.14C259.271 253.287 259.458 253.36 259.671 253.36H266.631C266.845 253.36 267.031 253.287 267.191 253.14C267.351 252.98 267.431 252.793 267.431 252.58V243.4H269.071V252.58C269.071 253.02 268.958 253.427 268.731 253.8C268.518 254.16 268.225 254.453 267.851 254.68C267.491 254.893 267.085 255 266.631 255H259.671ZM271.275 255V243.4H280.675C281.115 243.4 281.515 243.513 281.875 243.74C282.249 243.953 282.542 244.247 282.755 244.62C282.982 244.98 283.095 245.38 283.095 245.82V255H281.455V245.82C281.455 245.607 281.375 245.427 281.215 245.28C281.069 245.12 280.889 245.04 280.675 245.04H273.715C273.502 245.04 273.315 245.12 273.155 245.28C272.995 245.427 272.915 245.607 272.915 245.82V255H271.275ZM287.021 255C286.568 255 286.154 254.893 285.781 254.68C285.421 254.453 285.128 254.16 284.901 253.8C284.688 253.427 284.581 253.02 284.581 252.58V245.82C284.581 245.38 284.688 244.98 284.901 244.62C285.128 244.247 285.421 243.953 285.781 243.74C286.154 243.513 286.568 243.4 287.021 243.4H294.761V239.6H296.401V255H287.021ZM287.021 253.36H293.981C294.194 253.36 294.374 253.287 294.521 253.14C294.681 252.98 294.761 252.793 294.761 252.58V245.82C294.761 245.607 294.681 245.427 294.521 245.28C294.374 245.12 294.194 245.04 293.981 245.04H287.021C286.808 245.04 286.621 245.12 286.461 245.28C286.314 245.427 286.241 245.607 286.241 245.82V252.58C286.241 252.793 286.314 252.98 286.461 253.14C286.621 253.287 286.808 253.36 287.021 253.36ZM300.51 255C300.07 255 299.664 254.893 299.29 254.68C298.93 254.453 298.637 254.16 298.41 253.8C298.197 253.427 298.09 253.02 298.09 252.58V245.82C298.09 245.38 298.197 244.98 298.41 244.62C298.637 244.247 298.93 243.953 299.29 243.74C299.664 243.513 300.07 243.4 300.51 243.4H307.47C307.924 243.4 308.33 243.513 308.69 243.74C309.064 243.953 309.357 244.247 309.57 244.62C309.797 244.98 309.91 245.38 309.91 245.82V250.02H299.73V252.58C299.73 252.793 299.804 252.98 299.95 253.14C300.11 253.287 300.297 253.36 300.51 253.36H309.91V255H300.51ZM299.73 248.38H308.25V245.82C308.25 245.607 308.17 245.427 308.01 245.28C307.864 245.12 307.684 245.04 307.47 245.04H300.51C300.297 245.04 300.11 245.12 299.95 245.28C299.804 245.427 299.73 245.607 299.73 245.82V248.38ZM319.807 255C319.367 255 318.961 254.893 318.587 254.68C318.227 254.453 317.934 254.16 317.707 253.8C317.494 253.427 317.387 253.02 317.387 252.58V245.82C317.387 245.38 317.494 244.98 317.707 244.62C317.934 244.247 318.227 243.953 318.587 243.74C318.961 243.513 319.367 243.4 319.807 243.4H326.767C327.221 243.4 327.627 243.513 327.987 243.74C328.361 243.953 328.654 244.247 328.867 244.62C329.094 244.98 329.207 245.38 329.207 245.82V252.58C329.207 253.02 329.094 253.427 328.867 253.8C328.654 254.16 328.361 254.453 327.987 254.68C327.627 254.893 327.221 255 326.767 255H319.807ZM319.807 253.36H326.767C326.981 253.36 327.161 253.287 327.307 253.14C327.467 252.98 327.547 252.793 327.547 252.58V245.82C327.547 245.607 327.467 245.427 327.307 245.28C327.161 245.12 326.981 245.04 326.767 245.04H319.807C319.594 245.04 319.407 245.12 319.247 245.28C319.101 245.427 319.027 245.607 319.027 245.82V252.58C319.027 252.793 319.101 252.98 319.247 253.14C319.407 253.287 319.594 253.36 319.807 253.36ZM331.295 255V243.4H346.615C347.068 243.4 347.475 243.513 347.835 243.74C348.208 243.953 348.502 244.247 348.715 244.62C348.928 244.98 349.035 245.38 349.035 245.82V255H347.415V245.82C347.415 245.607 347.335 245.427 347.175 245.28C347.015 245.12 346.828 245.04 346.615 245.04H341.795C341.582 245.04 341.395 245.12 341.235 245.28C341.088 245.427 341.015 245.607 341.015 245.82V255H339.355V245.82C339.355 245.607 339.275 245.427 339.115 245.28C338.968 245.12 338.788 245.04 338.575 245.04H333.735C333.522 245.04 333.335 245.12 333.175 245.28C333.028 245.427 332.955 245.607 332.955 245.82V255H331.295ZM350.846 255V243.4H360.246C360.686 243.4 361.086 243.513 361.446 243.74C361.819 243.953 362.112 244.247 362.326 244.62C362.552 244.98 362.666 245.38 362.666 245.82V255H361.026V245.82C361.026 245.607 360.946 245.427 360.786 245.28C360.639 245.12 360.459 245.04 360.246 245.04H353.286C353.072 245.04 352.886 245.12 352.726 245.28C352.566 245.427 352.486 245.607 352.486 245.82V255H350.846ZM364.731 255V243.4H366.371V255H364.731ZM364.731 241.24V239.6H366.371V241.24H364.731ZM371.232 255C370.792 255 370.385 254.893 370.012 254.68C369.652 254.453 369.358 254.16 369.132 253.8C368.918 253.427 368.812 253.02 368.812 252.58V252.42H370.452V252.58C370.452 252.793 370.525 252.98 370.672 253.14C370.832 253.287 371.018 253.36 371.232 253.36H378.192C378.405 253.36 378.585 253.287 378.732 253.14C378.892 252.98 378.972 252.793 378.972 252.58V250.8C378.972 250.587 378.892 250.407 378.732 250.26C378.585 250.1 378.405 250.02 378.192 250.02H371.232C370.792 250.02 370.385 249.913 370.012 249.7C369.652 249.473 369.358 249.18 369.132 248.82C368.918 248.447 368.812 248.04 368.812 247.6V245.82C368.812 245.38 368.918 244.98 369.132 244.62C369.358 244.247 369.652 243.953 370.012 243.74C370.385 243.513 370.792 243.4 371.232 243.4H378.192C378.645 243.4 379.052 243.513 379.412 243.74C379.785 243.953 380.078 244.247 380.292 244.62C380.518 244.98 380.632 245.38 380.632 245.82V245.98H378.972V245.82C378.972 245.607 378.892 245.427 378.732 245.28C378.585 245.12 378.405 245.04 378.192 245.04H371.232C371.018 245.04 370.832 245.12 370.672 245.28C370.525 245.427 370.452 245.607 370.452 245.82V247.6C370.452 247.813 370.525 248 370.672 248.16C370.832 248.307 371.018 248.38 371.232 248.38H378.192C378.645 248.38 379.052 248.493 379.412 248.72C379.785 248.933 380.078 249.227 380.292 249.6C380.518 249.96 380.632 250.36 380.632 250.8V252.58C380.632 253.02 380.518 253.427 380.292 253.8C380.078 254.16 379.785 254.453 379.412 254.68C379.052 254.893 378.645 255 378.192 255H371.232ZM388.052 255V243.4H389.692V255H388.052ZM388.052 241.24V239.6H389.692V241.24H388.052ZM394.552 255C394.112 255 393.705 254.893 393.332 254.68C392.972 254.453 392.679 254.16 392.452 253.8C392.239 253.427 392.132 253.02 392.132 252.58V252.42H393.772V252.58C393.772 252.793 393.845 252.98 393.992 253.14C394.152 253.287 394.339 253.36 394.552 253.36H401.512C401.725 253.36 401.905 253.287 402.052 253.14C402.212 252.98 402.292 252.793 402.292 252.58V250.8C402.292 250.587 402.212 250.407 402.052 250.26C401.905 250.1 401.725 250.02 401.512 250.02H394.552C394.112 250.02 393.705 249.913 393.332 249.7C392.972 249.473 392.679 249.18 392.452 248.82C392.239 248.447 392.132 248.04 392.132 247.6V245.82C392.132 245.38 392.239 244.98 392.452 244.62C392.679 244.247 392.972 243.953 393.332 243.74C393.705 243.513 394.112 243.4 394.552 243.4H401.512C401.965 243.4 402.372 243.513 402.732 243.74C403.105 243.953 403.399 244.247 403.612 244.62C403.839 244.98 403.952 245.38 403.952 245.82V245.98H402.292V245.82C402.292 245.607 402.212 245.427 402.052 245.28C401.905 245.12 401.725 245.04 401.512 245.04H394.552C394.339 245.04 394.152 245.12 393.992 245.28C393.845 245.427 393.772 245.607 393.772 245.82V247.6C393.772 247.813 393.845 248 393.992 248.16C394.152 248.307 394.339 248.38 394.552 248.38H401.512C401.965 248.38 402.372 248.493 402.732 248.72C403.105 248.933 403.399 249.227 403.612 249.6C403.839 249.96 403.952 250.36 403.952 250.8V252.58C403.952 253.02 403.839 253.427 403.612 253.8C403.399 254.16 403.105 254.453 402.732 254.68C402.372 254.893 401.965 255 401.512 255H394.552ZM408.363 255C407.909 255 407.496 254.893 407.123 254.68C406.763 254.453 406.476 254.16 406.263 253.8C406.049 253.427 405.943 253.02 405.943 252.58V239.6H407.583V243.4H412.603V245.04H407.583V252.58C407.583 252.793 407.656 252.98 407.803 253.14C407.963 253.287 408.149 253.36 408.363 253.36H412.603V255H408.363ZM416.526 255C416.086 255 415.679 254.893 415.306 254.68C414.946 254.453 414.653 254.16 414.426 253.8C414.213 253.427 414.106 253.02 414.106 252.58V245.82C414.106 245.38 414.213 244.98 414.426 244.62C414.653 244.247 414.946 243.953 415.306 243.74C415.679 243.513 416.086 243.4 416.526 243.4H423.486C423.939 243.4 424.346 243.513 424.706 243.74C425.079 243.953 425.373 244.247 425.586 244.62C425.813 244.98 425.926 245.38 425.926 245.82V250.02H415.746V252.58C415.746 252.793 415.819 252.98 415.966 253.14C416.126 253.287 416.313 253.36 416.526 253.36H425.926V255H416.526ZM415.746 248.38H424.266V245.82C424.266 245.607 424.186 245.427 424.026 245.28C423.879 245.12 423.699 245.04 423.486 245.04H416.526C416.313 245.04 416.126 245.12 415.966 245.28C415.819 245.427 415.746 245.607 415.746 245.82V248.38ZM433.463 255V243.4H442.863C443.303 243.4 443.703 243.513 444.063 243.74C444.436 243.953 444.729 244.247 444.943 244.62C445.169 244.98 445.283 245.38 445.283 245.82V255H443.643V245.82C443.643 245.607 443.563 245.427 443.403 245.28C443.256 245.12 443.076 245.04 442.863 245.04H435.903C435.689 245.04 435.503 245.12 435.343 245.28C435.183 245.427 435.103 245.607 435.103 245.82V255H433.463ZM449.769 255C449.329 255 448.922 254.893 448.549 254.68C448.189 254.453 447.895 254.16 447.669 253.8C447.455 253.427 447.349 253.02 447.349 252.58V248.38H457.509V245.82C457.509 245.607 457.429 245.427 457.269 245.28C457.122 245.12 456.942 245.04 456.729 245.04H447.349V243.4H456.729C457.182 243.4 457.589 243.513 457.949 243.74C458.322 243.953 458.615 244.247 458.829 244.62C459.055 244.98 459.169 245.38 459.169 245.82V255H449.769ZM449.769 253.36H457.509V250.02H448.989V252.58C448.989 252.793 449.062 252.98 449.209 253.14C449.369 253.287 449.555 253.36 449.769 253.36ZM463.675 255C463.222 255 462.809 254.893 462.435 254.68C462.075 254.453 461.789 254.16 461.575 253.8C461.362 253.427 461.255 253.02 461.255 252.58V239.6H462.895V243.4H467.915V245.04H462.895V252.58C462.895 252.793 462.969 252.98 463.115 253.14C463.275 253.287 463.462 253.36 463.675 253.36H467.915V255H463.675ZM471.878 255C471.438 255 471.032 254.893 470.658 254.68C470.298 254.453 470.005 254.16 469.778 253.8C469.565 253.427 469.458 253.02 469.458 252.58V243.4H471.098V252.58C471.098 252.793 471.172 252.98 471.318 253.14C471.478 253.287 471.665 253.36 471.878 253.36H478.838C479.052 253.36 479.238 253.287 479.398 253.14C479.558 252.98 479.638 252.793 479.638 252.58V243.4H481.278V252.58C481.278 253.02 481.165 253.427 480.938 253.8C480.725 254.16 480.432 254.453 480.058 254.68C479.698 254.893 479.292 255 478.838 255H471.878ZM485.392 255C484.952 255 484.545 254.893 484.172 254.68C483.812 254.453 483.518 254.16 483.292 253.8C483.078 253.427 482.972 253.02 482.972 252.58V252.42H484.612V252.58C484.612 252.793 484.685 252.98 484.832 253.14C484.992 253.287 485.178 253.36 485.392 253.36H492.352C492.565 253.36 492.745 253.287 492.892 253.14C493.052 252.98 493.132 252.793 493.132 252.58V250.8C493.132 250.587 493.052 250.407 492.892 250.26C492.745 250.1 492.565 250.02 492.352 250.02H485.392C484.952 250.02 484.545 249.913 484.172 249.7C483.812 249.473 483.518 249.18 483.292 248.82C483.078 248.447 482.972 248.04 482.972 247.6V245.82C482.972 245.38 483.078 244.98 483.292 244.62C483.518 244.247 483.812 243.953 484.172 243.74C484.545 243.513 484.952 243.4 485.392 243.4H492.352C492.805 243.4 493.212 243.513 493.572 243.74C493.945 243.953 494.238 244.247 494.452 244.62C494.678 244.98 494.792 245.38 494.792 245.82V245.98H493.132V245.82C493.132 245.607 493.052 245.427 492.892 245.28C492.745 245.12 492.565 245.04 492.352 245.04H485.392C485.178 245.04 484.992 245.12 484.832 245.28C484.685 245.427 484.612 245.607 484.612 245.82V247.6C484.612 247.813 484.685 248 484.832 248.16C484.992 248.307 485.178 248.38 485.392 248.38H492.352C492.805 248.38 493.212 248.493 493.572 248.72C493.945 248.933 494.238 249.227 494.452 249.6C494.678 249.96 494.792 250.36 494.792 250.8V252.58C494.792 253.02 494.678 253.427 494.452 253.8C494.238 254.16 493.945 254.453 493.572 254.68C493.212 254.893 492.805 255 492.352 255H485.392ZM504.612 255C504.172 255 503.765 254.893 503.392 254.68C503.032 254.453 502.739 254.16 502.512 253.8C502.299 253.427 502.192 253.02 502.192 252.58V245.82C502.192 245.38 502.299 244.98 502.512 244.62C502.739 244.247 503.032 243.953 503.392 243.74C503.765 243.513 504.172 243.4 504.612 243.4H511.572C512.025 243.4 512.432 243.513 512.792 243.74C513.165 243.953 513.459 244.247 513.672 244.62C513.899 244.98 514.012 245.38 514.012 245.82V250.02H503.832V252.58C503.832 252.793 503.905 252.98 504.052 253.14C504.212 253.287 504.399 253.36 504.612 253.36H514.012V255H504.612ZM503.832 248.38H512.352V245.82C512.352 245.607 512.272 245.427 512.112 245.28C511.965 245.12 511.785 245.04 511.572 245.04H504.612C504.399 245.04 504.212 245.12 504.052 245.28C503.905 245.427 503.832 245.607 503.832 245.82V248.38ZM515.962 255V245.82C515.962 245.38 516.069 244.98 516.282 244.62C516.509 244.247 516.802 243.953 517.162 243.74C517.535 243.513 517.942 243.4 518.382 243.4H524.902V245.04H518.382C518.169 245.04 517.982 245.12 517.822 245.28C517.675 245.427 517.602 245.607 517.602 245.82V255H515.962ZM526.196 255V245.82C526.196 245.38 526.303 244.98 526.516 244.62C526.743 244.247 527.036 243.953 527.396 243.74C527.77 243.513 528.176 243.4 528.616 243.4H535.136V245.04H528.616C528.403 245.04 528.216 245.12 528.056 245.28C527.91 245.427 527.836 245.607 527.836 245.82V255H526.196ZM538.733 255C538.293 255 537.886 254.893 537.513 254.68C537.153 254.453 536.86 254.16 536.633 253.8C536.42 253.427 536.313 253.02 536.313 252.58V245.82C536.313 245.38 536.42 244.98 536.633 244.62C536.86 244.247 537.153 243.953 537.513 243.74C537.886 243.513 538.293 243.4 538.733 243.4H545.693C546.146 243.4 546.553 243.513 546.913 243.74C547.286 243.953 547.58 244.247 547.793 244.62C548.02 244.98 548.133 245.38 548.133 245.82V252.58C548.133 253.02 548.02 253.427 547.793 253.8C547.58 254.16 547.286 254.453 546.913 254.68C546.553 254.893 546.146 255 545.693 255H538.733ZM538.733 253.36H545.693C545.906 253.36 546.086 253.287 546.233 253.14C546.393 252.98 546.473 252.793 546.473 252.58V245.82C546.473 245.607 546.393 245.427 546.233 245.28C546.086 245.12 545.906 245.04 545.693 245.04H538.733C538.52 245.04 538.333 245.12 538.173 245.28C538.026 245.427 537.953 245.607 537.953 245.82V252.58C537.953 252.793 538.026 252.98 538.173 253.14C538.333 253.287 538.52 253.36 538.733 253.36ZM549.985 255V245.82C549.985 245.38 550.092 244.98 550.305 244.62C550.532 244.247 550.825 243.953 551.185 243.74C551.559 243.513 551.965 243.4 552.405 243.4H558.925V245.04H552.405C552.192 245.04 552.005 245.12 551.845 245.28C551.699 245.427 551.625 245.607 551.625 245.82V255H549.985ZM568.009 255C567.569 255 567.162 254.893 566.789 254.68C566.429 254.453 566.136 254.16 565.909 253.8C565.696 253.427 565.589 253.02 565.589 252.58V252.42H567.229V252.58C567.229 252.793 567.302 252.98 567.449 253.14C567.609 253.287 567.796 253.36 568.009 253.36H574.969C575.182 253.36 575.362 253.287 575.509 253.14C575.669 252.98 575.749 252.793 575.749 252.58V250.8C575.749 250.587 575.669 250.407 575.509 250.26C575.362 250.1 575.182 250.02 574.969 250.02H568.009C567.569 250.02 567.162 249.913 566.789 249.7C566.429 249.473 566.136 249.18 565.909 248.82C565.696 248.447 565.589 248.04 565.589 247.6V245.82C565.589 245.38 565.696 244.98 565.909 244.62C566.136 244.247 566.429 243.953 566.789 243.74C567.162 243.513 567.569 243.4 568.009 243.4H574.969C575.422 243.4 575.829 243.513 576.189 243.74C576.562 243.953 576.856 244.247 577.069 244.62C577.296 244.98 577.409 245.38 577.409 245.82V245.98H575.749V245.82C575.749 245.607 575.669 245.427 575.509 245.28C575.362 245.12 575.182 245.04 574.969 245.04H568.009C567.796 245.04 567.609 245.12 567.449 245.28C567.302 245.427 567.229 245.607 567.229 245.82V247.6C567.229 247.813 567.302 248 567.449 248.16C567.609 248.307 567.796 248.38 568.009 248.38H574.969C575.422 248.38 575.829 248.493 576.189 248.72C576.562 248.933 576.856 249.227 577.069 249.6C577.296 249.96 577.409 250.36 577.409 250.8V252.58C577.409 253.02 577.296 253.427 577.069 253.8C576.856 254.16 576.562 254.453 576.189 254.68C575.829 254.893 575.422 255 574.969 255H568.009ZM579.38 255V243.4H581.02V255H579.38ZM579.38 241.24V239.6H581.02V241.24H579.38ZM585.98 255C585.527 255 585.113 254.893 584.74 254.68C584.38 254.453 584.093 254.16 583.88 253.8C583.667 253.427 583.56 253.02 583.56 252.58V239.6H585.2V243.4H590.22V245.04H585.2V252.58C585.2 252.793 585.273 252.98 585.42 253.14C585.58 253.287 585.767 253.36 585.98 253.36H590.22V255H585.98ZM602.972 255L596.572 243.4H598.492L603.932 253.4L609.372 243.4H611.292L604.872 255H602.972ZM614.807 255C614.367 255 613.961 254.893 613.587 254.68C613.227 254.453 612.934 254.16 612.707 253.8C612.494 253.427 612.387 253.02 612.387 252.58V245.82C612.387 245.38 612.494 244.98 612.707 244.62C612.934 244.247 613.227 243.953 613.587 243.74C613.961 243.513 614.367 243.4 614.807 243.4H621.767C622.221 243.4 622.627 243.513 622.987 243.74C623.361 243.953 623.654 244.247 623.867 244.62C624.094 244.98 624.207 245.38 624.207 245.82V252.58C624.207 253.02 624.094 253.427 623.867 253.8C623.654 254.16 623.361 254.453 622.987 254.68C622.627 254.893 622.221 255 621.767 255H614.807ZM614.807 253.36H621.767C621.981 253.36 622.161 253.287 622.307 253.14C622.467 252.98 622.547 252.793 622.547 252.58V245.82C622.547 245.607 622.467 245.427 622.307 245.28C622.161 245.12 621.981 245.04 621.767 245.04H614.807C614.594 245.04 614.407 245.12 614.247 245.28C614.101 245.427 614.027 245.607 614.027 245.82V252.58C614.027 252.793 614.101 252.98 614.247 253.14C614.407 253.287 614.594 253.36 614.807 253.36ZM628.284 255C627.844 255 627.438 254.893 627.064 254.68C626.704 254.453 626.411 254.16 626.184 253.8C625.971 253.427 625.864 253.02 625.864 252.58V239.6H627.504V252.58C627.504 252.793 627.578 252.98 627.724 253.14C627.884 253.287 628.071 253.36 628.284 253.36H630.244V255H628.284ZM634.339 255C633.899 255 633.493 254.893 633.119 254.68C632.759 254.453 632.466 254.16 632.239 253.8C632.026 253.427 631.919 253.02 631.919 252.58V243.4H633.559V252.58C633.559 252.793 633.633 252.98 633.779 253.14C633.939 253.287 634.126 253.36 634.339 253.36H641.299C641.513 253.36 641.699 253.287 641.859 253.14C642.019 252.98 642.099 252.793 642.099 252.58V243.4H643.739V252.58C643.739 253.02 643.626 253.427 643.399 253.8C643.186 254.16 642.893 254.453 642.519 254.68C642.159 254.893 641.753 255 641.299 255H634.339ZM645.553 259.6V243.4H654.953C655.393 243.4 655.793 243.513 656.153 243.74C656.526 243.953 656.819 244.247 657.033 244.62C657.259 244.98 657.373 245.38 657.373 245.82V252.58C657.373 253.02 657.259 253.427 657.033 253.8C656.819 254.16 656.526 254.453 656.153 254.68C655.793 254.893 655.393 255 654.953 255H647.193V259.6H645.553ZM647.993 253.36H654.953C655.166 253.36 655.346 253.287 655.493 253.14C655.653 252.98 655.733 252.793 655.733 252.58V245.82C655.733 245.607 655.653 245.427 655.493 245.28C655.346 245.12 655.166 245.04 654.953 245.04H647.993C647.779 245.04 647.593 245.12 647.433 245.28C647.273 245.427 647.193 245.607 647.193 245.82V252.58C647.193 252.793 647.273 252.98 647.433 253.14C647.593 253.287 647.779 253.36 647.993 253.36ZM661.234 255C660.781 255 660.367 254.893 659.994 254.68C659.634 254.453 659.347 254.16 659.134 253.8C658.921 253.427 658.814 253.02 658.814 252.58V239.6H660.454V243.4H665.474V245.04H660.454V252.58C660.454 252.793 660.527 252.98 660.674 253.14C660.834 253.287 661.021 253.36 661.234 253.36H665.474V255H661.234ZM669.417 255C668.977 255 668.57 254.893 668.197 254.68C667.837 254.453 667.544 254.16 667.317 253.8C667.104 253.427 666.997 253.02 666.997 252.58V248.38H677.157V245.82C677.157 245.607 677.077 245.427 676.917 245.28C676.77 245.12 676.59 245.04 676.377 245.04H666.997V243.4H676.377C676.83 243.4 677.237 243.513 677.597 243.74C677.97 243.953 678.264 244.247 678.477 244.62C678.704 244.98 678.817 245.38 678.817 245.82V255H669.417ZM669.417 253.36H677.157V250.02H668.637V252.58C668.637 252.793 668.71 252.98 668.857 253.14C669.017 253.287 669.204 253.36 669.417 253.36ZM683.324 255C682.87 255 682.457 254.893 682.084 254.68C681.724 254.453 681.437 254.16 681.224 253.8C681.01 253.427 680.904 253.02 680.904 252.58V239.6H682.544V243.4H687.564V245.04H682.544V252.58C682.544 252.793 682.617 252.98 682.764 253.14C682.924 253.287 683.11 253.36 683.324 253.36H687.564V255H683.324ZM691.487 255C691.047 255 690.64 254.893 690.267 254.68C689.907 254.453 689.614 254.16 689.387 253.8C689.174 253.427 689.067 253.02 689.067 252.58V245.82C689.067 245.38 689.174 244.98 689.387 244.62C689.614 244.247 689.907 243.953 690.267 243.74C690.64 243.513 691.047 243.4 691.487 243.4H698.447C698.9 243.4 699.307 243.513 699.667 243.74C700.04 243.953 700.334 244.247 700.547 244.62C700.774 244.98 700.887 245.38 700.887 245.82V250.02H690.707V252.58C690.707 252.793 690.78 252.98 690.927 253.14C691.087 253.287 691.274 253.36 691.487 253.36H700.887V255H691.487ZM690.707 248.38H699.227V245.82C699.227 245.607 699.147 245.427 698.987 245.28C698.84 245.12 698.66 245.04 698.447 245.04H691.487C691.274 245.04 691.087 245.12 690.927 245.28C690.78 245.427 690.707 245.607 690.707 245.82V248.38ZM702.975 255V243.4H718.295C718.748 243.4 719.155 243.513 719.515 243.74C719.888 243.953 720.181 244.247 720.395 244.62C720.608 244.98 720.715 245.38 720.715 245.82V255H719.095V245.82C719.095 245.607 719.015 245.427 718.855 245.28C718.695 245.12 718.508 245.04 718.295 245.04H713.475C713.261 245.04 713.075 245.12 712.915 245.28C712.768 245.427 712.695 245.607 712.695 245.82V255H711.035V245.82C711.035 245.607 710.955 245.427 710.795 245.28C710.648 245.12 710.468 245.04 710.255 245.04H705.415C705.201 245.04 705.015 245.12 704.855 245.28C704.708 245.427 704.635 245.607 704.635 245.82V255H702.975ZM80.1397 287C79.6997 287 79.293 286.893 78.9197 286.68C78.5597 286.453 78.2664 286.16 78.0397 285.8C77.8264 285.427 77.7197 285.02 77.7197 284.58V280.38H87.8797V277.82C87.8797 277.607 87.7997 277.427 87.6397 277.28C87.493 277.12 87.313 277.04 87.0997 277.04H77.7197V275.4H87.0997C87.553 275.4 87.9597 275.513 88.3197 275.74C88.693 275.953 88.9864 276.247 89.1997 276.62C89.4264 276.98 89.5397 277.38 89.5397 277.82V287H80.1397ZM80.1397 285.36H87.8797V282.02H79.3597V284.58C79.3597 284.793 79.433 284.98 79.5797 285.14C79.7397 285.287 79.9264 285.36 80.1397 285.36ZM93.8111 287C93.3711 287 92.9644 286.893 92.5911 286.68C92.2311 286.453 91.9378 286.16 91.7111 285.8C91.4978 285.427 91.3911 285.02 91.3911 284.58V277.82C91.3911 277.38 91.4978 276.98 91.7111 276.62C91.9378 276.247 92.2311 275.953 92.5911 275.74C92.9644 275.513 93.3711 275.4 93.8111 275.4H103.171V277.04H93.8111C93.5978 277.04 93.4111 277.12 93.2511 277.28C93.1044 277.427 93.0311 277.607 93.0311 277.82V284.58C93.0311 284.793 93.1044 284.98 93.2511 285.14C93.4111 285.287 93.5978 285.36 93.8111 285.36H103.211V287H93.8111ZM107.717 287C107.277 287 106.871 286.893 106.497 286.68C106.137 286.453 105.844 286.16 105.617 285.8C105.404 285.427 105.297 285.02 105.297 284.58V277.82C105.297 277.38 105.404 276.98 105.617 276.62C105.844 276.247 106.137 275.953 106.497 275.74C106.871 275.513 107.277 275.4 107.717 275.4H117.077V277.04H107.717C107.504 277.04 107.317 277.12 107.157 277.28C107.011 277.427 106.937 277.607 106.937 277.82V284.58C106.937 284.793 107.011 284.98 107.157 285.14C107.317 285.287 107.504 285.36 107.717 285.36H117.117V287H107.717ZM121.273 287C120.833 287 120.426 286.893 120.053 286.68C119.693 286.453 119.4 286.16 119.173 285.8C118.96 285.427 118.853 285.02 118.853 284.58V275.4H120.493V284.58C120.493 284.793 120.566 284.98 120.713 285.14C120.873 285.287 121.06 285.36 121.273 285.36H128.233C128.446 285.36 128.633 285.287 128.793 285.14C128.953 284.98 129.033 284.793 129.033 284.58V275.4H130.673V284.58C130.673 285.02 130.56 285.427 130.333 285.8C130.12 286.16 129.826 286.453 129.453 286.68C129.093 286.893 128.686 287 128.233 287H121.273ZM134.786 287C134.346 287 133.94 286.893 133.566 286.68C133.206 286.453 132.913 286.16 132.686 285.8C132.473 285.427 132.366 285.02 132.366 284.58V284.42H134.006V284.58C134.006 284.793 134.08 284.98 134.226 285.14C134.386 285.287 134.573 285.36 134.786 285.36H141.746C141.96 285.36 142.14 285.287 142.286 285.14C142.446 284.98 142.526 284.793 142.526 284.58V282.8C142.526 282.587 142.446 282.407 142.286 282.26C142.14 282.1 141.96 282.02 141.746 282.02H134.786C134.346 282.02 133.94 281.913 133.566 281.7C133.206 281.473 132.913 281.18 132.686 280.82C132.473 280.447 132.366 280.04 132.366 279.6V277.82C132.366 277.38 132.473 276.98 132.686 276.62C132.913 276.247 133.206 275.953 133.566 275.74C133.94 275.513 134.346 275.4 134.786 275.4H141.746C142.2 275.4 142.606 275.513 142.966 275.74C143.34 275.953 143.633 276.247 143.846 276.62C144.073 276.98 144.186 277.38 144.186 277.82V277.98H142.526V277.82C142.526 277.607 142.446 277.427 142.286 277.28C142.14 277.12 141.96 277.04 141.746 277.04H134.786C134.573 277.04 134.386 277.12 134.226 277.28C134.08 277.427 134.006 277.607 134.006 277.82V279.6C134.006 279.813 134.08 280 134.226 280.16C134.386 280.307 134.573 280.38 134.786 280.38H141.746C142.2 280.38 142.606 280.493 142.966 280.72C143.34 280.933 143.633 281.227 143.846 281.6C144.073 281.96 144.186 282.36 144.186 282.8V284.58C144.186 285.02 144.073 285.427 143.846 285.8C143.633 286.16 143.34 286.453 142.966 286.68C142.606 286.893 142.2 287 141.746 287H134.786ZM148.577 287C148.137 287 147.731 286.893 147.357 286.68C146.997 286.453 146.704 286.16 146.477 285.8C146.264 285.427 146.157 285.02 146.157 284.58V280.38H156.317V277.82C156.317 277.607 156.237 277.427 156.077 277.28C155.931 277.12 155.751 277.04 155.537 277.04H146.157V275.4H155.537C155.991 275.4 156.397 275.513 156.757 275.74C157.131 275.953 157.424 276.247 157.637 276.62C157.864 276.98 157.977 277.38 157.977 277.82V287H148.577ZM148.577 285.36H156.317V282.02H147.797V284.58C147.797 284.793 147.871 284.98 148.017 285.14C148.177 285.287 148.364 285.36 148.577 285.36ZM159.791 287V275.4H169.191C169.631 275.4 170.031 275.513 170.391 275.74C170.764 275.953 171.058 276.247 171.271 276.62C171.498 276.98 171.611 277.38 171.611 277.82V287H169.971V277.82C169.971 277.607 169.891 277.427 169.731 277.28C169.584 277.12 169.404 277.04 169.191 277.04H162.231C162.018 277.04 161.831 277.12 161.671 277.28C161.511 277.427 161.431 277.607 161.431 277.82V287H159.791ZM176.117 287C175.663 287 175.25 286.893 174.877 286.68C174.517 286.453 174.23 286.16 174.017 285.8C173.803 285.427 173.697 285.02 173.697 284.58V271.6H175.337V275.4H180.357V277.04H175.337V284.58C175.337 284.793 175.41 284.98 175.557 285.14C175.717 285.287 175.903 285.36 176.117 285.36H180.357V287H176.117ZM181.978 287V275.4H183.618V287H181.978ZM181.978 273.24V271.6H183.618V273.24H181.978ZM188.578 287C188.138 287 187.731 286.893 187.358 286.68C186.998 286.453 186.704 286.16 186.478 285.8C186.264 285.427 186.158 285.02 186.158 284.58V275.4H187.798V284.58C187.798 284.793 187.871 284.98 188.018 285.14C188.178 285.287 188.364 285.36 188.578 285.36H195.538C195.751 285.36 195.938 285.287 196.098 285.14C196.258 284.98 196.338 284.793 196.338 284.58V275.4H197.978V284.58C197.978 285.02 197.864 285.427 197.638 285.8C197.424 286.16 197.131 286.453 196.758 286.68C196.398 286.893 195.991 287 195.538 287H188.578ZM199.693 287V275.4H215.013C215.467 275.4 215.873 275.513 216.233 275.74C216.607 275.953 216.9 276.247 217.113 276.62C217.327 276.98 217.433 277.38 217.433 277.82V287H215.813V277.82C215.813 277.607 215.733 277.427 215.573 277.28C215.413 277.12 215.227 277.04 215.013 277.04H210.193C209.98 277.04 209.793 277.12 209.633 277.28C209.487 277.427 209.413 277.607 209.413 277.82V287H207.753V277.82C207.753 277.607 207.673 277.427 207.513 277.28C207.367 277.12 207.187 277.04 206.973 277.04H202.133C201.92 277.04 201.733 277.12 201.573 277.28C201.427 277.427 201.353 277.607 201.353 277.82V287H199.693ZM226.513 287C226.06 287 225.647 286.893 225.273 286.68C224.913 286.453 224.62 286.16 224.393 285.8C224.18 285.427 224.073 285.02 224.073 284.58V277.82C224.073 277.38 224.18 276.98 224.393 276.62C224.62 276.247 224.913 275.953 225.273 275.74C225.647 275.513 226.06 275.4 226.513 275.4H234.253V271.6H235.893V287H226.513ZM226.513 285.36H233.473C233.687 285.36 233.867 285.287 234.013 285.14C234.173 284.98 234.253 284.793 234.253 284.58V277.82C234.253 277.607 234.173 277.427 234.013 277.28C233.867 277.12 233.687 277.04 233.473 277.04H226.513C226.3 277.04 226.113 277.12 225.953 277.28C225.807 277.427 225.733 277.607 225.733 277.82V284.58C225.733 284.793 225.807 284.98 225.953 285.14C226.113 285.287 226.3 285.36 226.513 285.36ZM239.944 287C239.504 287 239.097 286.893 238.724 286.68C238.364 286.453 238.071 286.16 237.844 285.8C237.631 285.427 237.524 285.02 237.524 284.58V277.82C237.524 277.38 237.631 276.98 237.844 276.62C238.071 276.247 238.364 275.953 238.724 275.74C239.097 275.513 239.504 275.4 239.944 275.4H246.904C247.357 275.4 247.764 275.513 248.124 275.74C248.497 275.953 248.791 276.247 249.004 276.62C249.231 276.98 249.344 277.38 249.344 277.82V284.58C249.344 285.02 249.231 285.427 249.004 285.8C248.791 286.16 248.497 286.453 248.124 286.68C247.764 286.893 247.357 287 246.904 287H239.944ZM239.944 285.36H246.904C247.117 285.36 247.297 285.287 247.444 285.14C247.604 284.98 247.684 284.793 247.684 284.58V277.82C247.684 277.607 247.604 277.427 247.444 277.28C247.297 277.12 247.117 277.04 246.904 277.04H239.944C239.731 277.04 239.544 277.12 239.384 277.28C239.237 277.427 239.164 277.607 239.164 277.82V284.58C239.164 284.793 239.237 284.98 239.384 285.14C239.544 285.287 239.731 285.36 239.944 285.36ZM253.421 287C252.981 287 252.574 286.893 252.201 286.68C251.841 286.453 251.548 286.16 251.321 285.8C251.108 285.427 251.001 285.02 251.001 284.58V271.6H252.641V284.58C252.641 284.793 252.714 284.98 252.861 285.14C253.021 285.287 253.208 285.36 253.421 285.36H255.381V287H253.421ZM259.241 287C258.801 287 258.394 286.893 258.021 286.68C257.661 286.453 257.367 286.16 257.141 285.8C256.927 285.427 256.821 285.02 256.821 284.58V277.82C256.821 277.38 256.927 276.98 257.141 276.62C257.367 276.247 257.661 275.953 258.021 275.74C258.394 275.513 258.801 275.4 259.241 275.4H266.201C266.654 275.4 267.061 275.513 267.421 275.74C267.794 275.953 268.087 276.247 268.301 276.62C268.527 276.98 268.641 277.38 268.641 277.82V284.58C268.641 285.02 268.527 285.427 268.301 285.8C268.087 286.16 267.794 286.453 267.421 286.68C267.061 286.893 266.654 287 266.201 287H259.241ZM259.241 285.36H266.201C266.414 285.36 266.594 285.287 266.741 285.14C266.901 284.98 266.981 284.793 266.981 284.58V277.82C266.981 277.607 266.901 277.427 266.741 277.28C266.594 277.12 266.414 277.04 266.201 277.04H259.241C259.027 277.04 258.841 277.12 258.681 277.28C258.534 277.427 258.461 277.607 258.461 277.82V284.58C258.461 284.793 258.534 284.98 258.681 285.14C258.841 285.287 259.027 285.36 259.241 285.36ZM270.493 287V277.82C270.493 277.38 270.6 276.98 270.813 276.62C271.04 276.247 271.333 275.953 271.693 275.74C272.066 275.513 272.473 275.4 272.913 275.4H279.433V277.04H272.913C272.7 277.04 272.513 277.12 272.353 277.28C272.206 277.427 272.133 277.607 272.133 277.82V287H270.493ZM283.128 287C282.688 287 282.281 286.893 281.908 286.68C281.548 286.453 281.254 286.16 281.028 285.8C280.814 285.427 280.708 285.02 280.708 284.58V277.82C280.708 277.38 280.814 276.98 281.028 276.62C281.254 276.247 281.548 275.953 281.908 275.74C282.281 275.513 282.688 275.4 283.128 275.4H290.088C290.541 275.4 290.948 275.513 291.308 275.74C291.681 275.953 291.974 276.247 292.188 276.62C292.414 276.98 292.528 277.38 292.528 277.82V282.02H282.348V284.58C282.348 284.793 282.421 284.98 282.568 285.14C282.728 285.287 282.914 285.36 283.128 285.36H292.528V287H283.128ZM282.348 280.38H290.868V277.82C290.868 277.607 290.788 277.427 290.628 277.28C290.481 277.12 290.301 277.04 290.088 277.04H283.128C282.914 277.04 282.728 277.12 282.568 277.28C282.421 277.427 282.348 277.607 282.348 277.82V280.38ZM294.615 287V275.4H309.935C310.388 275.4 310.795 275.513 311.155 275.74C311.528 275.953 311.822 276.247 312.035 276.62C312.248 276.98 312.355 277.38 312.355 277.82V287H310.735V277.82C310.735 277.607 310.655 277.427 310.495 277.28C310.335 277.12 310.148 277.04 309.935 277.04H305.115C304.902 277.04 304.715 277.12 304.555 277.28C304.408 277.427 304.335 277.607 304.335 277.82V287H302.675V277.82C302.675 277.607 302.595 277.427 302.435 277.28C302.288 277.12 302.108 277.04 301.895 277.04H297.055C296.842 277.04 296.655 277.12 296.495 277.28C296.348 277.427 296.275 277.607 296.275 277.82V287H294.615ZM323.666 291.6V287H315.926C315.473 287 315.059 286.893 314.686 286.68C314.326 286.453 314.033 286.16 313.806 285.8C313.593 285.427 313.486 285.02 313.486 284.58V277.82C313.486 277.38 313.593 276.98 313.806 276.62C314.033 276.247 314.326 275.953 314.686 275.74C315.059 275.513 315.473 275.4 315.926 275.4H325.306V291.6H323.666ZM315.926 285.36H322.886C323.099 285.36 323.279 285.287 323.426 285.14C323.586 284.98 323.666 284.793 323.666 284.58V277.82C323.666 277.607 323.586 277.427 323.426 277.28C323.279 277.12 323.099 277.04 322.886 277.04H315.926C315.713 277.04 315.526 277.12 315.366 277.28C315.219 277.427 315.146 277.607 315.146 277.82V284.58C315.146 284.793 315.219 284.98 315.366 285.14C315.526 285.287 315.713 285.36 315.926 285.36ZM329.339 287C328.899 287 328.493 286.893 328.119 286.68C327.759 286.453 327.466 286.16 327.239 285.8C327.026 285.427 326.919 285.02 326.919 284.58V275.4H328.559V284.58C328.559 284.793 328.633 284.98 328.779 285.14C328.939 285.287 329.126 285.36 329.339 285.36H336.299C336.513 285.36 336.699 285.287 336.859 285.14C337.019 284.98 337.099 284.793 337.099 284.58V275.4H338.739V284.58C338.739 285.02 338.626 285.427 338.399 285.8C338.186 286.16 337.893 286.453 337.519 286.68C337.159 286.893 336.753 287 336.299 287H329.339ZM342.913 287C342.473 287 342.066 286.893 341.693 286.68C341.333 286.453 341.039 286.16 340.813 285.8C340.599 285.427 340.493 285.02 340.493 284.58V277.82C340.493 277.38 340.599 276.98 340.813 276.62C341.039 276.247 341.333 275.953 341.693 275.74C342.066 275.513 342.473 275.4 342.913 275.4H349.873C350.326 275.4 350.733 275.513 351.093 275.74C351.466 275.953 351.759 276.247 351.973 276.62C352.199 276.98 352.313 277.38 352.313 277.82V282.02H342.133V284.58C342.133 284.793 342.206 284.98 342.353 285.14C342.513 285.287 342.699 285.36 342.913 285.36H352.313V287H342.913ZM342.133 280.38H350.653V277.82C350.653 277.607 350.573 277.427 350.413 277.28C350.266 277.12 350.086 277.04 349.873 277.04H342.913C342.699 277.04 342.513 277.12 342.353 277.28C342.206 277.427 342.133 277.607 342.133 277.82V280.38ZM362.23 287C361.79 287 361.383 286.893 361.01 286.68C360.65 286.453 360.356 286.16 360.13 285.8C359.916 285.427 359.81 285.02 359.81 284.58V271.6H361.45V284.58C361.45 284.793 361.523 284.98 361.67 285.14C361.83 285.287 362.016 285.36 362.23 285.36H364.19V287H362.23ZM368.069 287C367.629 287 367.223 286.893 366.849 286.68C366.489 286.453 366.196 286.16 365.969 285.8C365.756 285.427 365.649 285.02 365.649 284.58V280.38H375.809V277.82C375.809 277.607 375.729 277.427 375.569 277.28C375.423 277.12 375.243 277.04 375.029 277.04H365.649V275.4H375.029C375.483 275.4 375.889 275.513 376.249 275.74C376.623 275.953 376.916 276.247 377.129 276.62C377.356 276.98 377.469 277.38 377.469 277.82V287H368.069ZM368.069 285.36H375.809V282.02H367.289V284.58C367.289 284.793 367.363 284.98 367.509 285.14C367.669 285.287 367.856 285.36 368.069 285.36ZM381.976 287C381.536 287 381.129 286.893 380.756 286.68C380.396 286.453 380.103 286.16 379.876 285.8C379.663 285.427 379.556 285.02 379.556 284.58V275.4H381.196V284.58C381.196 284.793 381.269 284.98 381.416 285.14C381.576 285.287 381.763 285.36 381.976 285.36H388.936C389.149 285.36 389.336 285.287 389.496 285.14C389.656 284.98 389.736 284.793 389.736 284.58V275.4H391.376V284.58C391.376 285.02 391.263 285.427 391.036 285.8C390.823 286.16 390.529 286.453 390.156 286.68C389.796 286.893 389.389 287 388.936 287H381.976ZM395.498 287C395.044 287 394.631 286.893 394.258 286.68C393.898 286.453 393.604 286.16 393.378 285.8C393.164 285.427 393.058 285.02 393.058 284.58V277.82C393.058 277.38 393.164 276.98 393.378 276.62C393.604 276.247 393.898 275.953 394.258 275.74C394.631 275.513 395.044 275.4 395.498 275.4H403.238V271.6H404.878V287H395.498ZM395.498 285.36H402.458C402.671 285.36 402.851 285.287 402.998 285.14C403.158 284.98 403.238 284.793 403.238 284.58V277.82C403.238 277.607 403.158 277.427 402.998 277.28C402.851 277.12 402.671 277.04 402.458 277.04H395.498C395.284 277.04 395.098 277.12 394.938 277.28C394.791 277.427 394.718 277.607 394.718 277.82V284.58C394.718 284.793 394.791 284.98 394.938 285.14C395.098 285.287 395.284 285.36 395.498 285.36ZM409.398 287C408.958 287 408.551 286.893 408.178 286.68C407.818 286.453 407.524 286.16 407.298 285.8C407.084 285.427 406.978 285.02 406.978 284.58V280.38H417.138V277.82C417.138 277.607 417.058 277.427 416.898 277.28C416.751 277.12 416.571 277.04 416.358 277.04H406.978V275.4H416.358C416.811 275.4 417.218 275.513 417.578 275.74C417.951 275.953 418.244 276.247 418.458 276.62C418.684 276.98 418.798 277.38 418.798 277.82V287H409.398ZM409.398 285.36H417.138V282.02H408.618V284.58C408.618 284.793 408.691 284.98 408.838 285.14C408.998 285.287 409.184 285.36 409.398 285.36ZM420.611 287V275.4H430.011C430.451 275.4 430.851 275.513 431.211 275.74C431.585 275.953 431.878 276.247 432.091 276.62C432.318 276.98 432.431 277.38 432.431 277.82V287H430.791V277.82C430.791 277.607 430.711 277.427 430.551 277.28C430.405 277.12 430.225 277.04 430.011 277.04H423.051C422.838 277.04 422.651 277.12 422.491 277.28C422.331 277.427 422.251 277.607 422.251 277.82V287H420.611ZM436.937 287C436.484 287 436.07 286.893 435.697 286.68C435.337 286.453 435.05 286.16 434.837 285.8C434.624 285.427 434.517 285.02 434.517 284.58V271.6H436.157V275.4H441.177V277.04H436.157V284.58C436.157 284.793 436.23 284.98 436.377 285.14C436.537 285.287 436.724 285.36 436.937 285.36H441.177V287H436.937ZM442.798 287V275.4H444.438V287H442.798ZM442.798 273.24V271.6H444.438V273.24H442.798ZM449.398 287C448.958 287 448.551 286.893 448.178 286.68C447.818 286.453 447.525 286.16 447.298 285.8C447.085 285.427 446.978 285.02 446.978 284.58V275.4H448.618V284.58C448.618 284.793 448.691 284.98 448.838 285.14C448.998 285.287 449.185 285.36 449.398 285.36H456.358C456.571 285.36 456.758 285.287 456.918 285.14C457.078 284.98 457.158 284.793 457.158 284.58V275.4H458.798V284.58C458.798 285.02 458.685 285.427 458.458 285.8C458.245 286.16 457.951 286.453 457.578 286.68C457.218 286.893 456.811 287 456.358 287H449.398ZM460.514 287V275.4H475.834C476.287 275.4 476.694 275.513 477.054 275.74C477.427 275.953 477.72 276.247 477.934 276.62C478.147 276.98 478.254 277.38 478.254 277.82V287H476.634V277.82C476.634 277.607 476.554 277.427 476.394 277.28C476.234 277.12 476.047 277.04 475.834 277.04H471.014C470.8 277.04 470.614 277.12 470.454 277.28C470.307 277.427 470.234 277.607 470.234 277.82V287H468.574V277.82C468.574 277.607 468.494 277.427 468.334 277.28C468.187 277.12 468.007 277.04 467.794 277.04H462.954C462.74 277.04 462.554 277.12 462.394 277.28C462.247 277.427 462.174 277.607 462.174 277.82V287H460.514ZM480.064 289.62V285.36H481.704V287.32C481.704 287.68 481.631 288.013 481.484 288.32C481.351 288.627 481.158 288.893 480.904 289.12C480.664 289.347 480.384 289.513 480.064 289.62ZM491.781 287C491.327 287 490.914 286.893 490.541 286.68C490.181 286.453 489.894 286.16 489.681 285.8C489.467 285.427 489.361 285.02 489.361 284.58V271.6H491.001V275.4H496.021V277.04H491.001V284.58C491.001 284.793 491.074 284.98 491.221 285.14C491.381 285.287 491.567 285.36 491.781 285.36H496.021V287H491.781ZM499.944 287C499.504 287 499.097 286.893 498.724 286.68C498.364 286.453 498.071 286.16 497.844 285.8C497.631 285.427 497.524 285.02 497.524 284.58V277.82C497.524 277.38 497.631 276.98 497.844 276.62C498.071 276.247 498.364 275.953 498.724 275.74C499.097 275.513 499.504 275.4 499.944 275.4H506.904C507.357 275.4 507.764 275.513 508.124 275.74C508.497 275.953 508.791 276.247 509.004 276.62C509.231 276.98 509.344 277.38 509.344 277.82V284.58C509.344 285.02 509.231 285.427 509.004 285.8C508.791 286.16 508.497 286.453 508.124 286.68C507.764 286.893 507.357 287 506.904 287H499.944ZM499.944 285.36H506.904C507.117 285.36 507.297 285.287 507.444 285.14C507.604 284.98 507.684 284.793 507.684 284.58V277.82C507.684 277.607 507.604 277.427 507.444 277.28C507.297 277.12 507.117 277.04 506.904 277.04H499.944C499.731 277.04 499.544 277.12 499.384 277.28C499.237 277.427 499.164 277.607 499.164 277.82V284.58C499.164 284.793 499.237 284.98 499.384 285.14C499.544 285.287 499.731 285.36 499.944 285.36ZM513.363 287C512.909 287 512.496 286.893 512.123 286.68C511.763 286.453 511.476 286.16 511.263 285.8C511.049 285.427 510.943 285.02 510.943 284.58V271.6H512.583V275.4H517.603V277.04H512.583V284.58C512.583 284.793 512.656 284.98 512.803 285.14C512.963 285.287 513.149 285.36 513.363 285.36H517.603V287H513.363ZM521.546 287C521.106 287 520.699 286.893 520.326 286.68C519.966 286.453 519.673 286.16 519.446 285.8C519.233 285.427 519.126 285.02 519.126 284.58V280.38H529.286V277.82C529.286 277.607 529.206 277.427 529.046 277.28C528.899 277.12 528.719 277.04 528.506 277.04H519.126V275.4H528.506C528.959 275.4 529.366 275.513 529.726 275.74C530.099 275.953 530.393 276.247 530.606 276.62C530.833 276.98 530.946 277.38 530.946 277.82V287H521.546ZM521.546 285.36H529.286V282.02H520.766V284.58C520.766 284.793 520.839 284.98 520.986 285.14C521.146 285.287 521.333 285.36 521.546 285.36ZM532.662 287V275.4H547.982C548.435 275.4 548.842 275.513 549.202 275.74C549.575 275.953 549.869 276.247 550.082 276.62C550.295 276.98 550.402 277.38 550.402 277.82V287H548.782V277.82C548.782 277.607 548.702 277.427 548.542 277.28C548.382 277.12 548.195 277.04 547.982 277.04H543.162C542.949 277.04 542.762 277.12 542.602 277.28C542.455 277.427 542.382 277.607 542.382 277.82V287H540.722V277.82C540.722 277.607 540.642 277.427 540.482 277.28C540.335 277.12 540.155 277.04 539.942 277.04H535.102C534.889 277.04 534.702 277.12 534.542 277.28C534.395 277.427 534.322 277.607 534.322 277.82V287H532.662ZM557.622 287V277.82C557.622 277.38 557.729 276.98 557.942 276.62C558.169 276.247 558.462 275.953 558.822 275.74C559.195 275.513 559.602 275.4 560.042 275.4H566.562V277.04H560.042C559.829 277.04 559.642 277.12 559.482 277.28C559.335 277.427 559.262 277.607 559.262 277.82V287H557.622ZM570.256 287C569.816 287 569.41 286.893 569.036 286.68C568.676 286.453 568.383 286.16 568.156 285.8C567.943 285.427 567.836 285.02 567.836 284.58V277.82C567.836 277.38 567.943 276.98 568.156 276.62C568.383 276.247 568.676 275.953 569.036 275.74C569.41 275.513 569.816 275.4 570.256 275.4H577.216C577.67 275.4 578.076 275.513 578.436 275.74C578.81 275.953 579.103 276.247 579.316 276.62C579.543 276.98 579.656 277.38 579.656 277.82V282.02H569.476V284.58C569.476 284.793 569.55 284.98 569.696 285.14C569.856 285.287 570.043 285.36 570.256 285.36H579.656V287H570.256ZM569.476 280.38H577.996V277.82C577.996 277.607 577.916 277.427 577.756 277.28C577.61 277.12 577.43 277.04 577.216 277.04H570.256C570.043 277.04 569.856 277.12 569.696 277.28C569.55 277.427 569.476 277.607 569.476 277.82V280.38ZM581.744 287V275.4H597.064C597.517 275.4 597.924 275.513 598.284 275.74C598.657 275.953 598.951 276.247 599.164 276.62C599.377 276.98 599.484 277.38 599.484 277.82V287H597.864V277.82C597.864 277.607 597.784 277.427 597.624 277.28C597.464 277.12 597.277 277.04 597.064 277.04H592.244C592.031 277.04 591.844 277.12 591.684 277.28C591.537 277.427 591.464 277.607 591.464 277.82V287H589.804V277.82C589.804 277.607 589.724 277.427 589.564 277.28C589.417 277.12 589.237 277.04 589.024 277.04H584.184C583.971 277.04 583.784 277.12 583.624 277.28C583.477 277.427 583.404 277.607 583.404 277.82V287H581.744ZM609.124 287C608.684 287 608.277 286.893 607.904 286.68C607.544 286.453 607.251 286.16 607.024 285.8C606.811 285.427 606.704 285.02 606.704 284.58V280.38H616.864V277.82C616.864 277.607 616.784 277.427 616.624 277.28C616.477 277.12 616.297 277.04 616.084 277.04H606.704V275.4H616.084C616.537 275.4 616.944 275.513 617.304 275.74C617.677 275.953 617.971 276.247 618.184 276.62C618.411 276.98 618.524 277.38 618.524 277.82V287H609.124ZM609.124 285.36H616.864V282.02H608.344V284.58C608.344 284.793 608.417 284.98 608.564 285.14C608.724 285.287 608.911 285.36 609.124 285.36ZM620.631 291.6V275.4H630.031C630.471 275.4 630.871 275.513 631.231 275.74C631.604 275.953 631.897 276.247 632.111 276.62C632.337 276.98 632.451 277.38 632.451 277.82V284.58C632.451 285.02 632.337 285.427 632.111 285.8C631.897 286.16 631.604 286.453 631.231 286.68C630.871 286.893 630.471 287 630.031 287H622.271V291.6H620.631ZM623.071 285.36H630.031C630.244 285.36 630.424 285.287 630.571 285.14C630.731 284.98 630.811 284.793 630.811 284.58V277.82C630.811 277.607 630.731 277.427 630.571 277.28C630.424 277.12 630.244 277.04 630.031 277.04H623.071C622.857 277.04 622.671 277.12 622.511 277.28C622.351 277.427 622.271 277.607 622.271 277.82V284.58C622.271 284.793 622.351 284.98 622.511 285.14C622.671 285.287 622.857 285.36 623.071 285.36ZM636.272 287C635.832 287 635.425 286.893 635.052 286.68C634.692 286.453 634.399 286.16 634.172 285.8C633.959 285.427 633.852 285.02 633.852 284.58V277.82C633.852 277.38 633.959 276.98 634.172 276.62C634.399 276.247 634.692 275.953 635.052 275.74C635.425 275.513 635.832 275.4 636.272 275.4H643.232C643.685 275.4 644.092 275.513 644.452 275.74C644.825 275.953 645.119 276.247 645.332 276.62C645.559 276.98 645.672 277.38 645.672 277.82V282.02H635.492V284.58C635.492 284.793 635.565 284.98 635.712 285.14C635.872 285.287 636.059 285.36 636.272 285.36H645.672V287H636.272ZM635.492 280.38H644.012V277.82C644.012 277.607 643.932 277.427 643.772 277.28C643.625 277.12 643.445 277.04 643.232 277.04H636.272C636.059 277.04 635.872 277.12 635.712 277.28C635.565 277.427 635.492 277.607 635.492 277.82V280.38ZM647.622 287V277.82C647.622 277.38 647.729 276.98 647.942 276.62C648.169 276.247 648.462 275.953 648.822 275.74C649.195 275.513 649.602 275.4 650.042 275.4H656.562V277.04H650.042C649.829 277.04 649.642 277.12 649.482 277.28C649.335 277.427 649.262 277.607 649.262 277.82V287H647.622ZM657.856 287V275.4H659.496V287H657.856ZM657.856 273.24V271.6H659.496V273.24H657.856ZM663.733 287C663.293 287 662.887 286.893 662.513 286.68C662.153 286.453 661.86 286.16 661.633 285.8C661.42 285.427 661.313 285.02 661.313 284.58V280.38H671.473V277.82C671.473 277.607 671.393 277.427 671.233 277.28C671.087 277.12 670.907 277.04 670.693 277.04H661.313V275.4H670.693C671.147 275.4 671.553 275.513 671.913 275.74C672.287 275.953 672.58 276.247 672.793 276.62C673.02 276.98 673.133 277.38 673.133 277.82V287H663.733ZM663.733 285.36H671.473V282.02H662.953V284.58C662.953 284.793 663.027 284.98 663.173 285.14C663.333 285.287 663.52 285.36 663.733 285.36ZM674.85 287V275.4H690.17C690.623 275.4 691.03 275.513 691.39 275.74C691.763 275.953 692.056 276.247 692.27 276.62C692.483 276.98 692.59 277.38 692.59 277.82V287H690.97V277.82C690.97 277.607 690.89 277.427 690.73 277.28C690.57 277.12 690.383 277.04 690.17 277.04H685.35C685.136 277.04 684.95 277.12 684.79 277.28C684.643 277.427 684.57 277.607 684.57 277.82V287H682.91V277.82C682.91 277.607 682.83 277.427 682.67 277.28C682.523 277.12 682.343 277.04 682.13 277.04H677.29C677.076 277.04 676.89 277.12 676.73 277.28C676.583 277.427 676.51 277.607 676.51 277.82V287H674.85Z" fill="#DFDFDF" fill-opacity="0.8"/>
<path d="M55.2008 106V88.656L34.0168 59.92H39.9688L57.8248 82.448L75.4888 59.92H81.5688L60.3848 88.656V106H55.2008ZM86.9143 106C85.5063 106 84.2049 105.659 83.0103 104.976C81.8583 104.251 80.9196 103.312 80.1943 102.16C79.5116 100.965 79.1703 99.664 79.1703 98.256V76.624C79.1703 75.216 79.5116 73.936 80.1943 72.784C80.9196 71.5893 81.8583 70.6507 83.0103 69.968C84.2049 69.2427 85.5063 68.88 86.9143 68.88H109.186C110.637 68.88 111.938 69.2427 113.09 69.968C114.285 70.6507 115.224 71.5893 115.906 72.784C116.632 73.936 116.994 75.216 116.994 76.624V98.256C116.994 99.664 116.632 100.965 115.906 102.16C115.224 103.312 114.285 104.251 113.09 104.976C111.938 105.659 110.637 106 109.186 106H86.9143ZM86.9143 100.752H109.186C109.869 100.752 110.445 100.517 110.914 100.048C111.426 99.536 111.682 98.9387 111.682 98.256V76.624C111.682 75.9413 111.426 75.3653 110.914 74.896C110.445 74.384 109.869 74.128 109.186 74.128H86.9143C86.2316 74.128 85.6343 74.384 85.1223 74.896C84.6529 75.3653 84.4183 75.9413 84.4183 76.624V98.256C84.4183 98.9387 84.6529 99.536 85.1223 100.048C85.6343 100.517 86.2316 100.752 86.9143 100.752ZM129.855 106C128.447 106 127.145 105.659 125.951 104.976C124.799 104.251 123.86 103.312 123.135 102.16C122.452 100.965 122.111 99.664 122.111 98.256V68.88H127.359V98.256C127.359 98.9387 127.593 99.536 128.063 100.048C128.575 100.517 129.172 100.752 129.855 100.752H152.127C152.809 100.752 153.407 100.517 153.919 100.048C154.431 99.536 154.687 98.9387 154.687 98.256V68.88H159.935V98.256C159.935 99.664 159.572 100.965 158.847 102.16C158.164 103.312 157.225 104.251 156.031 104.976C154.879 105.659 153.577 106 152.127 106H129.855ZM166.547 106V76.624C166.547 75.216 166.888 73.936 167.571 72.784C168.296 71.5893 169.235 70.6507 170.387 69.968C171.581 69.2427 172.883 68.88 174.291 68.88H195.155V74.128H174.291C173.608 74.128 173.011 74.384 172.499 74.896C172.029 75.3653 171.795 75.9413 171.795 76.624V106H166.547ZM224.542 106C223.134 106 221.833 105.659 220.638 104.976C219.486 104.293 218.569 103.376 217.886 102.224C217.204 101.029 216.862 99.728 216.862 98.32V67.6C216.862 66.192 217.204 64.912 217.886 63.76C218.569 62.5653 219.486 61.6267 220.638 60.944C221.833 60.2613 223.134 59.92 224.542 59.92H255.262C256.67 59.92 257.95 60.2613 259.102 60.944C260.297 61.6267 261.236 62.5653 261.918 63.76C262.601 64.912 262.942 66.192 262.942 67.6V98.32C262.942 99.728 262.601 101.029 261.918 102.224C261.236 103.376 260.297 104.293 259.102 104.976C257.95 105.659 256.67 106 255.262 106H224.542ZM224.542 100.816H255.262C255.945 100.816 256.521 100.581 256.99 100.112C257.502 99.6 257.758 99.0027 257.758 98.32V67.6C257.758 66.9173 257.502 66.3413 256.99 65.872C256.521 65.36 255.945 65.104 255.262 65.104H224.542C223.86 65.104 223.262 65.36 222.75 65.872C222.281 66.3413 222.046 66.9173 222.046 67.6V98.32C222.046 99.0027 222.281 99.6 222.75 100.112C223.262 100.581 223.86 100.816 224.542 100.816ZM269.862 106V68.88H299.942C301.35 68.88 302.63 69.2427 303.782 69.968C304.977 70.6507 305.916 71.5893 306.598 72.784C307.324 73.936 307.686 75.216 307.686 76.624V106H302.438V76.624C302.438 75.9413 302.182 75.3653 301.67 74.896C301.201 74.384 300.625 74.128 299.942 74.128H277.67C276.988 74.128 276.39 74.384 275.878 74.896C275.366 75.3653 275.11 75.9413 275.11 76.624V106H269.862ZM321.977 106C320.569 106 319.267 105.659 318.073 104.976C316.921 104.251 315.982 103.312 315.257 102.16C314.574 100.965 314.233 99.664 314.233 98.256V76.624C314.233 75.216 314.574 73.936 315.257 72.784C315.982 71.5893 316.921 70.6507 318.073 69.968C319.267 69.2427 320.569 68.88 321.977 68.88H344.249C345.699 68.88 347.001 69.2427 348.153 69.968C349.347 70.6507 350.286 71.5893 350.969 72.784C351.694 73.936 352.057 75.216 352.057 76.624V90.064H319.481V98.256C319.481 98.9387 319.715 99.536 320.185 100.048C320.697 100.517 321.294 100.752 321.977 100.752H352.057V106H321.977ZM319.481 84.816H346.745V76.624C346.745 75.9413 346.489 75.3653 345.977 74.896C345.507 74.384 344.931 74.128 344.249 74.128H321.977C321.294 74.128 320.697 74.384 320.185 74.896C319.715 75.3653 319.481 75.9413 319.481 76.624V84.816ZM383.663 106C382.255 106 380.953 105.659 379.759 104.976C378.607 104.293 377.689 103.376 377.007 102.224C376.324 101.029 375.983 99.728 375.983 98.32V96.528H381.167V98.32C381.167 99.0027 381.401 99.6 381.871 100.112C382.383 100.581 382.98 100.816 383.663 100.816H414.383C415.065 100.816 415.641 100.581 416.111 100.112C416.623 99.6 416.879 99.0027 416.879 98.32V88.016C416.879 87.3333 416.623 86.7573 416.111 86.288C415.641 85.8187 415.065 85.584 414.383 85.584H383.663C382.255 85.584 380.953 85.2427 379.759 84.56C378.607 83.8347 377.689 82.896 377.007 81.744C376.324 80.592 375.983 79.312 375.983 77.904V67.6C375.983 66.192 376.324 64.912 377.007 63.76C377.689 62.5653 378.607 61.6267 379.759 60.944C380.953 60.2613 382.255 59.92 383.663 59.92H414.383C415.791 59.92 417.071 60.2613 418.223 60.944C419.417 61.6267 420.356 62.5653 421.039 63.76C421.721 64.912 422.063 66.192 422.063 67.6V69.392H416.879V67.6C416.879 66.9173 416.623 66.3413 416.111 65.872C415.641 65.36 415.065 65.104 414.383 65.104H383.663C382.98 65.104 382.383 65.36 381.871 65.872C381.401 66.3413 381.167 66.9173 381.167 67.6V77.904C381.167 78.5867 381.401 79.1627 381.871 79.632C382.383 80.1013 382.98 80.336 383.663 80.336H414.383C415.791 80.336 417.071 80.6987 418.223 81.424C419.417 82.1067 420.356 83.024 421.039 84.176C421.721 85.328 422.063 86.608 422.063 88.016V98.32C422.063 99.728 421.721 101.029 421.039 102.224C420.356 103.376 419.417 104.293 418.223 104.976C417.071 105.659 415.791 106 414.383 106H383.663ZM436.48 106C435.029 106 433.706 105.659 432.512 104.976C431.36 104.251 430.442 103.312 429.76 102.16C429.077 100.965 428.736 99.664 428.736 98.256V56.72H433.984V68.88H450.048V74.128H433.984V98.256C433.984 98.9387 434.218 99.536 434.688 100.048C435.2 100.517 435.797 100.752 436.48 100.752H450.048V106H436.48ZM462.602 106C461.194 106 459.892 105.659 458.698 104.976C457.546 104.251 456.607 103.312 455.882 102.16C455.199 100.965 454.858 99.664 454.858 98.256V76.624C454.858 75.216 455.199 73.936 455.882 72.784C456.607 71.5893 457.546 70.6507 458.698 69.968C459.892 69.2427 461.194 68.88 462.602 68.88H484.874C486.324 68.88 487.626 69.2427 488.778 69.968C489.972 70.6507 490.911 71.5893 491.594 72.784C492.319 73.936 492.682 75.216 492.682 76.624V98.256C492.682 99.664 492.319 100.965 491.594 102.16C490.911 103.312 489.972 104.251 488.778 104.976C487.626 105.659 486.324 106 484.874 106H462.602ZM462.602 100.752H484.874C485.556 100.752 486.132 100.517 486.602 100.048C487.114 99.536 487.37 98.9387 487.37 98.256V76.624C487.37 75.9413 487.114 75.3653 486.602 74.896C486.132 74.384 485.556 74.128 484.874 74.128H462.602C461.919 74.128 461.322 74.384 460.81 74.896C460.34 75.3653 460.106 75.9413 460.106 76.624V98.256C460.106 98.9387 460.34 99.536 460.81 100.048C461.322 100.517 461.919 100.752 462.602 100.752ZM499.362 120.72V68.88H529.442C530.85 68.88 532.13 69.2427 533.282 69.968C534.477 70.6507 535.416 71.5893 536.098 72.784C536.824 73.936 537.186 75.216 537.186 76.624V98.256C537.186 99.664 536.824 100.965 536.098 102.16C535.416 103.312 534.477 104.251 533.282 104.976C532.13 105.659 530.85 106 529.442 106H504.61V120.72H499.362ZM507.17 100.752H529.442C530.125 100.752 530.701 100.517 531.17 100.048C531.682 99.536 531.938 98.9387 531.938 98.256V76.624C531.938 75.9413 531.682 75.3653 531.17 74.896C530.701 74.384 530.125 74.128 529.442 74.128H507.17C506.488 74.128 505.89 74.384 505.378 74.896C504.866 75.3653 504.61 75.9413 504.61 76.624V98.256C504.61 98.9387 504.866 99.536 505.378 100.048C505.89 100.517 506.488 100.752 507.17 100.752ZM566.788 106C565.38 106 564.078 105.659 562.884 104.976C561.732 104.293 560.814 103.376 560.132 102.224C559.449 101.029 559.108 99.728 559.108 98.32V96.528H564.292V98.32C564.292 99.0027 564.526 99.6 564.996 100.112C565.508 100.581 566.105 100.816 566.788 100.816H597.508C598.19 100.816 598.766 100.581 599.236 100.112C599.748 99.6 600.004 99.0027 600.004 98.32V88.016C600.004 87.3333 599.748 86.7573 599.236 86.288C598.766 85.8187 598.19 85.584 597.508 85.584H566.788C565.38 85.584 564.078 85.2427 562.884 84.56C561.732 83.8347 560.814 82.896 560.132 81.744C559.449 80.592 559.108 79.312 559.108 77.904V67.6C559.108 66.192 559.449 64.912 560.132 63.76C560.814 62.5653 561.732 61.6267 562.884 60.944C564.078 60.2613 565.38 59.92 566.788 59.92H597.508C598.916 59.92 600.196 60.2613 601.348 60.944C602.542 61.6267 603.481 62.5653 604.164 63.76C604.846 64.912 605.188 66.192 605.188 67.6V69.392H600.004V67.6C600.004 66.9173 599.748 66.3413 599.236 65.872C598.766 65.36 598.19 65.104 597.508 65.104H566.788C566.105 65.104 565.508 65.36 564.996 65.872C564.526 66.3413 564.292 66.9173 564.292 67.6V77.904C564.292 78.5867 564.526 79.1627 564.996 79.632C565.508 80.1013 566.105 80.336 566.788 80.336H597.508C598.916 80.336 600.196 80.6987 601.348 81.424C602.542 82.1067 603.481 83.024 604.164 84.176C604.846 85.328 605.188 86.608 605.188 88.016V98.32C605.188 99.728 604.846 101.029 604.164 102.224C603.481 103.376 602.542 104.293 601.348 104.976C600.196 105.659 598.916 106 597.508 106H566.788ZM611.925 106V56.72H617.173V68.88H642.005C643.413 68.88 644.693 69.2427 645.845 69.968C647.039 70.6507 647.978 71.5893 648.661 72.784C649.386 73.936 649.749 75.216 649.749 76.624V106H644.501V76.624C644.501 75.9413 644.245 75.3653 643.733 74.896C643.263 74.384 642.687 74.128 642.005 74.128H619.733C619.05 74.128 618.453 74.384 617.941 74.896C617.429 75.3653 617.173 75.9413 617.173 76.624V106H611.925ZM662.227 106C660.819 106 659.517 105.659 658.323 104.976C657.171 104.251 656.232 103.312 655.507 102.16C654.824 100.965 654.483 99.664 654.483 98.256V76.624C654.483 75.216 654.824 73.936 655.507 72.784C656.232 71.5893 657.171 70.6507 658.323 69.968C659.517 69.2427 660.819 68.88 662.227 68.88H684.499C685.949 68.88 687.251 69.2427 688.403 69.968C689.597 70.6507 690.536 71.5893 691.219 72.784C691.944 73.936 692.307 75.216 692.307 76.624V98.256C692.307 99.664 691.944 100.965 691.219 102.16C690.536 103.312 689.597 104.251 688.403 104.976C687.251 105.659 685.949 106 684.499 106H662.227ZM662.227 100.752H684.499C685.181 100.752 685.757 100.517 686.227 100.048C686.739 99.536 686.995 98.9387 686.995 98.256V76.624C686.995 75.9413 686.739 75.3653 686.227 74.896C685.757 74.384 685.181 74.128 684.499 74.128H662.227C661.544 74.128 660.947 74.384 660.435 74.896C659.965 75.3653 659.731 75.9413 659.731 76.624V98.256C659.731 98.9387 659.965 99.536 660.435 100.048C660.947 100.517 661.544 100.752 662.227 100.752ZM698.987 120.72V68.88H729.067C730.475 68.88 731.755 69.2427 732.907 69.968C734.102 70.6507 735.041 71.5893 735.723 72.784C736.449 73.936 736.811 75.216 736.811 76.624V98.256C736.811 99.664 736.449 100.965 735.723 102.16C735.041 103.312 734.102 104.251 732.907 104.976C731.755 105.659 730.475 106 729.067 106H704.235V120.72H698.987ZM706.795 100.752H729.067C729.75 100.752 730.326 100.517 730.795 100.048C731.307 99.536 731.563 98.9387 731.563 98.256V76.624C731.563 75.9413 731.307 75.3653 730.795 74.896C730.326 74.384 729.75 74.128 729.067 74.128H706.795C706.113 74.128 705.515 74.384 705.003 74.896C704.491 75.3653 704.235 75.9413 704.235 76.624V98.256C704.235 98.9387 704.491 99.536 705.003 100.048C705.515 100.517 706.113 100.752 706.795 100.752ZM137.014 180C135.606 180 134.305 179.659 133.11 178.976C131.958 178.293 131.041 177.376 130.358 176.224C129.675 175.029 129.334 173.728 129.334 172.32V141.6C129.334 140.192 129.675 138.912 130.358 137.76C131.041 136.565 131.958 135.627 133.11 134.944C134.305 134.261 135.606 133.92 137.014 133.92H167.734C169.142 133.92 170.422 134.261 171.574 134.944C172.769 135.627 173.707 136.565 174.39 137.76C175.073 138.912 175.414 140.192 175.414 141.6V143.456H170.23V141.6C170.23 140.917 169.974 140.341 169.462 139.872C168.993 139.36 168.417 139.104 167.734 139.104H137.014C136.331 139.104 135.734 139.36 135.222 139.872C134.753 140.341 134.518 140.917 134.518 141.6V172.32C134.518 173.003 134.753 173.6 135.222 174.112C135.734 174.581 136.331 174.816 137.014 174.816H167.734C168.417 174.816 168.993 174.581 169.462 174.112C169.974 173.6 170.23 173.003 170.23 172.32V160.928H158.838V155.68H175.414V172.32C175.414 173.728 175.073 175.029 174.39 176.224C173.707 177.376 172.769 178.293 171.574 178.976C170.422 179.659 169.142 180 167.734 180H137.014ZM189.947 180C188.539 180 187.238 179.659 186.043 178.976C184.891 178.251 183.952 177.312 183.227 176.16C182.544 174.965 182.203 173.664 182.203 172.256V158.816H214.715V150.624C214.715 149.941 214.459 149.365 213.947 148.896C213.478 148.384 212.902 148.128 212.219 148.128H182.203V142.88H212.219C213.67 142.88 214.971 143.243 216.123 143.968C217.318 144.651 218.256 145.589 218.939 146.784C219.664 147.936 220.027 149.216 220.027 150.624V180H189.947ZM189.947 174.752H214.715V164.064H187.451V172.256C187.451 172.939 187.686 173.536 188.155 174.048C188.667 174.517 189.264 174.752 189.947 174.752ZM225.519 180V142.88H274.543C275.993 142.88 277.295 143.243 278.447 143.968C279.641 144.651 280.58 145.589 281.263 146.784C281.945 147.936 282.287 149.216 282.287 150.624V180H277.103V150.624C277.103 149.941 276.847 149.365 276.335 148.896C275.823 148.384 275.225 148.128 274.543 148.128H259.119C258.436 148.128 257.839 148.384 257.326 148.896C256.857 149.365 256.623 149.941 256.623 150.624V180H251.311V150.624C251.311 149.941 251.055 149.365 250.543 148.896C250.073 148.384 249.497 148.128 248.815 148.128H233.327C232.644 148.128 232.047 148.384 231.535 148.896C231.065 149.365 230.831 149.941 230.831 150.624V180H225.519ZM287.953 180V142.88H293.201V180H287.953ZM287.953 135.968V130.72H293.201V135.968H287.953ZM300.456 180V142.88H330.536C331.944 142.88 333.224 143.243 334.376 143.968C335.571 144.651 336.509 145.589 337.192 146.784C337.917 147.936 338.28 149.216 338.28 150.624V180H333.032V150.624C333.032 149.941 332.776 149.365 332.264 148.896C331.795 148.384 331.219 148.128 330.536 148.128H308.264C307.581 148.128 306.984 148.384 306.472 148.896C305.96 149.365 305.704 149.941 305.704 150.624V180H300.456ZM351.035 194.656V189.344H374.203C374.885 189.344 375.461 189.088 375.931 188.576C376.443 188.107 376.699 187.531 376.699 186.848V180H351.931C350.523 180 349.221 179.659 348.027 178.976C346.875 178.251 345.936 177.312 345.211 176.16C344.528 174.965 344.187 173.664 344.187 172.256V150.624C344.187 149.216 344.528 147.936 345.211 146.784C345.936 145.589 346.875 144.651 348.027 143.968C349.221 143.243 350.523 142.88 351.931 142.88H374.203C375.653 142.88 376.955 143.243 378.107 143.968C379.301 144.651 380.24 145.589 380.923 146.784C381.605 147.936 381.947 149.216 381.947 150.624V186.848C381.947 188.299 381.605 189.6 380.923 190.752C380.24 191.947 379.301 192.885 378.107 193.568C376.955 194.293 375.653 194.656 374.203 194.656H351.035ZM351.931 174.752H374.203C374.885 174.752 375.461 174.517 375.931 174.048C376.443 173.536 376.699 172.939 376.699 172.256V150.624C376.699 149.941 376.443 149.365 375.931 148.896C375.461 148.384 374.885 148.128 374.203 148.128H351.931C351.248 148.128 350.651 148.384 350.139 148.896C349.669 149.365 349.435 149.941 349.435 150.624V172.256C349.435 172.939 349.669 173.536 350.139 174.048C350.651 174.517 351.248 174.752 351.931 174.752ZM406.272 180V133.92H413.376L447.168 174.112V133.92H452.352V180H445.248L411.456 139.808V180H406.272ZM466.946 180C465.538 180 464.236 179.659 463.042 178.976C461.89 178.251 460.951 177.312 460.226 176.16C459.543 174.965 459.202 173.664 459.202 172.256V150.624C459.202 149.216 459.543 147.936 460.226 146.784C460.951 145.589 461.89 144.651 463.042 143.968C464.236 143.243 465.538 142.88 466.946 142.88H489.218C490.668 142.88 491.97 143.243 493.122 143.968C494.316 144.651 495.255 145.589 495.938 146.784C496.663 147.936 497.026 149.216 497.026 150.624V164.064H464.45V172.256C464.45 172.939 464.684 173.536 465.154 174.048C465.666 174.517 466.263 174.752 466.946 174.752H497.026V180H466.946ZM464.45 158.816H491.714V150.624C491.714 149.941 491.458 149.365 490.946 148.896C490.476 148.384 489.9 148.128 489.218 148.128H466.946C466.263 148.128 465.666 148.384 465.154 148.896C464.684 149.365 464.45 149.941 464.45 150.624V158.816ZM510.321 180C508.913 180 507.611 179.659 506.417 178.976C505.265 178.251 504.326 177.312 503.601 176.16C502.918 174.965 502.577 173.664 502.577 172.256V150.624C502.577 149.216 502.918 147.936 503.601 146.784C504.326 145.589 505.265 144.651 506.417 143.968C507.611 143.243 508.913 142.88 510.321 142.88H532.593C534.043 142.88 535.345 143.243 536.497 143.968C537.691 144.651 538.63 145.589 539.312 146.784C540.038 147.936 540.401 149.216 540.401 150.624V164.064H507.825V172.256C507.825 172.939 508.059 173.536 508.529 174.048C509.041 174.517 509.638 174.752 510.321 174.752H540.401V180H510.321ZM507.825 158.816H535.089V150.624C535.089 149.941 534.833 149.365 534.321 148.896C533.851 148.384 533.275 148.128 532.593 148.128H510.321C509.638 148.128 509.041 148.384 508.529 148.896C508.059 149.365 507.825 149.941 507.825 150.624V158.816ZM552.905 180C551.454 180 550.132 179.659 548.937 178.976C547.785 178.251 546.846 177.312 546.121 176.16C545.438 174.965 545.097 173.664 545.097 172.256V150.624C545.097 149.216 545.438 147.936 546.121 146.784C546.846 145.589 547.785 144.651 548.937 143.968C550.132 143.243 551.454 142.88 552.905 142.88H577.673V130.72H582.921V180H552.905ZM552.905 174.752H575.177C575.86 174.752 576.436 174.517 576.905 174.048C577.417 173.536 577.673 172.939 577.673 172.256V150.624C577.673 149.941 577.417 149.365 576.905 148.896C576.436 148.384 575.86 148.128 575.177 148.128H552.905C552.222 148.128 551.625 148.384 551.113 148.896C550.644 149.365 550.409 149.941 550.409 150.624V172.256C550.409 172.939 550.644 173.536 551.113 174.048C551.625 174.517 552.222 174.752 552.905 174.752ZM597.129 180C595.721 180 594.419 179.659 593.225 178.976C592.073 178.251 591.134 177.312 590.409 176.16C589.726 174.965 589.385 173.664 589.385 172.256V171.744H594.633V172.256C594.633 172.939 594.867 173.536 595.337 174.048C595.849 174.517 596.446 174.752 597.129 174.752H619.401C620.083 174.752 620.659 174.517 621.129 174.048C621.641 173.536 621.897 172.939 621.897 172.256V166.56C621.897 165.877 621.641 165.301 621.129 164.832C620.659 164.32 620.083 164.064 619.401 164.064H597.129C595.721 164.064 594.419 163.723 593.225 163.04C592.073 162.315 591.134 161.376 590.409 160.224C589.726 159.029 589.385 157.728 589.385 156.32V150.624C589.385 149.216 589.726 147.936 590.409 146.784C591.134 145.589 592.073 144.651 593.225 143.968C594.419 143.243 595.721 142.88 597.129 142.88H619.401C620.851 142.88 622.153 143.243 623.305 143.968C624.499 144.651 625.438 145.589 626.121 146.784C626.846 147.936 627.209 149.216 627.209 150.624V151.136H621.897V150.624C621.897 149.941 621.641 149.365 621.129 148.896C620.659 148.384 620.083 148.128 619.401 148.128H597.129C596.446 148.128 595.849 148.384 595.337 148.896C594.867 149.365 594.633 149.941 594.633 150.624V156.32C594.633 157.003 594.867 157.6 595.337 158.112C595.849 158.581 596.446 158.816 597.129 158.816H619.401C620.851 158.816 622.153 159.179 623.305 159.904C624.499 160.587 625.438 161.525 626.121 162.72C626.846 163.872 627.209 165.152 627.209 166.56V172.256C627.209 173.664 626.846 174.965 626.121 176.16C625.438 177.312 624.499 178.251 623.305 178.976C622.153 179.659 620.851 180 619.401 180H597.129ZM633.9 167.008V133.92H639.148V167.008H633.9ZM633.9 180V174.752H639.148V180H633.9Z" fill="white"/>
<defs>
<linearGradient id="paint0_linear_1_211" x1="279.694" y1="1.5" x2="279.694" y2="30.5" gradientUnits="userSpaceOnUse">
<stop stop-color="#FF9159"/>
<stop offset="0.6875" stop-color="#FF7631"/>
<stop offset="1" stop-color="#FF6A1F"/>
</linearGradient>
</defs>
</svg>
